<?xml version="1.0" encoding="utf-8"?>
<!-- Generator: Fusion 360, Shaper Origin Export Add-In, Version 1.6.3  -->
<svg xmlns="http://www.w3.org/2000/svg" xmlns:xlink="http://www.w3.org/1999/xlink" xmlns:shaper="http://www.shapertools.com/namespaces/shaper" shaper:fusionaddin="version:1.6.3" width="50cm" height="16cm" version="1.1" x="0cm" y="0cm" viewBox="0 0 50 16" enable-background="new 0 0 50 16" xml:space="preserve"><path d="M-29.002308,-18.7979437 L-29.002308,-32.7979437 A1,1 180 0,1 -28.002308,-33.7979437 L19.997692,-33.7979437 A1,1 270 0,1 20.997692,-32.7979437 L20.997692,-18.7979437 A1,1 0 0,1 19.997692,-17.7979437 L-28.002308,-17.7979437 A1,1 90 0,1 -29.002308,-18.7979437z" transform="matrix(1,0,0,-1,29.002308,-17.7979437)" fill="rgb(0,0,0)" shaper:cutDepth="0" stroke-linecap="round" stroke-linejoin="round" /><path d="M-27.727308,-23.0479437 A0.325,0.325 180 0,0 -27.077308,-23.0479437 L-27.077308,-28.5479437 A0.325,0.325 0 0,0 -27.727308,-28.5479437 L-27.727308,-23.0479437z" transform="matrix(1,0,0,-1,29.002308,-17.7979437)" fill="rgb(255,255,255)" stroke="rgb(0,0,0)" stroke-width="0.0010cm" stroke-linecap="round" stroke-linejoin="round" shaper:cutDepth="0" /><path d="M19.072692,-23.0479437 A0.325,0.325 180 0,0 19.722692,-23.0479437 L19.722692,-28.5479437 A0.325,0.325 0 0,0 19.072692,-28.5479437 L19.072692,-23.0479437z" transform="matrix(1,0,0,-1,29.002308,-17.7979437)" fill="rgb(255,255,255)" stroke="rgb(0,0,0)" stroke-width="0.0010cm" stroke-linecap="round" stroke-linejoin="round" shaper:cutDepth="0" /><path d="M-4.212308,-21.7938399 a0.21,0.21 0 1,1 0.42,0 a0.21,0.21 0 1,1 -0.42,0z" transform="matrix(1,0,0,-1,29.002308,-17.7979437)" fill="rgb(255,255,255)" stroke="rgb(0,0,0)" stroke-width="0.0010cm" stroke-linecap="round" stroke-linejoin="round" shaper:cutDepth="0" /><path d="M-4.212308,-25.7938399 a0.21,0.21 0 1,1 0.42,0 a0.21,0.21 0 1,1 -0.42,0z" transform="matrix(1,0,0,-1,29.002308,-17.7979437)" fill="rgb(255,255,255)" stroke="rgb(0,0,0)" stroke-width="0.0010cm" stroke-linecap="round" stroke-linejoin="round" shaper:cutDepth="0" /><path d="M-4.212308,-23.7938399 a0.21,0.21 0 1,1 0.42,0 a0.21,0.21 0 1,1 -0.42,0z" transform="matrix(1,0,0,-1,29.002308,-17.7979437)" fill="rgb(255,255,255)" stroke="rgb(0,0,0)" stroke-width="0.0010cm" stroke-linecap="round" stroke-linejoin="round" shaper:cutDepth="0" /><path d="M-4.212308,-29.7938399 a0.21,0.21 0 1,1 0.42,0 a0.21,0.21 0 1,1 -0.42,0z" transform="matrix(1,0,0,-1,29.002308,-17.7979437)" fill="rgb(255,255,255)" stroke="rgb(0,0,0)" stroke-width="0.0010cm" stroke-linecap="round" stroke-linejoin="round" shaper:cutDepth="0" /><path d="M-4.212308,-27.7938399 a0.21,0.21 0 1,1 0.42,0 a0.21,0.21 0 1,1 -0.42,0z" transform="matrix(1,0,0,-1,29.002308,-17.7979437)" fill="rgb(255,255,255)" stroke="rgb(0,0,0)" stroke-width="0.0010cm" stroke-linecap="round" stroke-linejoin="round" shaper:cutDepth="0" /><path d="M-26.212308,-19.7938399 a0.21,0.21 0 1,1 0.42,0 a0.21,0.21 0 1,1 -0.42,0z" transform="matrix(1,0,0,-1,29.002308,-17.7979437)" fill="rgb(255,255,255)" stroke="rgb(0,0,0)" stroke-width="0.0010cm" stroke-linecap="round" stroke-linejoin="round" shaper:cutDepth="0" /><path d="M-24.212308,-19.7938399 a0.21,0.21 0 1,1 0.42,0 a0.21,0.21 0 1,1 -0.42,0z" transform="matrix(1,0,0,-1,29.002308,-17.7979437)" fill="rgb(255,255,255)" stroke="rgb(0,0,0)" stroke-width="0.0010cm" stroke-linecap="round" stroke-linejoin="round" shaper:cutDepth="0" /><path d="M-22.212308,-19.7938399 a0.21,0.21 0 1,1 0.42,0 a0.21,0.21 0 1,1 -0.42,0z" transform="matrix(1,0,0,-1,29.002308,-17.7979437)" fill="rgb(255,255,255)" stroke="rgb(0,0,0)" stroke-width="0.0010cm" stroke-linecap="round" stroke-linejoin="round" shaper:cutDepth="0" /><path d="M-20.212308,-19.7938399 a0.21,0.21 0 1,1 0.42,0 a0.21,0.21 0 1,1 -0.42,0z" transform="matrix(1,0,0,-1,29.002308,-17.7979437)" fill="rgb(255,255,255)" stroke="rgb(0,0,0)" stroke-width="0.0010cm" stroke-linecap="round" stroke-linejoin="round" shaper:cutDepth="0" /><path d="M-18.212308,-19.7938399 a0.21,0.21 0 1,1 0.42,0 a0.21,0.21 0 1,1 -0.42,0z" transform="matrix(1,0,0,-1,29.002308,-17.7979437)" fill="rgb(255,255,255)" stroke="rgb(0,0,0)" stroke-width="0.0010cm" stroke-linecap="round" stroke-linejoin="round" shaper:cutDepth="0" /><path d="M-26.212308,-21.7938399 a0.21,0.21 0 1,1 0.42,0 a0.21,0.21 0 1,1 -0.42,0z" transform="matrix(1,0,0,-1,29.002308,-17.7979437)" fill="rgb(255,255,255)" stroke="rgb(0,0,0)" stroke-width="0.0010cm" stroke-linecap="round" stroke-linejoin="round" shaper:cutDepth="0" /><path d="M-24.212308,-21.7938399 a0.21,0.21 0 1,1 0.42,0 a0.21,0.21 0 1,1 -0.42,0z" transform="matrix(1,0,0,-1,29.002308,-17.7979437)" fill="rgb(255,255,255)" stroke="rgb(0,0,0)" stroke-width="0.0010cm" stroke-linecap="round" stroke-linejoin="round" shaper:cutDepth="0" /><path d="M-22.212308,-21.7938399 a0.21,0.21 0 1,1 0.42,0 a0.21,0.21 0 1,1 -0.42,0z" transform="matrix(1,0,0,-1,29.002308,-17.7979437)" fill="rgb(255,255,255)" stroke="rgb(0,0,0)" stroke-width="0.0010cm" stroke-linecap="round" stroke-linejoin="round" shaper:cutDepth="0" /><path d="M-20.212308,-21.7938399 a0.21,0.21 0 1,1 0.42,0 a0.21,0.21 0 1,1 -0.42,0z" transform="matrix(1,0,0,-1,29.002308,-17.7979437)" fill="rgb(255,255,255)" stroke="rgb(0,0,0)" stroke-width="0.0010cm" stroke-linecap="round" stroke-linejoin="round" shaper:cutDepth="0" /><path d="M-18.212308,-21.7938399 a0.21,0.21 0 1,1 0.42,0 a0.21,0.21 0 1,1 -0.42,0z" transform="matrix(1,0,0,-1,29.002308,-17.7979437)" fill="rgb(255,255,255)" stroke="rgb(0,0,0)" stroke-width="0.0010cm" stroke-linecap="round" stroke-linejoin="round" shaper:cutDepth="0" /><path d="M-26.212308,-23.7938399 a0.21,0.21 0 1,1 0.42,0 a0.21,0.21 0 1,1 -0.42,0z" transform="matrix(1,0,0,-1,29.002308,-17.7979437)" fill="rgb(255,255,255)" stroke="rgb(0,0,0)" stroke-width="0.0010cm" stroke-linecap="round" stroke-linejoin="round" shaper:cutDepth="0" /><path d="M-24.212308,-23.7938399 a0.21,0.21 0 1,1 0.42,0 a0.21,0.21 0 1,1 -0.42,0z" transform="matrix(1,0,0,-1,29.002308,-17.7979437)" fill="rgb(255,255,255)" stroke="rgb(0,0,0)" stroke-width="0.0010cm" stroke-linecap="round" stroke-linejoin="round" shaper:cutDepth="0" /><path d="M-22.212308,-23.7938399 a0.21,0.21 0 1,1 0.42,0 a0.21,0.21 0 1,1 -0.42,0z" transform="matrix(1,0,0,-1,29.002308,-17.7979437)" fill="rgb(255,255,255)" stroke="rgb(0,0,0)" stroke-width="0.0010cm" stroke-linecap="round" stroke-linejoin="round" shaper:cutDepth="0" /><path d="M-20.212308,-23.7938399 a0.21,0.21 0 1,1 0.42,0 a0.21,0.21 0 1,1 -0.42,0z" transform="matrix(1,0,0,-1,29.002308,-17.7979437)" fill="rgb(255,255,255)" stroke="rgb(0,0,0)" stroke-width="0.0010cm" stroke-linecap="round" stroke-linejoin="round" shaper:cutDepth="0" /><path d="M-18.212308,-23.7938399 a0.21,0.21 0 1,1 0.42,0 a0.21,0.21 0 1,1 -0.42,0z" transform="matrix(1,0,0,-1,29.002308,-17.7979437)" fill="rgb(255,255,255)" stroke="rgb(0,0,0)" stroke-width="0.0010cm" stroke-linecap="round" stroke-linejoin="round" shaper:cutDepth="0" /><path d="M-26.212308,-25.7938399 a0.21,0.21 0 1,1 0.42,0 a0.21,0.21 0 1,1 -0.42,0z" transform="matrix(1,0,0,-1,29.002308,-17.7979437)" fill="rgb(255,255,255)" stroke="rgb(0,0,0)" stroke-width="0.0010cm" stroke-linecap="round" stroke-linejoin="round" shaper:cutDepth="0" /><path d="M-24.212308,-25.7938399 a0.21,0.21 0 1,1 0.42,0 a0.21,0.21 0 1,1 -0.42,0z" transform="matrix(1,0,0,-1,29.002308,-17.7979437)" fill="rgb(255,255,255)" stroke="rgb(0,0,0)" stroke-width="0.0010cm" stroke-linecap="round" stroke-linejoin="round" shaper:cutDepth="0" /><path d="M-22.212308,-25.7938399 a0.21,0.21 0 1,1 0.42,0 a0.21,0.21 0 1,1 -0.42,0z" transform="matrix(1,0,0,-1,29.002308,-17.7979437)" fill="rgb(255,255,255)" stroke="rgb(0,0,0)" stroke-width="0.0010cm" stroke-linecap="round" stroke-linejoin="round" shaper:cutDepth="0" /><path d="M-20.212308,-25.7938399 a0.21,0.21 0 1,1 0.42,0 a0.21,0.21 0 1,1 -0.42,0z" transform="matrix(1,0,0,-1,29.002308,-17.7979437)" fill="rgb(255,255,255)" stroke="rgb(0,0,0)" stroke-width="0.0010cm" stroke-linecap="round" stroke-linejoin="round" shaper:cutDepth="0" /><path d="M-18.212308,-25.7938399 a0.21,0.21 0 1,1 0.42,0 a0.21,0.21 0 1,1 -0.42,0z" transform="matrix(1,0,0,-1,29.002308,-17.7979437)" fill="rgb(255,255,255)" stroke="rgb(0,0,0)" stroke-width="0.0010cm" stroke-linecap="round" stroke-linejoin="round" shaper:cutDepth="0" /><path d="M-26.212308,-27.7938399 a0.21,0.21 0 1,1 0.42,0 a0.21,0.21 0 1,1 -0.42,0z" transform="matrix(1,0,0,-1,29.002308,-17.7979437)" fill="rgb(255,255,255)" stroke="rgb(0,0,0)" stroke-width="0.0010cm" stroke-linecap="round" stroke-linejoin="round" shaper:cutDepth="0" /><path d="M-24.212308,-27.7938399 a0.21,0.21 0 1,1 0.42,0 a0.21,0.21 0 1,1 -0.42,0z" transform="matrix(1,0,0,-1,29.002308,-17.7979437)" fill="rgb(255,255,255)" stroke="rgb(0,0,0)" stroke-width="0.0010cm" stroke-linecap="round" stroke-linejoin="round" shaper:cutDepth="0" /><path d="M-22.212308,-27.7938399 a0.21,0.21 0 1,1 0.42,0 a0.21,0.21 0 1,1 -0.42,0z" transform="matrix(1,0,0,-1,29.002308,-17.7979437)" fill="rgb(255,255,255)" stroke="rgb(0,0,0)" stroke-width="0.0010cm" stroke-linecap="round" stroke-linejoin="round" shaper:cutDepth="0" /><path d="M-20.212308,-27.7938399 a0.21,0.21 0 1,1 0.42,0 a0.21,0.21 0 1,1 -0.42,0z" transform="matrix(1,0,0,-1,29.002308,-17.7979437)" fill="rgb(255,255,255)" stroke="rgb(0,0,0)" stroke-width="0.0010cm" stroke-linecap="round" stroke-linejoin="round" shaper:cutDepth="0" /><path d="M-18.212308,-27.7938399 a0.21,0.21 0 1,1 0.42,0 a0.21,0.21 0 1,1 -0.42,0z" transform="matrix(1,0,0,-1,29.002308,-17.7979437)" fill="rgb(255,255,255)" stroke="rgb(0,0,0)" stroke-width="0.0010cm" stroke-linecap="round" stroke-linejoin="round" shaper:cutDepth="0" /><path d="M-26.212308,-29.7938399 a0.21,0.21 0 1,1 0.42,0 a0.21,0.21 0 1,1 -0.42,0z" transform="matrix(1,0,0,-1,29.002308,-17.7979437)" fill="rgb(255,255,255)" stroke="rgb(0,0,0)" stroke-width="0.0010cm" stroke-linecap="round" stroke-linejoin="round" shaper:cutDepth="0" /><path d="M-24.212308,-29.7938399 a0.21,0.21 0 1,1 0.42,0 a0.21,0.21 0 1,1 -0.42,0z" transform="matrix(1,0,0,-1,29.002308,-17.7979437)" fill="rgb(255,255,255)" stroke="rgb(0,0,0)" stroke-width="0.0010cm" stroke-linecap="round" stroke-linejoin="round" shaper:cutDepth="0" /><path d="M-22.212308,-29.7938399 a0.21,0.21 0 1,1 0.42,0 a0.21,0.21 0 1,1 -0.42,0z" transform="matrix(1,0,0,-1,29.002308,-17.7979437)" fill="rgb(255,255,255)" stroke="rgb(0,0,0)" stroke-width="0.0010cm" stroke-linecap="round" stroke-linejoin="round" shaper:cutDepth="0" /><path d="M-20.212308,-29.7938399 a0.21,0.21 0 1,1 0.42,0 a0.21,0.21 0 1,1 -0.42,0z" transform="matrix(1,0,0,-1,29.002308,-17.7979437)" fill="rgb(255,255,255)" stroke="rgb(0,0,0)" stroke-width="0.0010cm" stroke-linecap="round" stroke-linejoin="round" shaper:cutDepth="0" /><path d="M-18.212308,-29.7938399 a0.21,0.21 0 1,1 0.42,0 a0.21,0.21 0 1,1 -0.42,0z" transform="matrix(1,0,0,-1,29.002308,-17.7979437)" fill="rgb(255,255,255)" stroke="rgb(0,0,0)" stroke-width="0.0010cm" stroke-linecap="round" stroke-linejoin="round" shaper:cutDepth="0" /><path d="M-26.212308,-31.7938399 a0.21,0.21 0 1,1 0.42,0 a0.21,0.21 0 1,1 -0.42,0z" transform="matrix(1,0,0,-1,29.002308,-17.7979437)" fill="rgb(255,255,255)" stroke="rgb(0,0,0)" stroke-width="0.0010cm" stroke-linecap="round" stroke-linejoin="round" shaper:cutDepth="0" /><path d="M-24.212308,-31.7938399 a0.21,0.21 0 1,1 0.42,0 a0.21,0.21 0 1,1 -0.42,0z" transform="matrix(1,0,0,-1,29.002308,-17.7979437)" fill="rgb(255,255,255)" stroke="rgb(0,0,0)" stroke-width="0.0010cm" stroke-linecap="round" stroke-linejoin="round" shaper:cutDepth="0" /><path d="M-22.212308,-31.7938399 a0.21,0.21 0 1,1 0.42,0 a0.21,0.21 0 1,1 -0.42,0z" transform="matrix(1,0,0,-1,29.002308,-17.7979437)" fill="rgb(255,255,255)" stroke="rgb(0,0,0)" stroke-width="0.0010cm" stroke-linecap="round" stroke-linejoin="round" shaper:cutDepth="0" /><path d="M-20.212308,-31.7938399 a0.21,0.21 0 1,1 0.42,0 a0.21,0.21 0 1,1 -0.42,0z" transform="matrix(1,0,0,-1,29.002308,-17.7979437)" fill="rgb(255,255,255)" stroke="rgb(0,0,0)" stroke-width="0.0010cm" stroke-linecap="round" stroke-linejoin="round" shaper:cutDepth="0" /><path d="M-18.212308,-31.7938399 a0.21,0.21 0 1,1 0.42,0 a0.21,0.21 0 1,1 -0.42,0z" transform="matrix(1,0,0,-1,29.002308,-17.7979437)" fill="rgb(255,255,255)" stroke="rgb(0,0,0)" stroke-width="0.0010cm" stroke-linecap="round" stroke-linejoin="round" shaper:cutDepth="0" /><path d="M17.787692,-19.7938399 a0.21,0.21 0 1,1 0.42,0 a0.21,0.21 0 1,1 -0.42,0z" transform="matrix(1,0,0,-1,29.002308,-17.7979437)" fill="rgb(255,255,255)" stroke="rgb(0,0,0)" stroke-width="0.0010cm" stroke-linecap="round" stroke-linejoin="round" shaper:cutDepth="0" /><path d="M15.787692,-19.7938399 a0.21,0.21 0 1,1 0.42,0 a0.21,0.21 0 1,1 -0.42,0z" transform="matrix(1,0,0,-1,29.002308,-17.7979437)" fill="rgb(255,255,255)" stroke="rgb(0,0,0)" stroke-width="0.0010cm" stroke-linecap="round" stroke-linejoin="round" shaper:cutDepth="0" /><path d="M13.787692,-19.7938399 a0.21,0.21 0 1,1 0.42,0 a0.21,0.21 0 1,1 -0.42,0z" transform="matrix(1,0,0,-1,29.002308,-17.7979437)" fill="rgb(255,255,255)" stroke="rgb(0,0,0)" stroke-width="0.0010cm" stroke-linecap="round" stroke-linejoin="round" shaper:cutDepth="0" /><path d="M11.787692,-19.7938399 a0.21,0.21 0 1,1 0.42,0 a0.21,0.21 0 1,1 -0.42,0z" transform="matrix(1,0,0,-1,29.002308,-17.7979437)" fill="rgb(255,255,255)" stroke="rgb(0,0,0)" stroke-width="0.0010cm" stroke-linecap="round" stroke-linejoin="round" shaper:cutDepth="0" /><path d="M9.787692,-19.7938399 a0.21,0.21 0 1,1 0.42,0 a0.21,0.21 0 1,1 -0.42,0z" transform="matrix(1,0,0,-1,29.002308,-17.7979437)" fill="rgb(255,255,255)" stroke="rgb(0,0,0)" stroke-width="0.0010cm" stroke-linecap="round" stroke-linejoin="round" shaper:cutDepth="0" /><path d="M17.787692,-31.7938399 a0.21,0.21 0 1,1 0.42,0 a0.21,0.21 0 1,1 -0.42,0z" transform="matrix(1,0,0,-1,29.002308,-17.7979437)" fill="rgb(255,255,255)" stroke="rgb(0,0,0)" stroke-width="0.0010cm" stroke-linecap="round" stroke-linejoin="round" shaper:cutDepth="0" /><path d="M15.787692,-31.7938399 a0.21,0.21 0 1,1 0.42,0 a0.21,0.21 0 1,1 -0.42,0z" transform="matrix(1,0,0,-1,29.002308,-17.7979437)" fill="rgb(255,255,255)" stroke="rgb(0,0,0)" stroke-width="0.0010cm" stroke-linecap="round" stroke-linejoin="round" shaper:cutDepth="0" /><path d="M13.787692,-31.7938399 a0.21,0.21 0 1,1 0.42,0 a0.21,0.21 0 1,1 -0.42,0z" transform="matrix(1,0,0,-1,29.002308,-17.7979437)" fill="rgb(255,255,255)" stroke="rgb(0,0,0)" stroke-width="0.0010cm" stroke-linecap="round" stroke-linejoin="round" shaper:cutDepth="0" /><path d="M11.787692,-31.7938399 a0.21,0.21 0 1,1 0.42,0 a0.21,0.21 0 1,1 -0.42,0z" transform="matrix(1,0,0,-1,29.002308,-17.7979437)" fill="rgb(255,255,255)" stroke="rgb(0,0,0)" stroke-width="0.0010cm" stroke-linecap="round" stroke-linejoin="round" shaper:cutDepth="0" /><path d="M9.787692,-31.7938399 a0.21,0.21 0 1,1 0.42,0 a0.21,0.21 0 1,1 -0.42,0z" transform="matrix(1,0,0,-1,29.002308,-17.7979437)" fill="rgb(255,255,255)" stroke="rgb(0,0,0)" stroke-width="0.0010cm" stroke-linecap="round" stroke-linejoin="round" shaper:cutDepth="0" /><path d="M17.787692,-29.7938399 a0.21,0.21 0 1,1 0.42,0 a0.21,0.21 0 1,1 -0.42,0z" transform="matrix(1,0,0,-1,29.002308,-17.7979437)" fill="rgb(255,255,255)" stroke="rgb(0,0,0)" stroke-width="0.0010cm" stroke-linecap="round" stroke-linejoin="round" shaper:cutDepth="0" /><path d="M15.787692,-29.7938399 a0.21,0.21 0 1,1 0.42,0 a0.21,0.21 0 1,1 -0.42,0z" transform="matrix(1,0,0,-1,29.002308,-17.7979437)" fill="rgb(255,255,255)" stroke="rgb(0,0,0)" stroke-width="0.0010cm" stroke-linecap="round" stroke-linejoin="round" shaper:cutDepth="0" /><path d="M13.787692,-29.7938399 a0.21,0.21 0 1,1 0.42,0 a0.21,0.21 0 1,1 -0.42,0z" transform="matrix(1,0,0,-1,29.002308,-17.7979437)" fill="rgb(255,255,255)" stroke="rgb(0,0,0)" stroke-width="0.0010cm" stroke-linecap="round" stroke-linejoin="round" shaper:cutDepth="0" /><path d="M11.787692,-29.7938399 a0.21,0.21 0 1,1 0.42,0 a0.21,0.21 0 1,1 -0.42,0z" transform="matrix(1,0,0,-1,29.002308,-17.7979437)" fill="rgb(255,255,255)" stroke="rgb(0,0,0)" stroke-width="0.0010cm" stroke-linecap="round" stroke-linejoin="round" shaper:cutDepth="0" /><path d="M9.787692,-29.7938399 a0.21,0.21 0 1,1 0.42,0 a0.21,0.21 0 1,1 -0.42,0z" transform="matrix(1,0,0,-1,29.002308,-17.7979437)" fill="rgb(255,255,255)" stroke="rgb(0,0,0)" stroke-width="0.0010cm" stroke-linecap="round" stroke-linejoin="round" shaper:cutDepth="0" /><path d="M17.787692,-27.7938399 a0.21,0.21 0 1,1 0.42,0 a0.21,0.21 0 1,1 -0.42,0z" transform="matrix(1,0,0,-1,29.002308,-17.7979437)" fill="rgb(255,255,255)" stroke="rgb(0,0,0)" stroke-width="0.0010cm" stroke-linecap="round" stroke-linejoin="round" shaper:cutDepth="0" /><path d="M15.787692,-27.7938399 a0.21,0.21 0 1,1 0.42,0 a0.21,0.21 0 1,1 -0.42,0z" transform="matrix(1,0,0,-1,29.002308,-17.7979437)" fill="rgb(255,255,255)" stroke="rgb(0,0,0)" stroke-width="0.0010cm" stroke-linecap="round" stroke-linejoin="round" shaper:cutDepth="0" /><path d="M13.787692,-27.7938399 a0.21,0.21 0 1,1 0.42,0 a0.21,0.21 0 1,1 -0.42,0z" transform="matrix(1,0,0,-1,29.002308,-17.7979437)" fill="rgb(255,255,255)" stroke="rgb(0,0,0)" stroke-width="0.0010cm" stroke-linecap="round" stroke-linejoin="round" shaper:cutDepth="0" /><path d="M11.787692,-27.7938399 a0.21,0.21 0 1,1 0.42,0 a0.21,0.21 0 1,1 -0.42,0z" transform="matrix(1,0,0,-1,29.002308,-17.7979437)" fill="rgb(255,255,255)" stroke="rgb(0,0,0)" stroke-width="0.0010cm" stroke-linecap="round" stroke-linejoin="round" shaper:cutDepth="0" /><path d="M9.787692,-27.7938399 a0.21,0.21 0 1,1 0.42,0 a0.21,0.21 0 1,1 -0.42,0z" transform="matrix(1,0,0,-1,29.002308,-17.7979437)" fill="rgb(255,255,255)" stroke="rgb(0,0,0)" stroke-width="0.0010cm" stroke-linecap="round" stroke-linejoin="round" shaper:cutDepth="0" /><path d="M17.787692,-25.7938399 a0.21,0.21 0 1,1 0.42,0 a0.21,0.21 0 1,1 -0.42,0z" transform="matrix(1,0,0,-1,29.002308,-17.7979437)" fill="rgb(255,255,255)" stroke="rgb(0,0,0)" stroke-width="0.0010cm" stroke-linecap="round" stroke-linejoin="round" shaper:cutDepth="0" /><path d="M15.787692,-25.7938399 a0.21,0.21 0 1,1 0.42,0 a0.21,0.21 0 1,1 -0.42,0z" transform="matrix(1,0,0,-1,29.002308,-17.7979437)" fill="rgb(255,255,255)" stroke="rgb(0,0,0)" stroke-width="0.0010cm" stroke-linecap="round" stroke-linejoin="round" shaper:cutDepth="0" /><path d="M13.787692,-25.7938399 a0.21,0.21 0 1,1 0.42,0 a0.21,0.21 0 1,1 -0.42,0z" transform="matrix(1,0,0,-1,29.002308,-17.7979437)" fill="rgb(255,255,255)" stroke="rgb(0,0,0)" stroke-width="0.0010cm" stroke-linecap="round" stroke-linejoin="round" shaper:cutDepth="0" /><path d="M11.787692,-25.7938399 a0.21,0.21 0 1,1 0.42,0 a0.21,0.21 0 1,1 -0.42,0z" transform="matrix(1,0,0,-1,29.002308,-17.7979437)" fill="rgb(255,255,255)" stroke="rgb(0,0,0)" stroke-width="0.0010cm" stroke-linecap="round" stroke-linejoin="round" shaper:cutDepth="0" /><path d="M9.787692,-25.7938399 a0.21,0.21 0 1,1 0.42,0 a0.21,0.21 0 1,1 -0.42,0z" transform="matrix(1,0,0,-1,29.002308,-17.7979437)" fill="rgb(255,255,255)" stroke="rgb(0,0,0)" stroke-width="0.0010cm" stroke-linecap="round" stroke-linejoin="round" shaper:cutDepth="0" /><path d="M17.787692,-23.7938399 a0.21,0.21 0 1,1 0.42,0 a0.21,0.21 0 1,1 -0.42,0z" transform="matrix(1,0,0,-1,29.002308,-17.7979437)" fill="rgb(255,255,255)" stroke="rgb(0,0,0)" stroke-width="0.0010cm" stroke-linecap="round" stroke-linejoin="round" shaper:cutDepth="0" /><path d="M15.787692,-23.7938399 a0.21,0.21 0 1,1 0.42,0 a0.21,0.21 0 1,1 -0.42,0z" transform="matrix(1,0,0,-1,29.002308,-17.7979437)" fill="rgb(255,255,255)" stroke="rgb(0,0,0)" stroke-width="0.0010cm" stroke-linecap="round" stroke-linejoin="round" shaper:cutDepth="0" /><path d="M13.787692,-23.7938399 a0.21,0.21 0 1,1 0.42,0 a0.21,0.21 0 1,1 -0.42,0z" transform="matrix(1,0,0,-1,29.002308,-17.7979437)" fill="rgb(255,255,255)" stroke="rgb(0,0,0)" stroke-width="0.0010cm" stroke-linecap="round" stroke-linejoin="round" shaper:cutDepth="0" /><path d="M11.787692,-23.7938399 a0.21,0.21 0 1,1 0.42,0 a0.21,0.21 0 1,1 -0.42,0z" transform="matrix(1,0,0,-1,29.002308,-17.7979437)" fill="rgb(255,255,255)" stroke="rgb(0,0,0)" stroke-width="0.0010cm" stroke-linecap="round" stroke-linejoin="round" shaper:cutDepth="0" /><path d="M9.787692,-23.7938399 a0.21,0.21 0 1,1 0.42,0 a0.21,0.21 0 1,1 -0.42,0z" transform="matrix(1,0,0,-1,29.002308,-17.7979437)" fill="rgb(255,255,255)" stroke="rgb(0,0,0)" stroke-width="0.0010cm" stroke-linecap="round" stroke-linejoin="round" shaper:cutDepth="0" /><path d="M17.787692,-21.7938399 a0.21,0.21 0 1,1 0.42,0 a0.21,0.21 0 1,1 -0.42,0z" transform="matrix(1,0,0,-1,29.002308,-17.7979437)" fill="rgb(255,255,255)" stroke="rgb(0,0,0)" stroke-width="0.0010cm" stroke-linecap="round" stroke-linejoin="round" shaper:cutDepth="0" /><path d="M15.787692,-21.7938399 a0.21,0.21 0 1,1 0.42,0 a0.21,0.21 0 1,1 -0.42,0z" transform="matrix(1,0,0,-1,29.002308,-17.7979437)" fill="rgb(255,255,255)" stroke="rgb(0,0,0)" stroke-width="0.0010cm" stroke-linecap="round" stroke-linejoin="round" shaper:cutDepth="0" /><path d="M13.787692,-21.7938399 a0.21,0.21 0 1,1 0.42,0 a0.21,0.21 0 1,1 -0.42,0z" transform="matrix(1,0,0,-1,29.002308,-17.7979437)" fill="rgb(255,255,255)" stroke="rgb(0,0,0)" stroke-width="0.0010cm" stroke-linecap="round" stroke-linejoin="round" shaper:cutDepth="0" /><path d="M11.787692,-21.7938399 a0.21,0.21 0 1,1 0.42,0 a0.21,0.21 0 1,1 -0.42,0z" transform="matrix(1,0,0,-1,29.002308,-17.7979437)" fill="rgb(255,255,255)" stroke="rgb(0,0,0)" stroke-width="0.0010cm" stroke-linecap="round" stroke-linejoin="round" shaper:cutDepth="0" /><path d="M9.787692,-21.7938399 a0.21,0.21 0 1,1 0.42,0 a0.21,0.21 0 1,1 -0.42,0z" transform="matrix(1,0,0,-1,29.002308,-17.7979437)" fill="rgb(255,255,255)" stroke="rgb(0,0,0)" stroke-width="0.0010cm" stroke-linecap="round" stroke-linejoin="round" shaper:cutDepth="0" /><path d="M-16.212308,-19.7938399 a0.21,0.21 0 1,1 0.42,0 a0.21,0.21 0 1,1 -0.42,0z" transform="matrix(1,0,0,-1,29.002308,-17.7979437)" fill="rgb(255,255,255)" stroke="rgb(0,0,0)" stroke-width="0.0010cm" stroke-linecap="round" stroke-linejoin="round" shaper:cutDepth="0" /><path d="M-16.212308,-21.7938399 a0.21,0.21 0 1,1 0.42,0 a0.21,0.21 0 1,1 -0.42,0z" transform="matrix(1,0,0,-1,29.002308,-17.7979437)" fill="rgb(255,255,255)" stroke="rgb(0,0,0)" stroke-width="0.0010cm" stroke-linecap="round" stroke-linejoin="round" shaper:cutDepth="0" /><path d="M-16.212308,-23.7938399 a0.21,0.21 0 1,1 0.42,0 a0.21,0.21 0 1,1 -0.42,0z" transform="matrix(1,0,0,-1,29.002308,-17.7979437)" fill="rgb(255,255,255)" stroke="rgb(0,0,0)" stroke-width="0.0010cm" stroke-linecap="round" stroke-linejoin="round" shaper:cutDepth="0" /><path d="M-16.212308,-25.7938399 a0.21,0.21 0 1,1 0.42,0 a0.21,0.21 0 1,1 -0.42,0z" transform="matrix(1,0,0,-1,29.002308,-17.7979437)" fill="rgb(255,255,255)" stroke="rgb(0,0,0)" stroke-width="0.0010cm" stroke-linecap="round" stroke-linejoin="round" shaper:cutDepth="0" /><path d="M-16.212308,-27.7938399 a0.21,0.21 0 1,1 0.42,0 a0.21,0.21 0 1,1 -0.42,0z" transform="matrix(1,0,0,-1,29.002308,-17.7979437)" fill="rgb(255,255,255)" stroke="rgb(0,0,0)" stroke-width="0.0010cm" stroke-linecap="round" stroke-linejoin="round" shaper:cutDepth="0" /><path d="M-16.212308,-29.7938399 a0.21,0.21 0 1,1 0.42,0 a0.21,0.21 0 1,1 -0.42,0z" transform="matrix(1,0,0,-1,29.002308,-17.7979437)" fill="rgb(255,255,255)" stroke="rgb(0,0,0)" stroke-width="0.0010cm" stroke-linecap="round" stroke-linejoin="round" shaper:cutDepth="0" /><path d="M-14.212308,-31.7938399 a0.21,0.21 0 1,1 0.42,0 a0.21,0.21 0 1,1 -0.42,0z" transform="matrix(1,0,0,-1,29.002308,-17.7979437)" fill="rgb(255,255,255)" stroke="rgb(0,0,0)" stroke-width="0.0010cm" stroke-linecap="round" stroke-linejoin="round" shaper:cutDepth="0" /><path d="M-12.212308,-21.7938399 a0.21,0.21 0 1,1 0.42,0 a0.21,0.21 0 1,1 -0.42,0z" transform="matrix(1,0,0,-1,29.002308,-17.7979437)" fill="rgb(255,255,255)" stroke="rgb(0,0,0)" stroke-width="0.0010cm" stroke-linecap="round" stroke-linejoin="round" shaper:cutDepth="0" /><path d="M-12.212308,-25.7938399 a0.21,0.21 0 1,1 0.42,0 a0.21,0.21 0 1,1 -0.42,0z" transform="matrix(1,0,0,-1,29.002308,-17.7979437)" fill="rgb(255,255,255)" stroke="rgb(0,0,0)" stroke-width="0.0010cm" stroke-linecap="round" stroke-linejoin="round" shaper:cutDepth="0" /><path d="M-12.212308,-29.7938399 a0.21,0.21 0 1,1 0.42,0 a0.21,0.21 0 1,1 -0.42,0z" transform="matrix(1,0,0,-1,29.002308,-17.7979437)" fill="rgb(255,255,255)" stroke="rgb(0,0,0)" stroke-width="0.0010cm" stroke-linecap="round" stroke-linejoin="round" shaper:cutDepth="0" /><path d="M-10.212308,-31.7938399 a0.21,0.21 0 1,1 0.42,0 a0.21,0.21 0 1,1 -0.42,0z" transform="matrix(1,0,0,-1,29.002308,-17.7979437)" fill="rgb(255,255,255)" stroke="rgb(0,0,0)" stroke-width="0.0010cm" stroke-linecap="round" stroke-linejoin="round" shaper:cutDepth="0" /><path d="M-10.212308,-27.7938399 a0.21,0.21 0 1,1 0.42,0 a0.21,0.21 0 1,1 -0.42,0z" transform="matrix(1,0,0,-1,29.002308,-17.7979437)" fill="rgb(255,255,255)" stroke="rgb(0,0,0)" stroke-width="0.0010cm" stroke-linecap="round" stroke-linejoin="round" shaper:cutDepth="0" /><path d="M-10.212308,-23.7938399 a0.21,0.21 0 1,1 0.42,0 a0.21,0.21 0 1,1 -0.42,0z" transform="matrix(1,0,0,-1,29.002308,-17.7979437)" fill="rgb(255,255,255)" stroke="rgb(0,0,0)" stroke-width="0.0010cm" stroke-linecap="round" stroke-linejoin="round" shaper:cutDepth="0" /><path d="M-10.212308,-19.7938399 a0.21,0.21 0 1,1 0.42,0 a0.21,0.21 0 1,1 -0.42,0z" transform="matrix(1,0,0,-1,29.002308,-17.7979437)" fill="rgb(255,255,255)" stroke="rgb(0,0,0)" stroke-width="0.0010cm" stroke-linecap="round" stroke-linejoin="round" shaper:cutDepth="0" /><path d="M-8.212308,-21.7938399 a0.21,0.21 0 1,1 0.42,0 a0.21,0.21 0 1,1 -0.42,0z" transform="matrix(1,0,0,-1,29.002308,-17.7979437)" fill="rgb(255,255,255)" stroke="rgb(0,0,0)" stroke-width="0.0010cm" stroke-linecap="round" stroke-linejoin="round" shaper:cutDepth="0" /><path d="M-8.212308,-25.7938399 a0.21,0.21 0 1,1 0.42,0 a0.21,0.21 0 1,1 -0.42,0z" transform="matrix(1,0,0,-1,29.002308,-17.7979437)" fill="rgb(255,255,255)" stroke="rgb(0,0,0)" stroke-width="0.0010cm" stroke-linecap="round" stroke-linejoin="round" shaper:cutDepth="0" /><path d="M-8.212308,-29.7938399 a0.21,0.21 0 1,1 0.42,0 a0.21,0.21 0 1,1 -0.42,0z" transform="matrix(1,0,0,-1,29.002308,-17.7979437)" fill="rgb(255,255,255)" stroke="rgb(0,0,0)" stroke-width="0.0010cm" stroke-linecap="round" stroke-linejoin="round" shaper:cutDepth="0" /><path d="M-6.212308,-31.7938399 a0.21,0.21 0 1,1 0.42,0 a0.21,0.21 0 1,1 -0.42,0z" transform="matrix(1,0,0,-1,29.002308,-17.7979437)" fill="rgb(255,255,255)" stroke="rgb(0,0,0)" stroke-width="0.0010cm" stroke-linecap="round" stroke-linejoin="round" shaper:cutDepth="0" /><path d="M-6.212308,-27.7938399 a0.21,0.21 0 1,1 0.42,0 a0.21,0.21 0 1,1 -0.42,0z" transform="matrix(1,0,0,-1,29.002308,-17.7979437)" fill="rgb(255,255,255)" stroke="rgb(0,0,0)" stroke-width="0.0010cm" stroke-linecap="round" stroke-linejoin="round" shaper:cutDepth="0" /><path d="M-6.212308,-23.7938399 a0.21,0.21 0 1,1 0.42,0 a0.21,0.21 0 1,1 -0.42,0z" transform="matrix(1,0,0,-1,29.002308,-17.7979437)" fill="rgb(255,255,255)" stroke="rgb(0,0,0)" stroke-width="0.0010cm" stroke-linecap="round" stroke-linejoin="round" shaper:cutDepth="0" /><path d="M-6.212308,-19.7938399 a0.21,0.21 0 1,1 0.42,0 a0.21,0.21 0 1,1 -0.42,0z" transform="matrix(1,0,0,-1,29.002308,-17.7979437)" fill="rgb(255,255,255)" stroke="rgb(0,0,0)" stroke-width="0.0010cm" stroke-linecap="round" stroke-linejoin="round" shaper:cutDepth="0" /><path d="M-4.212308,-31.7938399 a0.21,0.21 0 1,1 0.42,0 a0.21,0.21 0 1,1 -0.42,0z" transform="matrix(1,0,0,-1,29.002308,-17.7979437)" fill="rgb(255,255,255)" stroke="rgb(0,0,0)" stroke-width="0.0010cm" stroke-linecap="round" stroke-linejoin="round" shaper:cutDepth="0" /><path d="M-2.212308,-29.7938399 a0.21,0.21 0 1,1 0.42,0 a0.21,0.21 0 1,1 -0.42,0z" transform="matrix(1,0,0,-1,29.002308,-17.7979437)" fill="rgb(255,255,255)" stroke="rgb(0,0,0)" stroke-width="0.0010cm" stroke-linecap="round" stroke-linejoin="round" shaper:cutDepth="0" /><path d="M-2.212308,-25.7938399 a0.21,0.21 0 1,1 0.42,0 a0.21,0.21 0 1,1 -0.42,0z" transform="matrix(1,0,0,-1,29.002308,-17.7979437)" fill="rgb(255,255,255)" stroke="rgb(0,0,0)" stroke-width="0.0010cm" stroke-linecap="round" stroke-linejoin="round" shaper:cutDepth="0" /><path d="M-2.212308,-21.7938399 a0.21,0.21 0 1,1 0.42,0 a0.21,0.21 0 1,1 -0.42,0z" transform="matrix(1,0,0,-1,29.002308,-17.7979437)" fill="rgb(255,255,255)" stroke="rgb(0,0,0)" stroke-width="0.0010cm" stroke-linecap="round" stroke-linejoin="round" shaper:cutDepth="0" /><path d="M-0.212308,-19.7938399 a0.21,0.21 0 1,1 0.42,0 a0.21,0.21 0 1,1 -0.42,0z" transform="matrix(1,0,0,-1,29.002308,-17.7979437)" fill="rgb(255,255,255)" stroke="rgb(0,0,0)" stroke-width="0.0010cm" stroke-linecap="round" stroke-linejoin="round" shaper:cutDepth="0" /><path d="M-0.212308,-23.7938399 a0.21,0.21 0 1,1 0.42,0 a0.21,0.21 0 1,1 -0.42,0z" transform="matrix(1,0,0,-1,29.002308,-17.7979437)" fill="rgb(255,255,255)" stroke="rgb(0,0,0)" stroke-width="0.0010cm" stroke-linecap="round" stroke-linejoin="round" shaper:cutDepth="0" /><path d="M-0.212308,-27.7938399 a0.21,0.21 0 1,1 0.42,0 a0.21,0.21 0 1,1 -0.42,0z" transform="matrix(1,0,0,-1,29.002308,-17.7979437)" fill="rgb(255,255,255)" stroke="rgb(0,0,0)" stroke-width="0.0010cm" stroke-linecap="round" stroke-linejoin="round" shaper:cutDepth="0" /><path d="M-0.212308,-31.7938399 a0.21,0.21 0 1,1 0.42,0 a0.21,0.21 0 1,1 -0.42,0z" transform="matrix(1,0,0,-1,29.002308,-17.7979437)" fill="rgb(255,255,255)" stroke="rgb(0,0,0)" stroke-width="0.0010cm" stroke-linecap="round" stroke-linejoin="round" shaper:cutDepth="0" /><path d="M1.787692,-29.7938399 a0.21,0.21 0 1,1 0.42,0 a0.21,0.21 0 1,1 -0.42,0z" transform="matrix(1,0,0,-1,29.002308,-17.7979437)" fill="rgb(255,255,255)" stroke="rgb(0,0,0)" stroke-width="0.0010cm" stroke-linecap="round" stroke-linejoin="round" shaper:cutDepth="0" /><path d="M1.787692,-27.7938399 a0.21,0.21 0 1,1 0.42,0 a0.21,0.21 0 1,1 -0.42,0z" transform="matrix(1,0,0,-1,29.002308,-17.7979437)" fill="rgb(255,255,255)" stroke="rgb(0,0,0)" stroke-width="0.0010cm" stroke-linecap="round" stroke-linejoin="round" shaper:cutDepth="0" /><path d="M1.787692,-25.7938399 a0.21,0.21 0 1,1 0.42,0 a0.21,0.21 0 1,1 -0.42,0z" transform="matrix(1,0,0,-1,29.002308,-17.7979437)" fill="rgb(255,255,255)" stroke="rgb(0,0,0)" stroke-width="0.0010cm" stroke-linecap="round" stroke-linejoin="round" shaper:cutDepth="0" /><path d="M3.787692,-23.7938399 a0.21,0.21 0 1,1 0.42,0 a0.21,0.21 0 1,1 -0.42,0z" transform="matrix(1,0,0,-1,29.002308,-17.7979437)" fill="rgb(255,255,255)" stroke="rgb(0,0,0)" stroke-width="0.0010cm" stroke-linecap="round" stroke-linejoin="round" shaper:cutDepth="0" /><path d="M1.787692,-21.7938399 a0.21,0.21 0 1,1 0.42,0 a0.21,0.21 0 1,1 -0.42,0z" transform="matrix(1,0,0,-1,29.002308,-17.7979437)" fill="rgb(255,255,255)" stroke="rgb(0,0,0)" stroke-width="0.0010cm" stroke-linecap="round" stroke-linejoin="round" shaper:cutDepth="0" /><path d="M3.787692,-19.7938399 a0.21,0.21 0 1,1 0.42,0 a0.21,0.21 0 1,1 -0.42,0z" transform="matrix(1,0,0,-1,29.002308,-17.7979437)" fill="rgb(255,255,255)" stroke="rgb(0,0,0)" stroke-width="0.0010cm" stroke-linecap="round" stroke-linejoin="round" shaper:cutDepth="0" /><path d="M7.787692,-19.7938399 a0.21,0.21 0 1,1 0.42,0 a0.21,0.21 0 1,1 -0.42,0z" transform="matrix(1,0,0,-1,29.002308,-17.7979437)" fill="rgb(255,255,255)" stroke="rgb(0,0,0)" stroke-width="0.0010cm" stroke-linecap="round" stroke-linejoin="round" shaper:cutDepth="0" /><path d="M5.787692,-21.7938399 a0.21,0.21 0 1,1 0.42,0 a0.21,0.21 0 1,1 -0.42,0z" transform="matrix(1,0,0,-1,29.002308,-17.7979437)" fill="rgb(255,255,255)" stroke="rgb(0,0,0)" stroke-width="0.0010cm" stroke-linecap="round" stroke-linejoin="round" shaper:cutDepth="0" /><path d="M7.787692,-23.7938399 a0.21,0.21 0 1,1 0.42,0 a0.21,0.21 0 1,1 -0.42,0z" transform="matrix(1,0,0,-1,29.002308,-17.7979437)" fill="rgb(255,255,255)" stroke="rgb(0,0,0)" stroke-width="0.0010cm" stroke-linecap="round" stroke-linejoin="round" shaper:cutDepth="0" /><path d="M5.787692,-25.7938399 a0.21,0.21 0 1,1 0.42,0 a0.21,0.21 0 1,1 -0.42,0z" transform="matrix(1,0,0,-1,29.002308,-17.7979437)" fill="rgb(255,255,255)" stroke="rgb(0,0,0)" stroke-width="0.0010cm" stroke-linecap="round" stroke-linejoin="round" shaper:cutDepth="0" /><path d="M5.787692,-27.7938399 a0.21,0.21 0 1,1 0.42,0 a0.21,0.21 0 1,1 -0.42,0z" transform="matrix(1,0,0,-1,29.002308,-17.7979437)" fill="rgb(255,255,255)" stroke="rgb(0,0,0)" stroke-width="0.0010cm" stroke-linecap="round" stroke-linejoin="round" shaper:cutDepth="0" /><path d="M7.787692,-31.7938399 a0.21,0.21 0 1,1 0.42,0 a0.21,0.21 0 1,1 -0.42,0z" transform="matrix(1,0,0,-1,29.002308,-17.7979437)" fill="rgb(255,255,255)" stroke="rgb(0,0,0)" stroke-width="0.0010cm" stroke-linecap="round" stroke-linejoin="round" shaper:cutDepth="0" /><path d="M7.787692,-29.7938399 a0.21,0.21 0 1,1 0.42,0 a0.21,0.21 0 1,1 -0.42,0z" transform="matrix(1,0,0,-1,29.002308,-17.7979437)" fill="rgb(255,255,255)" stroke="rgb(0,0,0)" stroke-width="0.0010cm" stroke-linecap="round" stroke-linejoin="round" shaper:cutDepth="0" /><path d="M5.787692,-31.7938399 a0.21,0.21 0 1,1 0.42,0 a0.21,0.21 0 1,1 -0.42,0z" transform="matrix(1,0,0,-1,29.002308,-17.7979437)" fill="rgb(255,255,255)" stroke="rgb(0,0,0)" stroke-width="0.0010cm" stroke-linecap="round" stroke-linejoin="round" shaper:cutDepth="0" /><path d="M5.787692,-29.7938399 a0.21,0.21 0 1,1 0.42,0 a0.21,0.21 0 1,1 -0.42,0z" transform="matrix(1,0,0,-1,29.002308,-17.7979437)" fill="rgb(255,255,255)" stroke="rgb(0,0,0)" stroke-width="0.0010cm" stroke-linecap="round" stroke-linejoin="round" shaper:cutDepth="0" /><path d="M3.787692,-29.7938399 a0.21,0.21 0 1,1 0.42,0 a0.21,0.21 0 1,1 -0.42,0z" transform="matrix(1,0,0,-1,29.002308,-17.7979437)" fill="rgb(255,255,255)" stroke="rgb(0,0,0)" stroke-width="0.0010cm" stroke-linecap="round" stroke-linejoin="round" shaper:cutDepth="0" /><path d="M3.787692,-31.7938399 a0.21,0.21 0 1,1 0.42,0 a0.21,0.21 0 1,1 -0.42,0z" transform="matrix(1,0,0,-1,29.002308,-17.7979437)" fill="rgb(255,255,255)" stroke="rgb(0,0,0)" stroke-width="0.0010cm" stroke-linecap="round" stroke-linejoin="round" shaper:cutDepth="0" /><path d="M7.787692,-27.7938399 a0.21,0.21 0 1,1 0.42,0 a0.21,0.21 0 1,1 -0.42,0z" transform="matrix(1,0,0,-1,29.002308,-17.7979437)" fill="rgb(255,255,255)" stroke="rgb(0,0,0)" stroke-width="0.0010cm" stroke-linecap="round" stroke-linejoin="round" shaper:cutDepth="0" /><path d="M7.787692,-25.7938399 a0.21,0.21 0 1,1 0.42,0 a0.21,0.21 0 1,1 -0.42,0z" transform="matrix(1,0,0,-1,29.002308,-17.7979437)" fill="rgb(255,255,255)" stroke="rgb(0,0,0)" stroke-width="0.0010cm" stroke-linecap="round" stroke-linejoin="round" shaper:cutDepth="0" /><path d="M5.787692,-23.7938399 a0.21,0.21 0 1,1 0.42,0 a0.21,0.21 0 1,1 -0.42,0z" transform="matrix(1,0,0,-1,29.002308,-17.7979437)" fill="rgb(255,255,255)" stroke="rgb(0,0,0)" stroke-width="0.0010cm" stroke-linecap="round" stroke-linejoin="round" shaper:cutDepth="0" /><path d="M7.787692,-21.7938399 a0.21,0.21 0 1,1 0.42,0 a0.21,0.21 0 1,1 -0.42,0z" transform="matrix(1,0,0,-1,29.002308,-17.7979437)" fill="rgb(255,255,255)" stroke="rgb(0,0,0)" stroke-width="0.0010cm" stroke-linecap="round" stroke-linejoin="round" shaper:cutDepth="0" /><path d="M5.787692,-19.7938399 a0.21,0.21 0 1,1 0.42,0 a0.21,0.21 0 1,1 -0.42,0z" transform="matrix(1,0,0,-1,29.002308,-17.7979437)" fill="rgb(255,255,255)" stroke="rgb(0,0,0)" stroke-width="0.0010cm" stroke-linecap="round" stroke-linejoin="round" shaper:cutDepth="0" /><path d="M1.787692,-19.7938399 a0.21,0.21 0 1,1 0.42,0 a0.21,0.21 0 1,1 -0.42,0z" transform="matrix(1,0,0,-1,29.002308,-17.7979437)" fill="rgb(255,255,255)" stroke="rgb(0,0,0)" stroke-width="0.0010cm" stroke-linecap="round" stroke-linejoin="round" shaper:cutDepth="0" /><path d="M3.787692,-21.7938399 a0.21,0.21 0 1,1 0.42,0 a0.21,0.21 0 1,1 -0.42,0z" transform="matrix(1,0,0,-1,29.002308,-17.7979437)" fill="rgb(255,255,255)" stroke="rgb(0,0,0)" stroke-width="0.0010cm" stroke-linecap="round" stroke-linejoin="round" shaper:cutDepth="0" /><path d="M1.787692,-23.7938399 a0.21,0.21 0 1,1 0.42,0 a0.21,0.21 0 1,1 -0.42,0z" transform="matrix(1,0,0,-1,29.002308,-17.7979437)" fill="rgb(255,255,255)" stroke="rgb(0,0,0)" stroke-width="0.0010cm" stroke-linecap="round" stroke-linejoin="round" shaper:cutDepth="0" /><path d="M3.787692,-25.7938399 a0.21,0.21 0 1,1 0.42,0 a0.21,0.21 0 1,1 -0.42,0z" transform="matrix(1,0,0,-1,29.002308,-17.7979437)" fill="rgb(255,255,255)" stroke="rgb(0,0,0)" stroke-width="0.0010cm" stroke-linecap="round" stroke-linejoin="round" shaper:cutDepth="0" /><path d="M3.787692,-27.7938399 a0.21,0.21 0 1,1 0.42,0 a0.21,0.21 0 1,1 -0.42,0z" transform="matrix(1,0,0,-1,29.002308,-17.7979437)" fill="rgb(255,255,255)" stroke="rgb(0,0,0)" stroke-width="0.0010cm" stroke-linecap="round" stroke-linejoin="round" shaper:cutDepth="0" /><path d="M1.787692,-31.7938399 a0.21,0.21 0 1,1 0.42,0 a0.21,0.21 0 1,1 -0.42,0z" transform="matrix(1,0,0,-1,29.002308,-17.7979437)" fill="rgb(255,255,255)" stroke="rgb(0,0,0)" stroke-width="0.0010cm" stroke-linecap="round" stroke-linejoin="round" shaper:cutDepth="0" /><path d="M-0.212308,-29.7938399 a0.21,0.21 0 1,1 0.42,0 a0.21,0.21 0 1,1 -0.42,0z" transform="matrix(1,0,0,-1,29.002308,-17.7979437)" fill="rgb(255,255,255)" stroke="rgb(0,0,0)" stroke-width="0.0010cm" stroke-linecap="round" stroke-linejoin="round" shaper:cutDepth="0" /><path d="M-0.212308,-25.7938399 a0.21,0.21 0 1,1 0.42,0 a0.21,0.21 0 1,1 -0.42,0z" transform="matrix(1,0,0,-1,29.002308,-17.7979437)" fill="rgb(255,255,255)" stroke="rgb(0,0,0)" stroke-width="0.0010cm" stroke-linecap="round" stroke-linejoin="round" shaper:cutDepth="0" /><path d="M-0.212308,-21.7938399 a0.21,0.21 0 1,1 0.42,0 a0.21,0.21 0 1,1 -0.42,0z" transform="matrix(1,0,0,-1,29.002308,-17.7979437)" fill="rgb(255,255,255)" stroke="rgb(0,0,0)" stroke-width="0.0010cm" stroke-linecap="round" stroke-linejoin="round" shaper:cutDepth="0" /><path d="M-2.212308,-19.7938399 a0.21,0.21 0 1,1 0.42,0 a0.21,0.21 0 1,1 -0.42,0z" transform="matrix(1,0,0,-1,29.002308,-17.7979437)" fill="rgb(255,255,255)" stroke="rgb(0,0,0)" stroke-width="0.0010cm" stroke-linecap="round" stroke-linejoin="round" shaper:cutDepth="0" /><path d="M-2.212308,-23.7938399 a0.21,0.21 0 1,1 0.42,0 a0.21,0.21 0 1,1 -0.42,0z" transform="matrix(1,0,0,-1,29.002308,-17.7979437)" fill="rgb(255,255,255)" stroke="rgb(0,0,0)" stroke-width="0.0010cm" stroke-linecap="round" stroke-linejoin="round" shaper:cutDepth="0" /><path d="M-2.212308,-27.7938399 a0.21,0.21 0 1,1 0.42,0 a0.21,0.21 0 1,1 -0.42,0z" transform="matrix(1,0,0,-1,29.002308,-17.7979437)" fill="rgb(255,255,255)" stroke="rgb(0,0,0)" stroke-width="0.0010cm" stroke-linecap="round" stroke-linejoin="round" shaper:cutDepth="0" /><path d="M-2.212308,-31.7938399 a0.21,0.21 0 1,1 0.42,0 a0.21,0.21 0 1,1 -0.42,0z" transform="matrix(1,0,0,-1,29.002308,-17.7979437)" fill="rgb(255,255,255)" stroke="rgb(0,0,0)" stroke-width="0.0010cm" stroke-linecap="round" stroke-linejoin="round" shaper:cutDepth="0" /><path d="M-4.212308,-19.7938399 a0.21,0.21 0 1,1 0.42,0 a0.21,0.21 0 1,1 -0.42,0z" transform="matrix(1,0,0,-1,29.002308,-17.7979437)" fill="rgb(255,255,255)" stroke="rgb(0,0,0)" stroke-width="0.0010cm" stroke-linecap="round" stroke-linejoin="round" shaper:cutDepth="0" /><path d="M-6.212308,-21.7938399 a0.21,0.21 0 1,1 0.42,0 a0.21,0.21 0 1,1 -0.42,0z" transform="matrix(1,0,0,-1,29.002308,-17.7979437)" fill="rgb(255,255,255)" stroke="rgb(0,0,0)" stroke-width="0.0010cm" stroke-linecap="round" stroke-linejoin="round" shaper:cutDepth="0" /><path d="M-6.212308,-25.7938399 a0.21,0.21 0 1,1 0.42,0 a0.21,0.21 0 1,1 -0.42,0z" transform="matrix(1,0,0,-1,29.002308,-17.7979437)" fill="rgb(255,255,255)" stroke="rgb(0,0,0)" stroke-width="0.0010cm" stroke-linecap="round" stroke-linejoin="round" shaper:cutDepth="0" /><path d="M-6.212308,-29.7938399 a0.21,0.21 0 1,1 0.42,0 a0.21,0.21 0 1,1 -0.42,0z" transform="matrix(1,0,0,-1,29.002308,-17.7979437)" fill="rgb(255,255,255)" stroke="rgb(0,0,0)" stroke-width="0.0010cm" stroke-linecap="round" stroke-linejoin="round" shaper:cutDepth="0" /><path d="M-8.212308,-31.7938399 a0.21,0.21 0 1,1 0.42,0 a0.21,0.21 0 1,1 -0.42,0z" transform="matrix(1,0,0,-1,29.002308,-17.7979437)" fill="rgb(255,255,255)" stroke="rgb(0,0,0)" stroke-width="0.0010cm" stroke-linecap="round" stroke-linejoin="round" shaper:cutDepth="0" /><path d="M-8.212308,-27.7938399 a0.21,0.21 0 1,1 0.42,0 a0.21,0.21 0 1,1 -0.42,0z" transform="matrix(1,0,0,-1,29.002308,-17.7979437)" fill="rgb(255,255,255)" stroke="rgb(0,0,0)" stroke-width="0.0010cm" stroke-linecap="round" stroke-linejoin="round" shaper:cutDepth="0" /><path d="M-8.212308,-23.7938399 a0.21,0.21 0 1,1 0.42,0 a0.21,0.21 0 1,1 -0.42,0z" transform="matrix(1,0,0,-1,29.002308,-17.7979437)" fill="rgb(255,255,255)" stroke="rgb(0,0,0)" stroke-width="0.0010cm" stroke-linecap="round" stroke-linejoin="round" shaper:cutDepth="0" /><path d="M-8.212308,-19.7938399 a0.21,0.21 0 1,1 0.42,0 a0.21,0.21 0 1,1 -0.42,0z" transform="matrix(1,0,0,-1,29.002308,-17.7979437)" fill="rgb(255,255,255)" stroke="rgb(0,0,0)" stroke-width="0.0010cm" stroke-linecap="round" stroke-linejoin="round" shaper:cutDepth="0" /><path d="M-10.212308,-21.7938399 a0.21,0.21 0 1,1 0.42,0 a0.21,0.21 0 1,1 -0.42,0z" transform="matrix(1,0,0,-1,29.002308,-17.7979437)" fill="rgb(255,255,255)" stroke="rgb(0,0,0)" stroke-width="0.0010cm" stroke-linecap="round" stroke-linejoin="round" shaper:cutDepth="0" /><path d="M-10.212308,-25.7938399 a0.21,0.21 0 1,1 0.42,0 a0.21,0.21 0 1,1 -0.42,0z" transform="matrix(1,0,0,-1,29.002308,-17.7979437)" fill="rgb(255,255,255)" stroke="rgb(0,0,0)" stroke-width="0.0010cm" stroke-linecap="round" stroke-linejoin="round" shaper:cutDepth="0" /><path d="M-10.212308,-29.7938399 a0.21,0.21 0 1,1 0.42,0 a0.21,0.21 0 1,1 -0.42,0z" transform="matrix(1,0,0,-1,29.002308,-17.7979437)" fill="rgb(255,255,255)" stroke="rgb(0,0,0)" stroke-width="0.0010cm" stroke-linecap="round" stroke-linejoin="round" shaper:cutDepth="0" /><path d="M-12.212308,-31.7938399 a0.21,0.21 0 1,1 0.42,0 a0.21,0.21 0 1,1 -0.42,0z" transform="matrix(1,0,0,-1,29.002308,-17.7979437)" fill="rgb(255,255,255)" stroke="rgb(0,0,0)" stroke-width="0.0010cm" stroke-linecap="round" stroke-linejoin="round" shaper:cutDepth="0" /><path d="M-12.212308,-27.7938399 a0.21,0.21 0 1,1 0.42,0 a0.21,0.21 0 1,1 -0.42,0z" transform="matrix(1,0,0,-1,29.002308,-17.7979437)" fill="rgb(255,255,255)" stroke="rgb(0,0,0)" stroke-width="0.0010cm" stroke-linecap="round" stroke-linejoin="round" shaper:cutDepth="0" /><path d="M-12.212308,-23.7938399 a0.21,0.21 0 1,1 0.42,0 a0.21,0.21 0 1,1 -0.42,0z" transform="matrix(1,0,0,-1,29.002308,-17.7979437)" fill="rgb(255,255,255)" stroke="rgb(0,0,0)" stroke-width="0.0010cm" stroke-linecap="round" stroke-linejoin="round" shaper:cutDepth="0" /><path d="M-12.212308,-19.7938399 a0.21,0.21 0 1,1 0.42,0 a0.21,0.21 0 1,1 -0.42,0z" transform="matrix(1,0,0,-1,29.002308,-17.7979437)" fill="rgb(255,255,255)" stroke="rgb(0,0,0)" stroke-width="0.0010cm" stroke-linecap="round" stroke-linejoin="round" shaper:cutDepth="0" /><path d="M-16.212308,-31.7938399 a0.21,0.21 0 1,1 0.42,0 a0.21,0.21 0 1,1 -0.42,0z" transform="matrix(1,0,0,-1,29.002308,-17.7979437)" fill="rgb(255,255,255)" stroke="rgb(0,0,0)" stroke-width="0.0010cm" stroke-linecap="round" stroke-linejoin="round" shaper:cutDepth="0" /><path d="M-14.212308,-29.7938399 a0.21,0.21 0 1,1 0.42,0 a0.21,0.21 0 1,1 -0.42,0z" transform="matrix(1,0,0,-1,29.002308,-17.7979437)" fill="rgb(255,255,255)" stroke="rgb(0,0,0)" stroke-width="0.0010cm" stroke-linecap="round" stroke-linejoin="round" shaper:cutDepth="0" /><path d="M-14.212308,-27.7938399 a0.21,0.21 0 1,1 0.42,0 a0.21,0.21 0 1,1 -0.42,0z" transform="matrix(1,0,0,-1,29.002308,-17.7979437)" fill="rgb(255,255,255)" stroke="rgb(0,0,0)" stroke-width="0.0010cm" stroke-linecap="round" stroke-linejoin="round" shaper:cutDepth="0" /><path d="M-14.212308,-25.7938399 a0.21,0.21 0 1,1 0.42,0 a0.21,0.21 0 1,1 -0.42,0z" transform="matrix(1,0,0,-1,29.002308,-17.7979437)" fill="rgb(255,255,255)" stroke="rgb(0,0,0)" stroke-width="0.0010cm" stroke-linecap="round" stroke-linejoin="round" shaper:cutDepth="0" /><path d="M-14.212308,-23.7938399 a0.21,0.21 0 1,1 0.42,0 a0.21,0.21 0 1,1 -0.42,0z" transform="matrix(1,0,0,-1,29.002308,-17.7979437)" fill="rgb(255,255,255)" stroke="rgb(0,0,0)" stroke-width="0.0010cm" stroke-linecap="round" stroke-linejoin="round" shaper:cutDepth="0" /><path d="M-14.212308,-21.7938399 a0.21,0.21 0 1,1 0.42,0 a0.21,0.21 0 1,1 -0.42,0z" transform="matrix(1,0,0,-1,29.002308,-17.7979437)" fill="rgb(255,255,255)" stroke="rgb(0,0,0)" stroke-width="0.0010cm" stroke-linecap="round" stroke-linejoin="round" shaper:cutDepth="0" /><path d="M-14.212308,-19.7938399 a0.21,0.21 0 1,1 0.42,0 a0.21,0.21 0 1,1 -0.42,0z" transform="matrix(1,0,0,-1,29.002308,-17.7979437)" fill="rgb(255,255,255)" stroke="rgb(0,0,0)" stroke-width="0.0010cm" stroke-linecap="round" stroke-linejoin="round" shaper:cutDepth="0" /></svg>