<?xml version="1.0" encoding="utf-8"?>
<!-- Generator: Fusion 360, Shaper Origin Export Add-In, Version 1.6.3  -->
<svg xmlns="http://www.w3.org/2000/svg" xmlns:xlink="http://www.w3.org/1999/xlink" xmlns:shaper="http://www.shapertools.com/namespaces/shaper" shaper:fusionaddin="version:1.6.3" width="50cm" height="16cm" version="1.1" x="0cm" y="0cm" viewBox="0 0 50 16" enable-background="new 0 0 50 16" xml:space="preserve"><path d="M-29.002308,21.2025326 L-29.002308,7.2025326 A1,1 180 0,1 -28.002308,6.2025326 L19.997692,6.2025326 A1,1 270 0,1 20.997692,7.2025326 L20.997692,21.2025326 A1,1 0 0,1 19.997692,22.2025326 L-28.002308,22.2025326 A1,1 90 0,1 -29.002308,21.2025326z" transform="matrix(1,0,0,-1,29.002308,22.2025326)" fill="rgb(0,0,0)" shaper:cutDepth="0" stroke-linecap="round" stroke-linejoin="round" /><path d="M-27.727308,16.9525326 A0.325,0.325 180 0,0 -27.077308,16.9525326 L-27.077308,11.4525326 A0.325,0.325 0 0,0 -27.727308,11.4525326 L-27.727308,16.9525326z" transform="matrix(1,0,0,-1,29.002308,22.2025326)" fill="rgb(255,255,255)" stroke="rgb(0,0,0)" stroke-width="0.0010cm" stroke-linecap="round" stroke-linejoin="round" shaper:cutDepth="0" /><path d="M19.072692,16.9525326 A0.325,0.325 180 0,0 19.722692,16.9525326 L19.722692,11.4525326 A0.325,0.325 0 0,0 19.072692,11.4525326 L19.072692,16.9525326z" transform="matrix(1,0,0,-1,29.002308,22.2025326)" fill="rgb(255,255,255)" stroke="rgb(0,0,0)" stroke-width="0.0010cm" stroke-linecap="round" stroke-linejoin="round" shaper:cutDepth="0" /><path d="M-3.292308,15.1984288 a0.29,0.29 0 1,1 0.58,0 a0.29,0.29 0 1,1 -0.58,0z" transform="matrix(1,0,0,-1,29.002308,22.2025326)" fill="rgb(255,255,255)" stroke="rgb(0,0,0)" stroke-width="0.0010cm" stroke-linecap="round" stroke-linejoin="round" shaper:cutDepth="0" /><path d="M-5.292308,15.1984288 a0.29,0.29 0 1,1 0.58,0 a0.29,0.29 0 1,1 -0.58,0z" transform="matrix(1,0,0,-1,29.002308,22.2025326)" fill="rgb(255,255,255)" stroke="rgb(0,0,0)" stroke-width="0.0010cm" stroke-linecap="round" stroke-linejoin="round" shaper:cutDepth="0" /><path d="M-3.292308,11.1984288 a0.29,0.29 0 1,1 0.58,0 a0.29,0.29 0 1,1 -0.58,0z" transform="matrix(1,0,0,-1,29.002308,22.2025326)" fill="rgb(255,255,255)" stroke="rgb(0,0,0)" stroke-width="0.0010cm" stroke-linecap="round" stroke-linejoin="round" shaper:cutDepth="0" /><path d="M-5.292308,11.1984288 a0.29,0.29 0 1,1 0.58,0 a0.29,0.29 0 1,1 -0.58,0z" transform="matrix(1,0,0,-1,29.002308,22.2025326)" fill="rgb(255,255,255)" stroke="rgb(0,0,0)" stroke-width="0.0010cm" stroke-linecap="round" stroke-linejoin="round" shaper:cutDepth="0" /><path d="M-3.292308,17.1984288 a0.29,0.29 0 1,1 0.58,0 a0.29,0.29 0 1,1 -0.58,0z" transform="matrix(1,0,0,-1,29.002308,22.2025326)" fill="rgb(255,255,255)" stroke="rgb(0,0,0)" stroke-width="0.0010cm" stroke-linecap="round" stroke-linejoin="round" shaper:cutDepth="0" /><path d="M-5.292308,17.1984288 a0.29,0.29 0 1,1 0.58,0 a0.29,0.29 0 1,1 -0.58,0z" transform="matrix(1,0,0,-1,29.002308,22.2025326)" fill="rgb(255,255,255)" stroke="rgb(0,0,0)" stroke-width="0.0010cm" stroke-linecap="round" stroke-linejoin="round" shaper:cutDepth="0" /><path d="M-3.292308,13.1984288 a0.29,0.29 0 1,1 0.58,0 a0.29,0.29 0 1,1 -0.58,0z" transform="matrix(1,0,0,-1,29.002308,22.2025326)" fill="rgb(255,255,255)" stroke="rgb(0,0,0)" stroke-width="0.0010cm" stroke-linecap="round" stroke-linejoin="round" shaper:cutDepth="0" /><path d="M-5.292308,13.1984288 a0.29,0.29 0 1,1 0.58,0 a0.29,0.29 0 1,1 -0.58,0z" transform="matrix(1,0,0,-1,29.002308,22.2025326)" fill="rgb(255,255,255)" stroke="rgb(0,0,0)" stroke-width="0.0010cm" stroke-linecap="round" stroke-linejoin="round" shaper:cutDepth="0" /><path d="M-4.212308,18.2066364 a0.21,0.21 0 1,1 0.42,0 a0.21,0.21 0 1,1 -0.42,0z" transform="matrix(1,0,0,-1,29.002308,22.2025326)" fill="rgb(255,255,255)" stroke="rgb(0,0,0)" stroke-width="0.0010cm" stroke-linecap="round" stroke-linejoin="round" shaper:cutDepth="0" /><path d="M-4.212308,14.2066364 a0.21,0.21 0 1,1 0.42,0 a0.21,0.21 0 1,1 -0.42,0z" transform="matrix(1,0,0,-1,29.002308,22.2025326)" fill="rgb(255,255,255)" stroke="rgb(0,0,0)" stroke-width="0.0010cm" stroke-linecap="round" stroke-linejoin="round" shaper:cutDepth="0" /><path d="M-4.212308,16.2066364 a0.21,0.21 0 1,1 0.42,0 a0.21,0.21 0 1,1 -0.42,0z" transform="matrix(1,0,0,-1,29.002308,22.2025326)" fill="rgb(255,255,255)" stroke="rgb(0,0,0)" stroke-width="0.0010cm" stroke-linecap="round" stroke-linejoin="round" shaper:cutDepth="0" /><path d="M-4.212308,10.2066364 a0.21,0.21 0 1,1 0.42,0 a0.21,0.21 0 1,1 -0.42,0z" transform="matrix(1,0,0,-1,29.002308,22.2025326)" fill="rgb(255,255,255)" stroke="rgb(0,0,0)" stroke-width="0.0010cm" stroke-linecap="round" stroke-linejoin="round" shaper:cutDepth="0" /><path d="M-4.212308,12.2066364 a0.21,0.21 0 1,1 0.42,0 a0.21,0.21 0 1,1 -0.42,0z" transform="matrix(1,0,0,-1,29.002308,22.2025326)" fill="rgb(255,255,255)" stroke="rgb(0,0,0)" stroke-width="0.0010cm" stroke-linecap="round" stroke-linejoin="round" shaper:cutDepth="0" /><path d="M-3.292308,7.1984288 a0.29,0.29 0 1,1 0.58,0 a0.29,0.29 0 1,1 -0.58,0z" transform="matrix(1,0,0,-1,29.002308,22.2025326)" fill="rgb(255,255,255)" stroke="rgb(0,0,0)" stroke-width="0.0010cm" stroke-linecap="round" stroke-linejoin="round" shaper:cutDepth="0" /><path d="M-5.292308,7.1984288 a0.29,0.29 0 1,1 0.58,0 a0.29,0.29 0 1,1 -0.58,0z" transform="matrix(1,0,0,-1,29.002308,22.2025326)" fill="rgb(255,255,255)" stroke="rgb(0,0,0)" stroke-width="0.0010cm" stroke-linecap="round" stroke-linejoin="round" shaper:cutDepth="0" /><path d="M-3.292308,21.1984288 a0.29,0.29 0 1,1 0.58,0 a0.29,0.29 0 1,1 -0.58,0z" transform="matrix(1,0,0,-1,29.002308,22.2025326)" fill="rgb(255,255,255)" stroke="rgb(0,0,0)" stroke-width="0.0010cm" stroke-linecap="round" stroke-linejoin="round" shaper:cutDepth="0" /><path d="M-5.292308,21.1984288 a0.29,0.29 0 1,1 0.58,0 a0.29,0.29 0 1,1 -0.58,0z" transform="matrix(1,0,0,-1,29.002308,22.2025326)" fill="rgb(255,255,255)" stroke="rgb(0,0,0)" stroke-width="0.0010cm" stroke-linecap="round" stroke-linejoin="round" shaper:cutDepth="0" /><path d="M-25.292308,7.1984288 a0.29,0.29 0 1,1 0.58,0 a0.29,0.29 0 1,1 -0.58,0z" transform="matrix(1,0,0,-1,29.002308,22.2025326)" fill="rgb(255,255,255)" stroke="rgb(0,0,0)" stroke-width="0.0010cm" stroke-linecap="round" stroke-linejoin="round" shaper:cutDepth="0" /><path d="M-23.292308,7.1984288 a0.29,0.29 0 1,1 0.58,0 a0.29,0.29 0 1,1 -0.58,0z" transform="matrix(1,0,0,-1,29.002308,22.2025326)" fill="rgb(255,255,255)" stroke="rgb(0,0,0)" stroke-width="0.0010cm" stroke-linecap="round" stroke-linejoin="round" shaper:cutDepth="0" /><path d="M-21.292308,7.1984288 a0.29,0.29 0 1,1 0.58,0 a0.29,0.29 0 1,1 -0.58,0z" transform="matrix(1,0,0,-1,29.002308,22.2025326)" fill="rgb(255,255,255)" stroke="rgb(0,0,0)" stroke-width="0.0010cm" stroke-linecap="round" stroke-linejoin="round" shaper:cutDepth="0" /><path d="M-19.292308,7.1984288 a0.29,0.29 0 1,1 0.58,0 a0.29,0.29 0 1,1 -0.58,0z" transform="matrix(1,0,0,-1,29.002308,22.2025326)" fill="rgb(255,255,255)" stroke="rgb(0,0,0)" stroke-width="0.0010cm" stroke-linecap="round" stroke-linejoin="round" shaper:cutDepth="0" /><path d="M-17.292308,7.1984288 a0.29,0.29 0 1,1 0.58,0 a0.29,0.29 0 1,1 -0.58,0z" transform="matrix(1,0,0,-1,29.002308,22.2025326)" fill="rgb(255,255,255)" stroke="rgb(0,0,0)" stroke-width="0.0010cm" stroke-linecap="round" stroke-linejoin="round" shaper:cutDepth="0" /><path d="M-15.292308,7.1984288 a0.29,0.29 0 1,1 0.58,0 a0.29,0.29 0 1,1 -0.58,0z" transform="matrix(1,0,0,-1,29.002308,22.2025326)" fill="rgb(255,255,255)" stroke="rgb(0,0,0)" stroke-width="0.0010cm" stroke-linecap="round" stroke-linejoin="round" shaper:cutDepth="0" /><path d="M-13.292308,7.1984288 a0.29,0.29 0 1,1 0.58,0 a0.29,0.29 0 1,1 -0.58,0z" transform="matrix(1,0,0,-1,29.002308,22.2025326)" fill="rgb(255,255,255)" stroke="rgb(0,0,0)" stroke-width="0.0010cm" stroke-linecap="round" stroke-linejoin="round" shaper:cutDepth="0" /><path d="M-11.292308,7.1984288 a0.29,0.29 0 1,1 0.58,0 a0.29,0.29 0 1,1 -0.58,0z" transform="matrix(1,0,0,-1,29.002308,22.2025326)" fill="rgb(255,255,255)" stroke="rgb(0,0,0)" stroke-width="0.0010cm" stroke-linecap="round" stroke-linejoin="round" shaper:cutDepth="0" /><path d="M-9.292308,7.1984288 a0.29,0.29 0 1,1 0.58,0 a0.29,0.29 0 1,1 -0.58,0z" transform="matrix(1,0,0,-1,29.002308,22.2025326)" fill="rgb(255,255,255)" stroke="rgb(0,0,0)" stroke-width="0.0010cm" stroke-linecap="round" stroke-linejoin="round" shaper:cutDepth="0" /><path d="M-7.292308,7.1984288 a0.29,0.29 0 1,1 0.58,0 a0.29,0.29 0 1,1 -0.58,0z" transform="matrix(1,0,0,-1,29.002308,22.2025326)" fill="rgb(255,255,255)" stroke="rgb(0,0,0)" stroke-width="0.0010cm" stroke-linecap="round" stroke-linejoin="round" shaper:cutDepth="0" /><path d="M-1.292308,7.1984288 a0.29,0.29 0 1,1 0.58,0 a0.29,0.29 0 1,1 -0.58,0z" transform="matrix(1,0,0,-1,29.002308,22.2025326)" fill="rgb(255,255,255)" stroke="rgb(0,0,0)" stroke-width="0.0010cm" stroke-linecap="round" stroke-linejoin="round" shaper:cutDepth="0" /><path d="M0.707692,7.1984288 a0.29,0.29 0 1,1 0.58,0 a0.29,0.29 0 1,1 -0.58,0z" transform="matrix(1,0,0,-1,29.002308,22.2025326)" fill="rgb(255,255,255)" stroke="rgb(0,0,0)" stroke-width="0.0010cm" stroke-linecap="round" stroke-linejoin="round" shaper:cutDepth="0" /><path d="M2.707692,7.1984288 a0.29,0.29 0 1,1 0.58,0 a0.29,0.29 0 1,1 -0.58,0z" transform="matrix(1,0,0,-1,29.002308,22.2025326)" fill="rgb(255,255,255)" stroke="rgb(0,0,0)" stroke-width="0.0010cm" stroke-linecap="round" stroke-linejoin="round" shaper:cutDepth="0" /><path d="M4.707692,7.1984288 a0.29,0.29 0 1,1 0.58,0 a0.29,0.29 0 1,1 -0.58,0z" transform="matrix(1,0,0,-1,29.002308,22.2025326)" fill="rgb(255,255,255)" stroke="rgb(0,0,0)" stroke-width="0.0010cm" stroke-linecap="round" stroke-linejoin="round" shaper:cutDepth="0" /><path d="M6.707692,7.1984288 a0.29,0.29 0 1,1 0.58,0 a0.29,0.29 0 1,1 -0.58,0z" transform="matrix(1,0,0,-1,29.002308,22.2025326)" fill="rgb(255,255,255)" stroke="rgb(0,0,0)" stroke-width="0.0010cm" stroke-linecap="round" stroke-linejoin="round" shaper:cutDepth="0" /><path d="M8.707692,7.1984288 a0.29,0.29 0 1,1 0.58,0 a0.29,0.29 0 1,1 -0.58,0z" transform="matrix(1,0,0,-1,29.002308,22.2025326)" fill="rgb(255,255,255)" stroke="rgb(0,0,0)" stroke-width="0.0010cm" stroke-linecap="round" stroke-linejoin="round" shaper:cutDepth="0" /><path d="M10.707692,7.1984288 a0.29,0.29 0 1,1 0.58,0 a0.29,0.29 0 1,1 -0.58,0z" transform="matrix(1,0,0,-1,29.002308,22.2025326)" fill="rgb(255,255,255)" stroke="rgb(0,0,0)" stroke-width="0.0010cm" stroke-linecap="round" stroke-linejoin="round" shaper:cutDepth="0" /><path d="M12.707692,7.1984288 a0.29,0.29 0 1,1 0.58,0 a0.29,0.29 0 1,1 -0.58,0z" transform="matrix(1,0,0,-1,29.002308,22.2025326)" fill="rgb(255,255,255)" stroke="rgb(0,0,0)" stroke-width="0.0010cm" stroke-linecap="round" stroke-linejoin="round" shaper:cutDepth="0" /><path d="M14.707692,7.1984288 a0.29,0.29 0 1,1 0.58,0 a0.29,0.29 0 1,1 -0.58,0z" transform="matrix(1,0,0,-1,29.002308,22.2025326)" fill="rgb(255,255,255)" stroke="rgb(0,0,0)" stroke-width="0.0010cm" stroke-linecap="round" stroke-linejoin="round" shaper:cutDepth="0" /><path d="M16.707692,7.1984288 a0.29,0.29 0 1,1 0.58,0 a0.29,0.29 0 1,1 -0.58,0z" transform="matrix(1,0,0,-1,29.002308,22.2025326)" fill="rgb(255,255,255)" stroke="rgb(0,0,0)" stroke-width="0.0010cm" stroke-linecap="round" stroke-linejoin="round" shaper:cutDepth="0" /><path d="M-25.292308,21.1984288 a0.29,0.29 0 1,1 0.58,0 a0.29,0.29 0 1,1 -0.58,0z" transform="matrix(1,0,0,-1,29.002308,22.2025326)" fill="rgb(255,255,255)" stroke="rgb(0,0,0)" stroke-width="0.0010cm" stroke-linecap="round" stroke-linejoin="round" shaper:cutDepth="0" /><path d="M-23.292308,21.1984288 a0.29,0.29 0 1,1 0.58,0 a0.29,0.29 0 1,1 -0.58,0z" transform="matrix(1,0,0,-1,29.002308,22.2025326)" fill="rgb(255,255,255)" stroke="rgb(0,0,0)" stroke-width="0.0010cm" stroke-linecap="round" stroke-linejoin="round" shaper:cutDepth="0" /><path d="M-21.292308,21.1984288 a0.29,0.29 0 1,1 0.58,0 a0.29,0.29 0 1,1 -0.58,0z" transform="matrix(1,0,0,-1,29.002308,22.2025326)" fill="rgb(255,255,255)" stroke="rgb(0,0,0)" stroke-width="0.0010cm" stroke-linecap="round" stroke-linejoin="round" shaper:cutDepth="0" /><path d="M-19.292308,21.1984288 a0.29,0.29 0 1,1 0.58,0 a0.29,0.29 0 1,1 -0.58,0z" transform="matrix(1,0,0,-1,29.002308,22.2025326)" fill="rgb(255,255,255)" stroke="rgb(0,0,0)" stroke-width="0.0010cm" stroke-linecap="round" stroke-linejoin="round" shaper:cutDepth="0" /><path d="M-17.292308,21.1984288 a0.29,0.29 0 1,1 0.58,0 a0.29,0.29 0 1,1 -0.58,0z" transform="matrix(1,0,0,-1,29.002308,22.2025326)" fill="rgb(255,255,255)" stroke="rgb(0,0,0)" stroke-width="0.0010cm" stroke-linecap="round" stroke-linejoin="round" shaper:cutDepth="0" /><path d="M-15.292308,21.1984288 a0.29,0.29 0 1,1 0.58,0 a0.29,0.29 0 1,1 -0.58,0z" transform="matrix(1,0,0,-1,29.002308,22.2025326)" fill="rgb(255,255,255)" stroke="rgb(0,0,0)" stroke-width="0.0010cm" stroke-linecap="round" stroke-linejoin="round" shaper:cutDepth="0" /><path d="M-13.292308,21.1984288 a0.29,0.29 0 1,1 0.58,0 a0.29,0.29 0 1,1 -0.58,0z" transform="matrix(1,0,0,-1,29.002308,22.2025326)" fill="rgb(255,255,255)" stroke="rgb(0,0,0)" stroke-width="0.0010cm" stroke-linecap="round" stroke-linejoin="round" shaper:cutDepth="0" /><path d="M-11.292308,21.1984288 a0.29,0.29 0 1,1 0.58,0 a0.29,0.29 0 1,1 -0.58,0z" transform="matrix(1,0,0,-1,29.002308,22.2025326)" fill="rgb(255,255,255)" stroke="rgb(0,0,0)" stroke-width="0.0010cm" stroke-linecap="round" stroke-linejoin="round" shaper:cutDepth="0" /><path d="M-9.292308,21.1984288 a0.29,0.29 0 1,1 0.58,0 a0.29,0.29 0 1,1 -0.58,0z" transform="matrix(1,0,0,-1,29.002308,22.2025326)" fill="rgb(255,255,255)" stroke="rgb(0,0,0)" stroke-width="0.0010cm" stroke-linecap="round" stroke-linejoin="round" shaper:cutDepth="0" /><path d="M-7.292308,21.1984288 a0.29,0.29 0 1,1 0.58,0 a0.29,0.29 0 1,1 -0.58,0z" transform="matrix(1,0,0,-1,29.002308,22.2025326)" fill="rgb(255,255,255)" stroke="rgb(0,0,0)" stroke-width="0.0010cm" stroke-linecap="round" stroke-linejoin="round" shaper:cutDepth="0" /><path d="M-1.292308,21.1984288 a0.29,0.29 0 1,1 0.58,0 a0.29,0.29 0 1,1 -0.58,0z" transform="matrix(1,0,0,-1,29.002308,22.2025326)" fill="rgb(255,255,255)" stroke="rgb(0,0,0)" stroke-width="0.0010cm" stroke-linecap="round" stroke-linejoin="round" shaper:cutDepth="0" /><path d="M0.707692,21.1984288 a0.29,0.29 0 1,1 0.58,0 a0.29,0.29 0 1,1 -0.58,0z" transform="matrix(1,0,0,-1,29.002308,22.2025326)" fill="rgb(255,255,255)" stroke="rgb(0,0,0)" stroke-width="0.0010cm" stroke-linecap="round" stroke-linejoin="round" shaper:cutDepth="0" /><path d="M2.707692,21.1984288 a0.29,0.29 0 1,1 0.58,0 a0.29,0.29 0 1,1 -0.58,0z" transform="matrix(1,0,0,-1,29.002308,22.2025326)" fill="rgb(255,255,255)" stroke="rgb(0,0,0)" stroke-width="0.0010cm" stroke-linecap="round" stroke-linejoin="round" shaper:cutDepth="0" /><path d="M4.707692,21.1984288 a0.29,0.29 0 1,1 0.58,0 a0.29,0.29 0 1,1 -0.58,0z" transform="matrix(1,0,0,-1,29.002308,22.2025326)" fill="rgb(255,255,255)" stroke="rgb(0,0,0)" stroke-width="0.0010cm" stroke-linecap="round" stroke-linejoin="round" shaper:cutDepth="0" /><path d="M6.707692,21.1984288 a0.29,0.29 0 1,1 0.58,0 a0.29,0.29 0 1,1 -0.58,0z" transform="matrix(1,0,0,-1,29.002308,22.2025326)" fill="rgb(255,255,255)" stroke="rgb(0,0,0)" stroke-width="0.0010cm" stroke-linecap="round" stroke-linejoin="round" shaper:cutDepth="0" /><path d="M8.707692,21.1984288 a0.29,0.29 0 1,1 0.58,0 a0.29,0.29 0 1,1 -0.58,0z" transform="matrix(1,0,0,-1,29.002308,22.2025326)" fill="rgb(255,255,255)" stroke="rgb(0,0,0)" stroke-width="0.0010cm" stroke-linecap="round" stroke-linejoin="round" shaper:cutDepth="0" /><path d="M10.707692,21.1984288 a0.29,0.29 0 1,1 0.58,0 a0.29,0.29 0 1,1 -0.58,0z" transform="matrix(1,0,0,-1,29.002308,22.2025326)" fill="rgb(255,255,255)" stroke="rgb(0,0,0)" stroke-width="0.0010cm" stroke-linecap="round" stroke-linejoin="round" shaper:cutDepth="0" /><path d="M12.707692,21.1984288 a0.29,0.29 0 1,1 0.58,0 a0.29,0.29 0 1,1 -0.58,0z" transform="matrix(1,0,0,-1,29.002308,22.2025326)" fill="rgb(255,255,255)" stroke="rgb(0,0,0)" stroke-width="0.0010cm" stroke-linecap="round" stroke-linejoin="round" shaper:cutDepth="0" /><path d="M14.707692,21.1984288 a0.29,0.29 0 1,1 0.58,0 a0.29,0.29 0 1,1 -0.58,0z" transform="matrix(1,0,0,-1,29.002308,22.2025326)" fill="rgb(255,255,255)" stroke="rgb(0,0,0)" stroke-width="0.0010cm" stroke-linecap="round" stroke-linejoin="round" shaper:cutDepth="0" /><path d="M16.707692,21.1984288 a0.29,0.29 0 1,1 0.58,0 a0.29,0.29 0 1,1 -0.58,0z" transform="matrix(1,0,0,-1,29.002308,22.2025326)" fill="rgb(255,255,255)" stroke="rgb(0,0,0)" stroke-width="0.0010cm" stroke-linecap="round" stroke-linejoin="round" shaper:cutDepth="0" /><path d="M-26.212308,20.2066364 a0.21,0.21 0 1,1 0.42,0 a0.21,0.21 0 1,1 -0.42,0z" transform="matrix(1,0,0,-1,29.002308,22.2025326)" fill="rgb(255,255,255)" stroke="rgb(0,0,0)" stroke-width="0.0010cm" stroke-linecap="round" stroke-linejoin="round" shaper:cutDepth="0" /><path d="M-24.212308,20.2066364 a0.21,0.21 0 1,1 0.42,0 a0.21,0.21 0 1,1 -0.42,0z" transform="matrix(1,0,0,-1,29.002308,22.2025326)" fill="rgb(255,255,255)" stroke="rgb(0,0,0)" stroke-width="0.0010cm" stroke-linecap="round" stroke-linejoin="round" shaper:cutDepth="0" /><path d="M-22.212308,20.2066364 a0.21,0.21 0 1,1 0.42,0 a0.21,0.21 0 1,1 -0.42,0z" transform="matrix(1,0,0,-1,29.002308,22.2025326)" fill="rgb(255,255,255)" stroke="rgb(0,0,0)" stroke-width="0.0010cm" stroke-linecap="round" stroke-linejoin="round" shaper:cutDepth="0" /><path d="M-20.212308,20.2066364 a0.21,0.21 0 1,1 0.42,0 a0.21,0.21 0 1,1 -0.42,0z" transform="matrix(1,0,0,-1,29.002308,22.2025326)" fill="rgb(255,255,255)" stroke="rgb(0,0,0)" stroke-width="0.0010cm" stroke-linecap="round" stroke-linejoin="round" shaper:cutDepth="0" /><path d="M-18.212308,20.2066364 a0.21,0.21 0 1,1 0.42,0 a0.21,0.21 0 1,1 -0.42,0z" transform="matrix(1,0,0,-1,29.002308,22.2025326)" fill="rgb(255,255,255)" stroke="rgb(0,0,0)" stroke-width="0.0010cm" stroke-linecap="round" stroke-linejoin="round" shaper:cutDepth="0" /><path d="M-25.292308,19.1984288 a0.29,0.29 0 1,1 0.58,0 a0.29,0.29 0 1,1 -0.58,0z" transform="matrix(1,0,0,-1,29.002308,22.2025326)" fill="rgb(255,255,255)" stroke="rgb(0,0,0)" stroke-width="0.0010cm" stroke-linecap="round" stroke-linejoin="round" shaper:cutDepth="0" /><path d="M-23.292308,19.1984288 a0.29,0.29 0 1,1 0.58,0 a0.29,0.29 0 1,1 -0.58,0z" transform="matrix(1,0,0,-1,29.002308,22.2025326)" fill="rgb(255,255,255)" stroke="rgb(0,0,0)" stroke-width="0.0010cm" stroke-linecap="round" stroke-linejoin="round" shaper:cutDepth="0" /><path d="M-21.292308,19.1984288 a0.29,0.29 0 1,1 0.58,0 a0.29,0.29 0 1,1 -0.58,0z" transform="matrix(1,0,0,-1,29.002308,22.2025326)" fill="rgb(255,255,255)" stroke="rgb(0,0,0)" stroke-width="0.0010cm" stroke-linecap="round" stroke-linejoin="round" shaper:cutDepth="0" /><path d="M-19.292308,19.1984288 a0.29,0.29 0 1,1 0.58,0 a0.29,0.29 0 1,1 -0.58,0z" transform="matrix(1,0,0,-1,29.002308,22.2025326)" fill="rgb(255,255,255)" stroke="rgb(0,0,0)" stroke-width="0.0010cm" stroke-linecap="round" stroke-linejoin="round" shaper:cutDepth="0" /><path d="M-26.212308,18.2066364 a0.21,0.21 0 1,1 0.42,0 a0.21,0.21 0 1,1 -0.42,0z" transform="matrix(1,0,0,-1,29.002308,22.2025326)" fill="rgb(255,255,255)" stroke="rgb(0,0,0)" stroke-width="0.0010cm" stroke-linecap="round" stroke-linejoin="round" shaper:cutDepth="0" /><path d="M-24.212308,18.2066364 a0.21,0.21 0 1,1 0.42,0 a0.21,0.21 0 1,1 -0.42,0z" transform="matrix(1,0,0,-1,29.002308,22.2025326)" fill="rgb(255,255,255)" stroke="rgb(0,0,0)" stroke-width="0.0010cm" stroke-linecap="round" stroke-linejoin="round" shaper:cutDepth="0" /><path d="M-22.212308,18.2066364 a0.21,0.21 0 1,1 0.42,0 a0.21,0.21 0 1,1 -0.42,0z" transform="matrix(1,0,0,-1,29.002308,22.2025326)" fill="rgb(255,255,255)" stroke="rgb(0,0,0)" stroke-width="0.0010cm" stroke-linecap="round" stroke-linejoin="round" shaper:cutDepth="0" /><path d="M-20.212308,18.2066364 a0.21,0.21 0 1,1 0.42,0 a0.21,0.21 0 1,1 -0.42,0z" transform="matrix(1,0,0,-1,29.002308,22.2025326)" fill="rgb(255,255,255)" stroke="rgb(0,0,0)" stroke-width="0.0010cm" stroke-linecap="round" stroke-linejoin="round" shaper:cutDepth="0" /><path d="M-18.212308,18.2066364 a0.21,0.21 0 1,1 0.42,0 a0.21,0.21 0 1,1 -0.42,0z" transform="matrix(1,0,0,-1,29.002308,22.2025326)" fill="rgb(255,255,255)" stroke="rgb(0,0,0)" stroke-width="0.0010cm" stroke-linecap="round" stroke-linejoin="round" shaper:cutDepth="0" /><path d="M-25.292308,17.1984288 a0.29,0.29 0 1,1 0.58,0 a0.29,0.29 0 1,1 -0.58,0z" transform="matrix(1,0,0,-1,29.002308,22.2025326)" fill="rgb(255,255,255)" stroke="rgb(0,0,0)" stroke-width="0.0010cm" stroke-linecap="round" stroke-linejoin="round" shaper:cutDepth="0" /><path d="M-23.292308,17.1984288 a0.29,0.29 0 1,1 0.58,0 a0.29,0.29 0 1,1 -0.58,0z" transform="matrix(1,0,0,-1,29.002308,22.2025326)" fill="rgb(255,255,255)" stroke="rgb(0,0,0)" stroke-width="0.0010cm" stroke-linecap="round" stroke-linejoin="round" shaper:cutDepth="0" /><path d="M-21.292308,17.1984288 a0.29,0.29 0 1,1 0.58,0 a0.29,0.29 0 1,1 -0.58,0z" transform="matrix(1,0,0,-1,29.002308,22.2025326)" fill="rgb(255,255,255)" stroke="rgb(0,0,0)" stroke-width="0.0010cm" stroke-linecap="round" stroke-linejoin="round" shaper:cutDepth="0" /><path d="M-19.292308,17.1984288 a0.29,0.29 0 1,1 0.58,0 a0.29,0.29 0 1,1 -0.58,0z" transform="matrix(1,0,0,-1,29.002308,22.2025326)" fill="rgb(255,255,255)" stroke="rgb(0,0,0)" stroke-width="0.0010cm" stroke-linecap="round" stroke-linejoin="round" shaper:cutDepth="0" /><path d="M-17.292308,17.1984288 a0.29,0.29 0 1,1 0.58,0 a0.29,0.29 0 1,1 -0.58,0z" transform="matrix(1,0,0,-1,29.002308,22.2025326)" fill="rgb(255,255,255)" stroke="rgb(0,0,0)" stroke-width="0.0010cm" stroke-linecap="round" stroke-linejoin="round" shaper:cutDepth="0" /><path d="M-26.212308,16.2066364 a0.21,0.21 0 1,1 0.42,0 a0.21,0.21 0 1,1 -0.42,0z" transform="matrix(1,0,0,-1,29.002308,22.2025326)" fill="rgb(255,255,255)" stroke="rgb(0,0,0)" stroke-width="0.0010cm" stroke-linecap="round" stroke-linejoin="round" shaper:cutDepth="0" /><path d="M-24.212308,16.2066364 a0.21,0.21 0 1,1 0.42,0 a0.21,0.21 0 1,1 -0.42,0z" transform="matrix(1,0,0,-1,29.002308,22.2025326)" fill="rgb(255,255,255)" stroke="rgb(0,0,0)" stroke-width="0.0010cm" stroke-linecap="round" stroke-linejoin="round" shaper:cutDepth="0" /><path d="M-22.212308,16.2066364 a0.21,0.21 0 1,1 0.42,0 a0.21,0.21 0 1,1 -0.42,0z" transform="matrix(1,0,0,-1,29.002308,22.2025326)" fill="rgb(255,255,255)" stroke="rgb(0,0,0)" stroke-width="0.0010cm" stroke-linecap="round" stroke-linejoin="round" shaper:cutDepth="0" /><path d="M-20.212308,16.2066364 a0.21,0.21 0 1,1 0.42,0 a0.21,0.21 0 1,1 -0.42,0z" transform="matrix(1,0,0,-1,29.002308,22.2025326)" fill="rgb(255,255,255)" stroke="rgb(0,0,0)" stroke-width="0.0010cm" stroke-linecap="round" stroke-linejoin="round" shaper:cutDepth="0" /><path d="M-18.212308,16.2066364 a0.21,0.21 0 1,1 0.42,0 a0.21,0.21 0 1,1 -0.42,0z" transform="matrix(1,0,0,-1,29.002308,22.2025326)" fill="rgb(255,255,255)" stroke="rgb(0,0,0)" stroke-width="0.0010cm" stroke-linecap="round" stroke-linejoin="round" shaper:cutDepth="0" /><path d="M-25.292308,15.1984288 a0.29,0.29 0 1,1 0.58,0 a0.29,0.29 0 1,1 -0.58,0z" transform="matrix(1,0,0,-1,29.002308,22.2025326)" fill="rgb(255,255,255)" stroke="rgb(0,0,0)" stroke-width="0.0010cm" stroke-linecap="round" stroke-linejoin="round" shaper:cutDepth="0" /><path d="M-23.292308,15.1984288 a0.29,0.29 0 1,1 0.58,0 a0.29,0.29 0 1,1 -0.58,0z" transform="matrix(1,0,0,-1,29.002308,22.2025326)" fill="rgb(255,255,255)" stroke="rgb(0,0,0)" stroke-width="0.0010cm" stroke-linecap="round" stroke-linejoin="round" shaper:cutDepth="0" /><path d="M-21.292308,15.1984288 a0.29,0.29 0 1,1 0.58,0 a0.29,0.29 0 1,1 -0.58,0z" transform="matrix(1,0,0,-1,29.002308,22.2025326)" fill="rgb(255,255,255)" stroke="rgb(0,0,0)" stroke-width="0.0010cm" stroke-linecap="round" stroke-linejoin="round" shaper:cutDepth="0" /><path d="M-19.292308,15.1984288 a0.29,0.29 0 1,1 0.58,0 a0.29,0.29 0 1,1 -0.58,0z" transform="matrix(1,0,0,-1,29.002308,22.2025326)" fill="rgb(255,255,255)" stroke="rgb(0,0,0)" stroke-width="0.0010cm" stroke-linecap="round" stroke-linejoin="round" shaper:cutDepth="0" /><path d="M-17.292308,15.1984288 a0.29,0.29 0 1,1 0.58,0 a0.29,0.29 0 1,1 -0.58,0z" transform="matrix(1,0,0,-1,29.002308,22.2025326)" fill="rgb(255,255,255)" stroke="rgb(0,0,0)" stroke-width="0.0010cm" stroke-linecap="round" stroke-linejoin="round" shaper:cutDepth="0" /><path d="M-26.212308,14.2066364 a0.21,0.21 0 1,1 0.42,0 a0.21,0.21 0 1,1 -0.42,0z" transform="matrix(1,0,0,-1,29.002308,22.2025326)" fill="rgb(255,255,255)" stroke="rgb(0,0,0)" stroke-width="0.0010cm" stroke-linecap="round" stroke-linejoin="round" shaper:cutDepth="0" /><path d="M-24.212308,14.2066364 a0.21,0.21 0 1,1 0.42,0 a0.21,0.21 0 1,1 -0.42,0z" transform="matrix(1,0,0,-1,29.002308,22.2025326)" fill="rgb(255,255,255)" stroke="rgb(0,0,0)" stroke-width="0.0010cm" stroke-linecap="round" stroke-linejoin="round" shaper:cutDepth="0" /><path d="M-22.212308,14.2066364 a0.21,0.21 0 1,1 0.42,0 a0.21,0.21 0 1,1 -0.42,0z" transform="matrix(1,0,0,-1,29.002308,22.2025326)" fill="rgb(255,255,255)" stroke="rgb(0,0,0)" stroke-width="0.0010cm" stroke-linecap="round" stroke-linejoin="round" shaper:cutDepth="0" /><path d="M-20.212308,14.2066364 a0.21,0.21 0 1,1 0.42,0 a0.21,0.21 0 1,1 -0.42,0z" transform="matrix(1,0,0,-1,29.002308,22.2025326)" fill="rgb(255,255,255)" stroke="rgb(0,0,0)" stroke-width="0.0010cm" stroke-linecap="round" stroke-linejoin="round" shaper:cutDepth="0" /><path d="M-18.212308,14.2066364 a0.21,0.21 0 1,1 0.42,0 a0.21,0.21 0 1,1 -0.42,0z" transform="matrix(1,0,0,-1,29.002308,22.2025326)" fill="rgb(255,255,255)" stroke="rgb(0,0,0)" stroke-width="0.0010cm" stroke-linecap="round" stroke-linejoin="round" shaper:cutDepth="0" /><path d="M-25.292308,13.1984288 a0.29,0.29 0 1,1 0.58,0 a0.29,0.29 0 1,1 -0.58,0z" transform="matrix(1,0,0,-1,29.002308,22.2025326)" fill="rgb(255,255,255)" stroke="rgb(0,0,0)" stroke-width="0.0010cm" stroke-linecap="round" stroke-linejoin="round" shaper:cutDepth="0" /><path d="M-23.292308,13.1984288 a0.29,0.29 0 1,1 0.58,0 a0.29,0.29 0 1,1 -0.58,0z" transform="matrix(1,0,0,-1,29.002308,22.2025326)" fill="rgb(255,255,255)" stroke="rgb(0,0,0)" stroke-width="0.0010cm" stroke-linecap="round" stroke-linejoin="round" shaper:cutDepth="0" /><path d="M-21.292308,13.1984288 a0.29,0.29 0 1,1 0.58,0 a0.29,0.29 0 1,1 -0.58,0z" transform="matrix(1,0,0,-1,29.002308,22.2025326)" fill="rgb(255,255,255)" stroke="rgb(0,0,0)" stroke-width="0.0010cm" stroke-linecap="round" stroke-linejoin="round" shaper:cutDepth="0" /><path d="M-19.292308,13.1984288 a0.29,0.29 0 1,1 0.58,0 a0.29,0.29 0 1,1 -0.58,0z" transform="matrix(1,0,0,-1,29.002308,22.2025326)" fill="rgb(255,255,255)" stroke="rgb(0,0,0)" stroke-width="0.0010cm" stroke-linecap="round" stroke-linejoin="round" shaper:cutDepth="0" /><path d="M-17.292308,13.1984288 a0.29,0.29 0 1,1 0.58,0 a0.29,0.29 0 1,1 -0.58,0z" transform="matrix(1,0,0,-1,29.002308,22.2025326)" fill="rgb(255,255,255)" stroke="rgb(0,0,0)" stroke-width="0.0010cm" stroke-linecap="round" stroke-linejoin="round" shaper:cutDepth="0" /><path d="M-26.212308,12.2066364 a0.21,0.21 0 1,1 0.42,0 a0.21,0.21 0 1,1 -0.42,0z" transform="matrix(1,0,0,-1,29.002308,22.2025326)" fill="rgb(255,255,255)" stroke="rgb(0,0,0)" stroke-width="0.0010cm" stroke-linecap="round" stroke-linejoin="round" shaper:cutDepth="0" /><path d="M-24.212308,12.2066364 a0.21,0.21 0 1,1 0.42,0 a0.21,0.21 0 1,1 -0.42,0z" transform="matrix(1,0,0,-1,29.002308,22.2025326)" fill="rgb(255,255,255)" stroke="rgb(0,0,0)" stroke-width="0.0010cm" stroke-linecap="round" stroke-linejoin="round" shaper:cutDepth="0" /><path d="M-22.212308,12.2066364 a0.21,0.21 0 1,1 0.42,0 a0.21,0.21 0 1,1 -0.42,0z" transform="matrix(1,0,0,-1,29.002308,22.2025326)" fill="rgb(255,255,255)" stroke="rgb(0,0,0)" stroke-width="0.0010cm" stroke-linecap="round" stroke-linejoin="round" shaper:cutDepth="0" /><path d="M-20.212308,12.2066364 a0.21,0.21 0 1,1 0.42,0 a0.21,0.21 0 1,1 -0.42,0z" transform="matrix(1,0,0,-1,29.002308,22.2025326)" fill="rgb(255,255,255)" stroke="rgb(0,0,0)" stroke-width="0.0010cm" stroke-linecap="round" stroke-linejoin="round" shaper:cutDepth="0" /><path d="M-18.212308,12.2066364 a0.21,0.21 0 1,1 0.42,0 a0.21,0.21 0 1,1 -0.42,0z" transform="matrix(1,0,0,-1,29.002308,22.2025326)" fill="rgb(255,255,255)" stroke="rgb(0,0,0)" stroke-width="0.0010cm" stroke-linecap="round" stroke-linejoin="round" shaper:cutDepth="0" /><path d="M-25.292308,11.1984288 a0.29,0.29 0 1,1 0.58,0 a0.29,0.29 0 1,1 -0.58,0z" transform="matrix(1,0,0,-1,29.002308,22.2025326)" fill="rgb(255,255,255)" stroke="rgb(0,0,0)" stroke-width="0.0010cm" stroke-linecap="round" stroke-linejoin="round" shaper:cutDepth="0" /><path d="M-23.292308,11.1984288 a0.29,0.29 0 1,1 0.58,0 a0.29,0.29 0 1,1 -0.58,0z" transform="matrix(1,0,0,-1,29.002308,22.2025326)" fill="rgb(255,255,255)" stroke="rgb(0,0,0)" stroke-width="0.0010cm" stroke-linecap="round" stroke-linejoin="round" shaper:cutDepth="0" /><path d="M-21.292308,11.1984288 a0.29,0.29 0 1,1 0.58,0 a0.29,0.29 0 1,1 -0.58,0z" transform="matrix(1,0,0,-1,29.002308,22.2025326)" fill="rgb(255,255,255)" stroke="rgb(0,0,0)" stroke-width="0.0010cm" stroke-linecap="round" stroke-linejoin="round" shaper:cutDepth="0" /><path d="M-19.292308,11.1984288 a0.29,0.29 0 1,1 0.58,0 a0.29,0.29 0 1,1 -0.58,0z" transform="matrix(1,0,0,-1,29.002308,22.2025326)" fill="rgb(255,255,255)" stroke="rgb(0,0,0)" stroke-width="0.0010cm" stroke-linecap="round" stroke-linejoin="round" shaper:cutDepth="0" /><path d="M-17.292308,11.1984288 a0.29,0.29 0 1,1 0.58,0 a0.29,0.29 0 1,1 -0.58,0z" transform="matrix(1,0,0,-1,29.002308,22.2025326)" fill="rgb(255,255,255)" stroke="rgb(0,0,0)" stroke-width="0.0010cm" stroke-linecap="round" stroke-linejoin="round" shaper:cutDepth="0" /><path d="M-25.292308,9.1984288 a0.29,0.29 0 1,1 0.58,0 a0.29,0.29 0 1,1 -0.58,0z" transform="matrix(1,0,0,-1,29.002308,22.2025326)" fill="rgb(255,255,255)" stroke="rgb(0,0,0)" stroke-width="0.0010cm" stroke-linecap="round" stroke-linejoin="round" shaper:cutDepth="0" /><path d="M-23.292308,9.1984288 a0.29,0.29 0 1,1 0.58,0 a0.29,0.29 0 1,1 -0.58,0z" transform="matrix(1,0,0,-1,29.002308,22.2025326)" fill="rgb(255,255,255)" stroke="rgb(0,0,0)" stroke-width="0.0010cm" stroke-linecap="round" stroke-linejoin="round" shaper:cutDepth="0" /><path d="M-21.292308,9.1984288 a0.29,0.29 0 1,1 0.58,0 a0.29,0.29 0 1,1 -0.58,0z" transform="matrix(1,0,0,-1,29.002308,22.2025326)" fill="rgb(255,255,255)" stroke="rgb(0,0,0)" stroke-width="0.0010cm" stroke-linecap="round" stroke-linejoin="round" shaper:cutDepth="0" /><path d="M-19.292308,9.1984288 a0.29,0.29 0 1,1 0.58,0 a0.29,0.29 0 1,1 -0.58,0z" transform="matrix(1,0,0,-1,29.002308,22.2025326)" fill="rgb(255,255,255)" stroke="rgb(0,0,0)" stroke-width="0.0010cm" stroke-linecap="round" stroke-linejoin="round" shaper:cutDepth="0" /><path d="M-26.212308,10.2066364 a0.21,0.21 0 1,1 0.42,0 a0.21,0.21 0 1,1 -0.42,0z" transform="matrix(1,0,0,-1,29.002308,22.2025326)" fill="rgb(255,255,255)" stroke="rgb(0,0,0)" stroke-width="0.0010cm" stroke-linecap="round" stroke-linejoin="round" shaper:cutDepth="0" /><path d="M-24.212308,10.2066364 a0.21,0.21 0 1,1 0.42,0 a0.21,0.21 0 1,1 -0.42,0z" transform="matrix(1,0,0,-1,29.002308,22.2025326)" fill="rgb(255,255,255)" stroke="rgb(0,0,0)" stroke-width="0.0010cm" stroke-linecap="round" stroke-linejoin="round" shaper:cutDepth="0" /><path d="M-22.212308,10.2066364 a0.21,0.21 0 1,1 0.42,0 a0.21,0.21 0 1,1 -0.42,0z" transform="matrix(1,0,0,-1,29.002308,22.2025326)" fill="rgb(255,255,255)" stroke="rgb(0,0,0)" stroke-width="0.0010cm" stroke-linecap="round" stroke-linejoin="round" shaper:cutDepth="0" /><path d="M-20.212308,10.2066364 a0.21,0.21 0 1,1 0.42,0 a0.21,0.21 0 1,1 -0.42,0z" transform="matrix(1,0,0,-1,29.002308,22.2025326)" fill="rgb(255,255,255)" stroke="rgb(0,0,0)" stroke-width="0.0010cm" stroke-linecap="round" stroke-linejoin="round" shaper:cutDepth="0" /><path d="M-18.212308,10.2066364 a0.21,0.21 0 1,1 0.42,0 a0.21,0.21 0 1,1 -0.42,0z" transform="matrix(1,0,0,-1,29.002308,22.2025326)" fill="rgb(255,255,255)" stroke="rgb(0,0,0)" stroke-width="0.0010cm" stroke-linecap="round" stroke-linejoin="round" shaper:cutDepth="0" /><path d="M-26.212308,8.2066364 a0.21,0.21 0 1,1 0.42,0 a0.21,0.21 0 1,1 -0.42,0z" transform="matrix(1,0,0,-1,29.002308,22.2025326)" fill="rgb(255,255,255)" stroke="rgb(0,0,0)" stroke-width="0.0010cm" stroke-linecap="round" stroke-linejoin="round" shaper:cutDepth="0" /><path d="M-24.212308,8.2066364 a0.21,0.21 0 1,1 0.42,0 a0.21,0.21 0 1,1 -0.42,0z" transform="matrix(1,0,0,-1,29.002308,22.2025326)" fill="rgb(255,255,255)" stroke="rgb(0,0,0)" stroke-width="0.0010cm" stroke-linecap="round" stroke-linejoin="round" shaper:cutDepth="0" /><path d="M-22.212308,8.2066364 a0.21,0.21 0 1,1 0.42,0 a0.21,0.21 0 1,1 -0.42,0z" transform="matrix(1,0,0,-1,29.002308,22.2025326)" fill="rgb(255,255,255)" stroke="rgb(0,0,0)" stroke-width="0.0010cm" stroke-linecap="round" stroke-linejoin="round" shaper:cutDepth="0" /><path d="M-20.212308,8.2066364 a0.21,0.21 0 1,1 0.42,0 a0.21,0.21 0 1,1 -0.42,0z" transform="matrix(1,0,0,-1,29.002308,22.2025326)" fill="rgb(255,255,255)" stroke="rgb(0,0,0)" stroke-width="0.0010cm" stroke-linecap="round" stroke-linejoin="round" shaper:cutDepth="0" /><path d="M-18.212308,8.2066364 a0.21,0.21 0 1,1 0.42,0 a0.21,0.21 0 1,1 -0.42,0z" transform="matrix(1,0,0,-1,29.002308,22.2025326)" fill="rgb(255,255,255)" stroke="rgb(0,0,0)" stroke-width="0.0010cm" stroke-linecap="round" stroke-linejoin="round" shaper:cutDepth="0" /><path d="M17.787692,20.2066364 a0.21,0.21 0 1,1 0.42,0 a0.21,0.21 0 1,1 -0.42,0z" transform="matrix(1,0,0,-1,29.002308,22.2025326)" fill="rgb(255,255,255)" stroke="rgb(0,0,0)" stroke-width="0.0010cm" stroke-linecap="round" stroke-linejoin="round" shaper:cutDepth="0" /><path d="M15.787692,20.2066364 a0.21,0.21 0 1,1 0.42,0 a0.21,0.21 0 1,1 -0.42,0z" transform="matrix(1,0,0,-1,29.002308,22.2025326)" fill="rgb(255,255,255)" stroke="rgb(0,0,0)" stroke-width="0.0010cm" stroke-linecap="round" stroke-linejoin="round" shaper:cutDepth="0" /><path d="M13.787692,20.2066364 a0.21,0.21 0 1,1 0.42,0 a0.21,0.21 0 1,1 -0.42,0z" transform="matrix(1,0,0,-1,29.002308,22.2025326)" fill="rgb(255,255,255)" stroke="rgb(0,0,0)" stroke-width="0.0010cm" stroke-linecap="round" stroke-linejoin="round" shaper:cutDepth="0" /><path d="M11.787692,20.2066364 a0.21,0.21 0 1,1 0.42,0 a0.21,0.21 0 1,1 -0.42,0z" transform="matrix(1,0,0,-1,29.002308,22.2025326)" fill="rgb(255,255,255)" stroke="rgb(0,0,0)" stroke-width="0.0010cm" stroke-linecap="round" stroke-linejoin="round" shaper:cutDepth="0" /><path d="M9.787692,20.2066364 a0.21,0.21 0 1,1 0.42,0 a0.21,0.21 0 1,1 -0.42,0z" transform="matrix(1,0,0,-1,29.002308,22.2025326)" fill="rgb(255,255,255)" stroke="rgb(0,0,0)" stroke-width="0.0010cm" stroke-linecap="round" stroke-linejoin="round" shaper:cutDepth="0" /><path d="M17.787692,8.2066364 a0.21,0.21 0 1,1 0.42,0 a0.21,0.21 0 1,1 -0.42,0z" transform="matrix(1,0,0,-1,29.002308,22.2025326)" fill="rgb(255,255,255)" stroke="rgb(0,0,0)" stroke-width="0.0010cm" stroke-linecap="round" stroke-linejoin="round" shaper:cutDepth="0" /><path d="M15.787692,8.2066364 a0.21,0.21 0 1,1 0.42,0 a0.21,0.21 0 1,1 -0.42,0z" transform="matrix(1,0,0,-1,29.002308,22.2025326)" fill="rgb(255,255,255)" stroke="rgb(0,0,0)" stroke-width="0.0010cm" stroke-linecap="round" stroke-linejoin="round" shaper:cutDepth="0" /><path d="M13.787692,8.2066364 a0.21,0.21 0 1,1 0.42,0 a0.21,0.21 0 1,1 -0.42,0z" transform="matrix(1,0,0,-1,29.002308,22.2025326)" fill="rgb(255,255,255)" stroke="rgb(0,0,0)" stroke-width="0.0010cm" stroke-linecap="round" stroke-linejoin="round" shaper:cutDepth="0" /><path d="M11.787692,8.2066364 a0.21,0.21 0 1,1 0.42,0 a0.21,0.21 0 1,1 -0.42,0z" transform="matrix(1,0,0,-1,29.002308,22.2025326)" fill="rgb(255,255,255)" stroke="rgb(0,0,0)" stroke-width="0.0010cm" stroke-linecap="round" stroke-linejoin="round" shaper:cutDepth="0" /><path d="M9.787692,8.2066364 a0.21,0.21 0 1,1 0.42,0 a0.21,0.21 0 1,1 -0.42,0z" transform="matrix(1,0,0,-1,29.002308,22.2025326)" fill="rgb(255,255,255)" stroke="rgb(0,0,0)" stroke-width="0.0010cm" stroke-linecap="round" stroke-linejoin="round" shaper:cutDepth="0" /><path d="M16.707692,9.1984288 a0.29,0.29 0 1,1 0.58,0 a0.29,0.29 0 1,1 -0.58,0z" transform="matrix(1,0,0,-1,29.002308,22.2025326)" fill="rgb(255,255,255)" stroke="rgb(0,0,0)" stroke-width="0.0010cm" stroke-linecap="round" stroke-linejoin="round" shaper:cutDepth="0" /><path d="M14.707692,9.1984288 a0.29,0.29 0 1,1 0.58,0 a0.29,0.29 0 1,1 -0.58,0z" transform="matrix(1,0,0,-1,29.002308,22.2025326)" fill="rgb(255,255,255)" stroke="rgb(0,0,0)" stroke-width="0.0010cm" stroke-linecap="round" stroke-linejoin="round" shaper:cutDepth="0" /><path d="M12.707692,9.1984288 a0.29,0.29 0 1,1 0.58,0 a0.29,0.29 0 1,1 -0.58,0z" transform="matrix(1,0,0,-1,29.002308,22.2025326)" fill="rgb(255,255,255)" stroke="rgb(0,0,0)" stroke-width="0.0010cm" stroke-linecap="round" stroke-linejoin="round" shaper:cutDepth="0" /><path d="M10.707692,9.1984288 a0.29,0.29 0 1,1 0.58,0 a0.29,0.29 0 1,1 -0.58,0z" transform="matrix(1,0,0,-1,29.002308,22.2025326)" fill="rgb(255,255,255)" stroke="rgb(0,0,0)" stroke-width="0.0010cm" stroke-linecap="round" stroke-linejoin="round" shaper:cutDepth="0" /><path d="M17.787692,10.2066364 a0.21,0.21 0 1,1 0.42,0 a0.21,0.21 0 1,1 -0.42,0z" transform="matrix(1,0,0,-1,29.002308,22.2025326)" fill="rgb(255,255,255)" stroke="rgb(0,0,0)" stroke-width="0.0010cm" stroke-linecap="round" stroke-linejoin="round" shaper:cutDepth="0" /><path d="M15.787692,10.2066364 a0.21,0.21 0 1,1 0.42,0 a0.21,0.21 0 1,1 -0.42,0z" transform="matrix(1,0,0,-1,29.002308,22.2025326)" fill="rgb(255,255,255)" stroke="rgb(0,0,0)" stroke-width="0.0010cm" stroke-linecap="round" stroke-linejoin="round" shaper:cutDepth="0" /><path d="M13.787692,10.2066364 a0.21,0.21 0 1,1 0.42,0 a0.21,0.21 0 1,1 -0.42,0z" transform="matrix(1,0,0,-1,29.002308,22.2025326)" fill="rgb(255,255,255)" stroke="rgb(0,0,0)" stroke-width="0.0010cm" stroke-linecap="round" stroke-linejoin="round" shaper:cutDepth="0" /><path d="M11.787692,10.2066364 a0.21,0.21 0 1,1 0.42,0 a0.21,0.21 0 1,1 -0.42,0z" transform="matrix(1,0,0,-1,29.002308,22.2025326)" fill="rgb(255,255,255)" stroke="rgb(0,0,0)" stroke-width="0.0010cm" stroke-linecap="round" stroke-linejoin="round" shaper:cutDepth="0" /><path d="M9.787692,10.2066364 a0.21,0.21 0 1,1 0.42,0 a0.21,0.21 0 1,1 -0.42,0z" transform="matrix(1,0,0,-1,29.002308,22.2025326)" fill="rgb(255,255,255)" stroke="rgb(0,0,0)" stroke-width="0.0010cm" stroke-linecap="round" stroke-linejoin="round" shaper:cutDepth="0" /><path d="M16.707692,11.1984288 a0.29,0.29 0 1,1 0.58,0 a0.29,0.29 0 1,1 -0.58,0z" transform="matrix(1,0,0,-1,29.002308,22.2025326)" fill="rgb(255,255,255)" stroke="rgb(0,0,0)" stroke-width="0.0010cm" stroke-linecap="round" stroke-linejoin="round" shaper:cutDepth="0" /><path d="M14.707692,11.1984288 a0.29,0.29 0 1,1 0.58,0 a0.29,0.29 0 1,1 -0.58,0z" transform="matrix(1,0,0,-1,29.002308,22.2025326)" fill="rgb(255,255,255)" stroke="rgb(0,0,0)" stroke-width="0.0010cm" stroke-linecap="round" stroke-linejoin="round" shaper:cutDepth="0" /><path d="M12.707692,11.1984288 a0.29,0.29 0 1,1 0.58,0 a0.29,0.29 0 1,1 -0.58,0z" transform="matrix(1,0,0,-1,29.002308,22.2025326)" fill="rgb(255,255,255)" stroke="rgb(0,0,0)" stroke-width="0.0010cm" stroke-linecap="round" stroke-linejoin="round" shaper:cutDepth="0" /><path d="M10.707692,11.1984288 a0.29,0.29 0 1,1 0.58,0 a0.29,0.29 0 1,1 -0.58,0z" transform="matrix(1,0,0,-1,29.002308,22.2025326)" fill="rgb(255,255,255)" stroke="rgb(0,0,0)" stroke-width="0.0010cm" stroke-linecap="round" stroke-linejoin="round" shaper:cutDepth="0" /><path d="M8.707692,11.1984288 a0.29,0.29 0 1,1 0.58,0 a0.29,0.29 0 1,1 -0.58,0z" transform="matrix(1,0,0,-1,29.002308,22.2025326)" fill="rgb(255,255,255)" stroke="rgb(0,0,0)" stroke-width="0.0010cm" stroke-linecap="round" stroke-linejoin="round" shaper:cutDepth="0" /><path d="M17.787692,12.2066364 a0.21,0.21 0 1,1 0.42,0 a0.21,0.21 0 1,1 -0.42,0z" transform="matrix(1,0,0,-1,29.002308,22.2025326)" fill="rgb(255,255,255)" stroke="rgb(0,0,0)" stroke-width="0.0010cm" stroke-linecap="round" stroke-linejoin="round" shaper:cutDepth="0" /><path d="M15.787692,12.2066364 a0.21,0.21 0 1,1 0.42,0 a0.21,0.21 0 1,1 -0.42,0z" transform="matrix(1,0,0,-1,29.002308,22.2025326)" fill="rgb(255,255,255)" stroke="rgb(0,0,0)" stroke-width="0.0010cm" stroke-linecap="round" stroke-linejoin="round" shaper:cutDepth="0" /><path d="M13.787692,12.2066364 a0.21,0.21 0 1,1 0.42,0 a0.21,0.21 0 1,1 -0.42,0z" transform="matrix(1,0,0,-1,29.002308,22.2025326)" fill="rgb(255,255,255)" stroke="rgb(0,0,0)" stroke-width="0.0010cm" stroke-linecap="round" stroke-linejoin="round" shaper:cutDepth="0" /><path d="M11.787692,12.2066364 a0.21,0.21 0 1,1 0.42,0 a0.21,0.21 0 1,1 -0.42,0z" transform="matrix(1,0,0,-1,29.002308,22.2025326)" fill="rgb(255,255,255)" stroke="rgb(0,0,0)" stroke-width="0.0010cm" stroke-linecap="round" stroke-linejoin="round" shaper:cutDepth="0" /><path d="M9.787692,12.2066364 a0.21,0.21 0 1,1 0.42,0 a0.21,0.21 0 1,1 -0.42,0z" transform="matrix(1,0,0,-1,29.002308,22.2025326)" fill="rgb(255,255,255)" stroke="rgb(0,0,0)" stroke-width="0.0010cm" stroke-linecap="round" stroke-linejoin="round" shaper:cutDepth="0" /><path d="M17.787692,14.2066364 a0.21,0.21 0 1,1 0.42,0 a0.21,0.21 0 1,1 -0.42,0z" transform="matrix(1,0,0,-1,29.002308,22.2025326)" fill="rgb(255,255,255)" stroke="rgb(0,0,0)" stroke-width="0.0010cm" stroke-linecap="round" stroke-linejoin="round" shaper:cutDepth="0" /><path d="M15.787692,14.2066364 a0.21,0.21 0 1,1 0.42,0 a0.21,0.21 0 1,1 -0.42,0z" transform="matrix(1,0,0,-1,29.002308,22.2025326)" fill="rgb(255,255,255)" stroke="rgb(0,0,0)" stroke-width="0.0010cm" stroke-linecap="round" stroke-linejoin="round" shaper:cutDepth="0" /><path d="M13.787692,14.2066364 a0.21,0.21 0 1,1 0.42,0 a0.21,0.21 0 1,1 -0.42,0z" transform="matrix(1,0,0,-1,29.002308,22.2025326)" fill="rgb(255,255,255)" stroke="rgb(0,0,0)" stroke-width="0.0010cm" stroke-linecap="round" stroke-linejoin="round" shaper:cutDepth="0" /><path d="M11.787692,14.2066364 a0.21,0.21 0 1,1 0.42,0 a0.21,0.21 0 1,1 -0.42,0z" transform="matrix(1,0,0,-1,29.002308,22.2025326)" fill="rgb(255,255,255)" stroke="rgb(0,0,0)" stroke-width="0.0010cm" stroke-linecap="round" stroke-linejoin="round" shaper:cutDepth="0" /><path d="M9.787692,14.2066364 a0.21,0.21 0 1,1 0.42,0 a0.21,0.21 0 1,1 -0.42,0z" transform="matrix(1,0,0,-1,29.002308,22.2025326)" fill="rgb(255,255,255)" stroke="rgb(0,0,0)" stroke-width="0.0010cm" stroke-linecap="round" stroke-linejoin="round" shaper:cutDepth="0" /><path d="M16.707692,13.1984288 a0.29,0.29 0 1,1 0.58,0 a0.29,0.29 0 1,1 -0.58,0z" transform="matrix(1,0,0,-1,29.002308,22.2025326)" fill="rgb(255,255,255)" stroke="rgb(0,0,0)" stroke-width="0.0010cm" stroke-linecap="round" stroke-linejoin="round" shaper:cutDepth="0" /><path d="M14.707692,13.1984288 a0.29,0.29 0 1,1 0.58,0 a0.29,0.29 0 1,1 -0.58,0z" transform="matrix(1,0,0,-1,29.002308,22.2025326)" fill="rgb(255,255,255)" stroke="rgb(0,0,0)" stroke-width="0.0010cm" stroke-linecap="round" stroke-linejoin="round" shaper:cutDepth="0" /><path d="M12.707692,13.1984288 a0.29,0.29 0 1,1 0.58,0 a0.29,0.29 0 1,1 -0.58,0z" transform="matrix(1,0,0,-1,29.002308,22.2025326)" fill="rgb(255,255,255)" stroke="rgb(0,0,0)" stroke-width="0.0010cm" stroke-linecap="round" stroke-linejoin="round" shaper:cutDepth="0" /><path d="M10.707692,13.1984288 a0.29,0.29 0 1,1 0.58,0 a0.29,0.29 0 1,1 -0.58,0z" transform="matrix(1,0,0,-1,29.002308,22.2025326)" fill="rgb(255,255,255)" stroke="rgb(0,0,0)" stroke-width="0.0010cm" stroke-linecap="round" stroke-linejoin="round" shaper:cutDepth="0" /><path d="M8.707692,13.1984288 a0.29,0.29 0 1,1 0.58,0 a0.29,0.29 0 1,1 -0.58,0z" transform="matrix(1,0,0,-1,29.002308,22.2025326)" fill="rgb(255,255,255)" stroke="rgb(0,0,0)" stroke-width="0.0010cm" stroke-linecap="round" stroke-linejoin="round" shaper:cutDepth="0" /><path d="M16.707692,15.1984288 a0.29,0.29 0 1,1 0.58,0 a0.29,0.29 0 1,1 -0.58,0z" transform="matrix(1,0,0,-1,29.002308,22.2025326)" fill="rgb(255,255,255)" stroke="rgb(0,0,0)" stroke-width="0.0010cm" stroke-linecap="round" stroke-linejoin="round" shaper:cutDepth="0" /><path d="M14.707692,15.1984288 a0.29,0.29 0 1,1 0.58,0 a0.29,0.29 0 1,1 -0.58,0z" transform="matrix(1,0,0,-1,29.002308,22.2025326)" fill="rgb(255,255,255)" stroke="rgb(0,0,0)" stroke-width="0.0010cm" stroke-linecap="round" stroke-linejoin="round" shaper:cutDepth="0" /><path d="M12.707692,15.1984288 a0.29,0.29 0 1,1 0.58,0 a0.29,0.29 0 1,1 -0.58,0z" transform="matrix(1,0,0,-1,29.002308,22.2025326)" fill="rgb(255,255,255)" stroke="rgb(0,0,0)" stroke-width="0.0010cm" stroke-linecap="round" stroke-linejoin="round" shaper:cutDepth="0" /><path d="M10.707692,15.1984288 a0.29,0.29 0 1,1 0.58,0 a0.29,0.29 0 1,1 -0.58,0z" transform="matrix(1,0,0,-1,29.002308,22.2025326)" fill="rgb(255,255,255)" stroke="rgb(0,0,0)" stroke-width="0.0010cm" stroke-linecap="round" stroke-linejoin="round" shaper:cutDepth="0" /><path d="M8.707692,15.1984288 a0.29,0.29 0 1,1 0.58,0 a0.29,0.29 0 1,1 -0.58,0z" transform="matrix(1,0,0,-1,29.002308,22.2025326)" fill="rgb(255,255,255)" stroke="rgb(0,0,0)" stroke-width="0.0010cm" stroke-linecap="round" stroke-linejoin="round" shaper:cutDepth="0" /><path d="M17.787692,16.2066364 a0.21,0.21 0 1,1 0.42,0 a0.21,0.21 0 1,1 -0.42,0z" transform="matrix(1,0,0,-1,29.002308,22.2025326)" fill="rgb(255,255,255)" stroke="rgb(0,0,0)" stroke-width="0.0010cm" stroke-linecap="round" stroke-linejoin="round" shaper:cutDepth="0" /><path d="M15.787692,16.2066364 a0.21,0.21 0 1,1 0.42,0 a0.21,0.21 0 1,1 -0.42,0z" transform="matrix(1,0,0,-1,29.002308,22.2025326)" fill="rgb(255,255,255)" stroke="rgb(0,0,0)" stroke-width="0.0010cm" stroke-linecap="round" stroke-linejoin="round" shaper:cutDepth="0" /><path d="M13.787692,16.2066364 a0.21,0.21 0 1,1 0.42,0 a0.21,0.21 0 1,1 -0.42,0z" transform="matrix(1,0,0,-1,29.002308,22.2025326)" fill="rgb(255,255,255)" stroke="rgb(0,0,0)" stroke-width="0.0010cm" stroke-linecap="round" stroke-linejoin="round" shaper:cutDepth="0" /><path d="M11.787692,16.2066364 a0.21,0.21 0 1,1 0.42,0 a0.21,0.21 0 1,1 -0.42,0z" transform="matrix(1,0,0,-1,29.002308,22.2025326)" fill="rgb(255,255,255)" stroke="rgb(0,0,0)" stroke-width="0.0010cm" stroke-linecap="round" stroke-linejoin="round" shaper:cutDepth="0" /><path d="M9.787692,16.2066364 a0.21,0.21 0 1,1 0.42,0 a0.21,0.21 0 1,1 -0.42,0z" transform="matrix(1,0,0,-1,29.002308,22.2025326)" fill="rgb(255,255,255)" stroke="rgb(0,0,0)" stroke-width="0.0010cm" stroke-linecap="round" stroke-linejoin="round" shaper:cutDepth="0" /><path d="M16.707692,17.1984288 a0.29,0.29 0 1,1 0.58,0 a0.29,0.29 0 1,1 -0.58,0z" transform="matrix(1,0,0,-1,29.002308,22.2025326)" fill="rgb(255,255,255)" stroke="rgb(0,0,0)" stroke-width="0.0010cm" stroke-linecap="round" stroke-linejoin="round" shaper:cutDepth="0" /><path d="M14.707692,17.1984288 a0.29,0.29 0 1,1 0.58,0 a0.29,0.29 0 1,1 -0.58,0z" transform="matrix(1,0,0,-1,29.002308,22.2025326)" fill="rgb(255,255,255)" stroke="rgb(0,0,0)" stroke-width="0.0010cm" stroke-linecap="round" stroke-linejoin="round" shaper:cutDepth="0" /><path d="M12.707692,17.1984288 a0.29,0.29 0 1,1 0.58,0 a0.29,0.29 0 1,1 -0.58,0z" transform="matrix(1,0,0,-1,29.002308,22.2025326)" fill="rgb(255,255,255)" stroke="rgb(0,0,0)" stroke-width="0.0010cm" stroke-linecap="round" stroke-linejoin="round" shaper:cutDepth="0" /><path d="M10.707692,17.1984288 a0.29,0.29 0 1,1 0.58,0 a0.29,0.29 0 1,1 -0.58,0z" transform="matrix(1,0,0,-1,29.002308,22.2025326)" fill="rgb(255,255,255)" stroke="rgb(0,0,0)" stroke-width="0.0010cm" stroke-linecap="round" stroke-linejoin="round" shaper:cutDepth="0" /><path d="M8.707692,17.1984288 a0.29,0.29 0 1,1 0.58,0 a0.29,0.29 0 1,1 -0.58,0z" transform="matrix(1,0,0,-1,29.002308,22.2025326)" fill="rgb(255,255,255)" stroke="rgb(0,0,0)" stroke-width="0.0010cm" stroke-linecap="round" stroke-linejoin="round" shaper:cutDepth="0" /><path d="M17.787692,18.2066364 a0.21,0.21 0 1,1 0.42,0 a0.21,0.21 0 1,1 -0.42,0z" transform="matrix(1,0,0,-1,29.002308,22.2025326)" fill="rgb(255,255,255)" stroke="rgb(0,0,0)" stroke-width="0.0010cm" stroke-linecap="round" stroke-linejoin="round" shaper:cutDepth="0" /><path d="M15.787692,18.2066364 a0.21,0.21 0 1,1 0.42,0 a0.21,0.21 0 1,1 -0.42,0z" transform="matrix(1,0,0,-1,29.002308,22.2025326)" fill="rgb(255,255,255)" stroke="rgb(0,0,0)" stroke-width="0.0010cm" stroke-linecap="round" stroke-linejoin="round" shaper:cutDepth="0" /><path d="M13.787692,18.2066364 a0.21,0.21 0 1,1 0.42,0 a0.21,0.21 0 1,1 -0.42,0z" transform="matrix(1,0,0,-1,29.002308,22.2025326)" fill="rgb(255,255,255)" stroke="rgb(0,0,0)" stroke-width="0.0010cm" stroke-linecap="round" stroke-linejoin="round" shaper:cutDepth="0" /><path d="M11.787692,18.2066364 a0.21,0.21 0 1,1 0.42,0 a0.21,0.21 0 1,1 -0.42,0z" transform="matrix(1,0,0,-1,29.002308,22.2025326)" fill="rgb(255,255,255)" stroke="rgb(0,0,0)" stroke-width="0.0010cm" stroke-linecap="round" stroke-linejoin="round" shaper:cutDepth="0" /><path d="M9.787692,18.2066364 a0.21,0.21 0 1,1 0.42,0 a0.21,0.21 0 1,1 -0.42,0z" transform="matrix(1,0,0,-1,29.002308,22.2025326)" fill="rgb(255,255,255)" stroke="rgb(0,0,0)" stroke-width="0.0010cm" stroke-linecap="round" stroke-linejoin="round" shaper:cutDepth="0" /><path d="M16.707692,19.1984288 a0.29,0.29 0 1,1 0.58,0 a0.29,0.29 0 1,1 -0.58,0z" transform="matrix(1,0,0,-1,29.002308,22.2025326)" fill="rgb(255,255,255)" stroke="rgb(0,0,0)" stroke-width="0.0010cm" stroke-linecap="round" stroke-linejoin="round" shaper:cutDepth="0" /><path d="M14.707692,19.1984288 a0.29,0.29 0 1,1 0.58,0 a0.29,0.29 0 1,1 -0.58,0z" transform="matrix(1,0,0,-1,29.002308,22.2025326)" fill="rgb(255,255,255)" stroke="rgb(0,0,0)" stroke-width="0.0010cm" stroke-linecap="round" stroke-linejoin="round" shaper:cutDepth="0" /><path d="M12.707692,19.1984288 a0.29,0.29 0 1,1 0.58,0 a0.29,0.29 0 1,1 -0.58,0z" transform="matrix(1,0,0,-1,29.002308,22.2025326)" fill="rgb(255,255,255)" stroke="rgb(0,0,0)" stroke-width="0.0010cm" stroke-linecap="round" stroke-linejoin="round" shaper:cutDepth="0" /><path d="M10.707692,19.1984288 a0.29,0.29 0 1,1 0.58,0 a0.29,0.29 0 1,1 -0.58,0z" transform="matrix(1,0,0,-1,29.002308,22.2025326)" fill="rgb(255,255,255)" stroke="rgb(0,0,0)" stroke-width="0.0010cm" stroke-linecap="round" stroke-linejoin="round" shaper:cutDepth="0" /><path d="M-17.292308,19.1984288 a0.29,0.29 0 1,1 0.58,0 a0.29,0.29 0 1,1 -0.58,0z" transform="matrix(1,0,0,-1,29.002308,22.2025326)" fill="rgb(255,255,255)" stroke="rgb(0,0,0)" stroke-width="0.0010cm" stroke-linecap="round" stroke-linejoin="round" shaper:cutDepth="0" /><path d="M-17.292308,9.1984288 a0.29,0.29 0 1,1 0.58,0 a0.29,0.29 0 1,1 -0.58,0z" transform="matrix(1,0,0,-1,29.002308,22.2025326)" fill="rgb(255,255,255)" stroke="rgb(0,0,0)" stroke-width="0.0010cm" stroke-linecap="round" stroke-linejoin="round" shaper:cutDepth="0" /><path d="M8.707692,9.1984288 a0.29,0.29 0 1,1 0.58,0 a0.29,0.29 0 1,1 -0.58,0z" transform="matrix(1,0,0,-1,29.002308,22.2025326)" fill="rgb(255,255,255)" stroke="rgb(0,0,0)" stroke-width="0.0010cm" stroke-linecap="round" stroke-linejoin="round" shaper:cutDepth="0" /><path d="M8.707692,19.1984288 a0.29,0.29 0 1,1 0.58,0 a0.29,0.29 0 1,1 -0.58,0z" transform="matrix(1,0,0,-1,29.002308,22.2025326)" fill="rgb(255,255,255)" stroke="rgb(0,0,0)" stroke-width="0.0010cm" stroke-linecap="round" stroke-linejoin="round" shaper:cutDepth="0" /><path d="M-15.292308,19.1984288 a0.29,0.29 0 1,1 0.58,0 a0.29,0.29 0 1,1 -0.58,0z" transform="matrix(1,0,0,-1,29.002308,22.2025326)" fill="rgb(255,255,255)" stroke="rgb(0,0,0)" stroke-width="0.0010cm" stroke-linecap="round" stroke-linejoin="round" shaper:cutDepth="0" /><path d="M-15.292308,17.1984288 a0.29,0.29 0 1,1 0.58,0 a0.29,0.29 0 1,1 -0.58,0z" transform="matrix(1,0,0,-1,29.002308,22.2025326)" fill="rgb(255,255,255)" stroke="rgb(0,0,0)" stroke-width="0.0010cm" stroke-linecap="round" stroke-linejoin="round" shaper:cutDepth="0" /><path d="M-15.292308,15.1984288 a0.29,0.29 0 1,1 0.58,0 a0.29,0.29 0 1,1 -0.58,0z" transform="matrix(1,0,0,-1,29.002308,22.2025326)" fill="rgb(255,255,255)" stroke="rgb(0,0,0)" stroke-width="0.0010cm" stroke-linecap="round" stroke-linejoin="round" shaper:cutDepth="0" /><path d="M-15.292308,13.1984288 a0.29,0.29 0 1,1 0.58,0 a0.29,0.29 0 1,1 -0.58,0z" transform="matrix(1,0,0,-1,29.002308,22.2025326)" fill="rgb(255,255,255)" stroke="rgb(0,0,0)" stroke-width="0.0010cm" stroke-linecap="round" stroke-linejoin="round" shaper:cutDepth="0" /><path d="M-15.292308,11.1984288 a0.29,0.29 0 1,1 0.58,0 a0.29,0.29 0 1,1 -0.58,0z" transform="matrix(1,0,0,-1,29.002308,22.2025326)" fill="rgb(255,255,255)" stroke="rgb(0,0,0)" stroke-width="0.0010cm" stroke-linecap="round" stroke-linejoin="round" shaper:cutDepth="0" /><path d="M-13.292308,19.1984288 a0.29,0.29 0 1,1 0.58,0 a0.29,0.29 0 1,1 -0.58,0z" transform="matrix(1,0,0,-1,29.002308,22.2025326)" fill="rgb(255,255,255)" stroke="rgb(0,0,0)" stroke-width="0.0010cm" stroke-linecap="round" stroke-linejoin="round" shaper:cutDepth="0" /><path d="M-11.292308,19.1984288 a0.29,0.29 0 1,1 0.58,0 a0.29,0.29 0 1,1 -0.58,0z" transform="matrix(1,0,0,-1,29.002308,22.2025326)" fill="rgb(255,255,255)" stroke="rgb(0,0,0)" stroke-width="0.0010cm" stroke-linecap="round" stroke-linejoin="round" shaper:cutDepth="0" /><path d="M-11.292308,13.1984288 a0.29,0.29 0 1,1 0.58,0 a0.29,0.29 0 1,1 -0.58,0z" transform="matrix(1,0,0,-1,29.002308,22.2025326)" fill="rgb(255,255,255)" stroke="rgb(0,0,0)" stroke-width="0.0010cm" stroke-linecap="round" stroke-linejoin="round" shaper:cutDepth="0" /><path d="M-11.292308,11.1984288 a0.29,0.29 0 1,1 0.58,0 a0.29,0.29 0 1,1 -0.58,0z" transform="matrix(1,0,0,-1,29.002308,22.2025326)" fill="rgb(255,255,255)" stroke="rgb(0,0,0)" stroke-width="0.0010cm" stroke-linecap="round" stroke-linejoin="round" shaper:cutDepth="0" /><path d="M-7.292308,9.1984288 a0.29,0.29 0 1,1 0.58,0 a0.29,0.29 0 1,1 -0.58,0z" transform="matrix(1,0,0,-1,29.002308,22.2025326)" fill="rgb(255,255,255)" stroke="rgb(0,0,0)" stroke-width="0.0010cm" stroke-linecap="round" stroke-linejoin="round" shaper:cutDepth="0" /><path d="M-5.292308,9.1984288 a0.29,0.29 0 1,1 0.58,0 a0.29,0.29 0 1,1 -0.58,0z" transform="matrix(1,0,0,-1,29.002308,22.2025326)" fill="rgb(255,255,255)" stroke="rgb(0,0,0)" stroke-width="0.0010cm" stroke-linecap="round" stroke-linejoin="round" shaper:cutDepth="0" /><path d="M-3.292308,9.1984288 a0.29,0.29 0 1,1 0.58,0 a0.29,0.29 0 1,1 -0.58,0z" transform="matrix(1,0,0,-1,29.002308,22.2025326)" fill="rgb(255,255,255)" stroke="rgb(0,0,0)" stroke-width="0.0010cm" stroke-linecap="round" stroke-linejoin="round" shaper:cutDepth="0" /><path d="M-5.292308,19.1984288 a0.29,0.29 0 1,1 0.58,0 a0.29,0.29 0 1,1 -0.58,0z" transform="matrix(1,0,0,-1,29.002308,22.2025326)" fill="rgb(255,255,255)" stroke="rgb(0,0,0)" stroke-width="0.0010cm" stroke-linecap="round" stroke-linejoin="round" shaper:cutDepth="0" /><path d="M-3.292308,19.1984288 a0.29,0.29 0 1,1 0.58,0 a0.29,0.29 0 1,1 -0.58,0z" transform="matrix(1,0,0,-1,29.002308,22.2025326)" fill="rgb(255,255,255)" stroke="rgb(0,0,0)" stroke-width="0.0010cm" stroke-linecap="round" stroke-linejoin="round" shaper:cutDepth="0" /><path d="M-1.292308,19.1984288 a0.29,0.29 0 1,1 0.58,0 a0.29,0.29 0 1,1 -0.58,0z" transform="matrix(1,0,0,-1,29.002308,22.2025326)" fill="rgb(255,255,255)" stroke="rgb(0,0,0)" stroke-width="0.0010cm" stroke-linecap="round" stroke-linejoin="round" shaper:cutDepth="0" /><path d="M-1.292308,17.1984288 a0.29,0.29 0 1,1 0.58,0 a0.29,0.29 0 1,1 -0.58,0z" transform="matrix(1,0,0,-1,29.002308,22.2025326)" fill="rgb(255,255,255)" stroke="rgb(0,0,0)" stroke-width="0.0010cm" stroke-linecap="round" stroke-linejoin="round" shaper:cutDepth="0" /><path d="M-1.292308,15.1984288 a0.29,0.29 0 1,1 0.58,0 a0.29,0.29 0 1,1 -0.58,0z" transform="matrix(1,0,0,-1,29.002308,22.2025326)" fill="rgb(255,255,255)" stroke="rgb(0,0,0)" stroke-width="0.0010cm" stroke-linecap="round" stroke-linejoin="round" shaper:cutDepth="0" /><path d="M-1.292308,13.1984288 a0.29,0.29 0 1,1 0.58,0 a0.29,0.29 0 1,1 -0.58,0z" transform="matrix(1,0,0,-1,29.002308,22.2025326)" fill="rgb(255,255,255)" stroke="rgb(0,0,0)" stroke-width="0.0010cm" stroke-linecap="round" stroke-linejoin="round" shaper:cutDepth="0" /><path d="M-1.292308,11.1984288 a0.29,0.29 0 1,1 0.58,0 a0.29,0.29 0 1,1 -0.58,0z" transform="matrix(1,0,0,-1,29.002308,22.2025326)" fill="rgb(255,255,255)" stroke="rgb(0,0,0)" stroke-width="0.0010cm" stroke-linecap="round" stroke-linejoin="round" shaper:cutDepth="0" /><path d="M6.707692,9.1984288 a0.29,0.29 0 1,1 0.58,0 a0.29,0.29 0 1,1 -0.58,0z" transform="matrix(1,0,0,-1,29.002308,22.2025326)" fill="rgb(255,255,255)" stroke="rgb(0,0,0)" stroke-width="0.0010cm" stroke-linecap="round" stroke-linejoin="round" shaper:cutDepth="0" /><path d="M-16.212308,20.2066364 a0.21,0.21 0 1,1 0.42,0 a0.21,0.21 0 1,1 -0.42,0z" transform="matrix(1,0,0,-1,29.002308,22.2025326)" fill="rgb(255,255,255)" stroke="rgb(0,0,0)" stroke-width="0.0010cm" stroke-linecap="round" stroke-linejoin="round" shaper:cutDepth="0" /><path d="M-16.212308,18.2066364 a0.21,0.21 0 1,1 0.42,0 a0.21,0.21 0 1,1 -0.42,0z" transform="matrix(1,0,0,-1,29.002308,22.2025326)" fill="rgb(255,255,255)" stroke="rgb(0,0,0)" stroke-width="0.0010cm" stroke-linecap="round" stroke-linejoin="round" shaper:cutDepth="0" /><path d="M-16.212308,16.2066364 a0.21,0.21 0 1,1 0.42,0 a0.21,0.21 0 1,1 -0.42,0z" transform="matrix(1,0,0,-1,29.002308,22.2025326)" fill="rgb(255,255,255)" stroke="rgb(0,0,0)" stroke-width="0.0010cm" stroke-linecap="round" stroke-linejoin="round" shaper:cutDepth="0" /><path d="M-16.212308,14.2066364 a0.21,0.21 0 1,1 0.42,0 a0.21,0.21 0 1,1 -0.42,0z" transform="matrix(1,0,0,-1,29.002308,22.2025326)" fill="rgb(255,255,255)" stroke="rgb(0,0,0)" stroke-width="0.0010cm" stroke-linecap="round" stroke-linejoin="round" shaper:cutDepth="0" /><path d="M-16.212308,12.2066364 a0.21,0.21 0 1,1 0.42,0 a0.21,0.21 0 1,1 -0.42,0z" transform="matrix(1,0,0,-1,29.002308,22.2025326)" fill="rgb(255,255,255)" stroke="rgb(0,0,0)" stroke-width="0.0010cm" stroke-linecap="round" stroke-linejoin="round" shaper:cutDepth="0" /><path d="M-16.212308,10.2066364 a0.21,0.21 0 1,1 0.42,0 a0.21,0.21 0 1,1 -0.42,0z" transform="matrix(1,0,0,-1,29.002308,22.2025326)" fill="rgb(255,255,255)" stroke="rgb(0,0,0)" stroke-width="0.0010cm" stroke-linecap="round" stroke-linejoin="round" shaper:cutDepth="0" /><path d="M-14.212308,8.2066364 a0.21,0.21 0 1,1 0.42,0 a0.21,0.21 0 1,1 -0.42,0z" transform="matrix(1,0,0,-1,29.002308,22.2025326)" fill="rgb(255,255,255)" stroke="rgb(0,0,0)" stroke-width="0.0010cm" stroke-linecap="round" stroke-linejoin="round" shaper:cutDepth="0" /><path d="M-12.212308,18.2066364 a0.21,0.21 0 1,1 0.42,0 a0.21,0.21 0 1,1 -0.42,0z" transform="matrix(1,0,0,-1,29.002308,22.2025326)" fill="rgb(255,255,255)" stroke="rgb(0,0,0)" stroke-width="0.0010cm" stroke-linecap="round" stroke-linejoin="round" shaper:cutDepth="0" /><path d="M-12.212308,14.2066364 a0.21,0.21 0 1,1 0.42,0 a0.21,0.21 0 1,1 -0.42,0z" transform="matrix(1,0,0,-1,29.002308,22.2025326)" fill="rgb(255,255,255)" stroke="rgb(0,0,0)" stroke-width="0.0010cm" stroke-linecap="round" stroke-linejoin="round" shaper:cutDepth="0" /><path d="M-11.292308,15.1984288 a0.29,0.29 0 1,1 0.58,0 a0.29,0.29 0 1,1 -0.58,0z" transform="matrix(1,0,0,-1,29.002308,22.2025326)" fill="rgb(255,255,255)" stroke="rgb(0,0,0)" stroke-width="0.0010cm" stroke-linecap="round" stroke-linejoin="round" shaper:cutDepth="0" /><path d="M-12.212308,10.2066364 a0.21,0.21 0 1,1 0.42,0 a0.21,0.21 0 1,1 -0.42,0z" transform="matrix(1,0,0,-1,29.002308,22.2025326)" fill="rgb(255,255,255)" stroke="rgb(0,0,0)" stroke-width="0.0010cm" stroke-linecap="round" stroke-linejoin="round" shaper:cutDepth="0" /><path d="M-10.212308,8.2066364 a0.21,0.21 0 1,1 0.42,0 a0.21,0.21 0 1,1 -0.42,0z" transform="matrix(1,0,0,-1,29.002308,22.2025326)" fill="rgb(255,255,255)" stroke="rgb(0,0,0)" stroke-width="0.0010cm" stroke-linecap="round" stroke-linejoin="round" shaper:cutDepth="0" /><path d="M-10.212308,12.2066364 a0.21,0.21 0 1,1 0.42,0 a0.21,0.21 0 1,1 -0.42,0z" transform="matrix(1,0,0,-1,29.002308,22.2025326)" fill="rgb(255,255,255)" stroke="rgb(0,0,0)" stroke-width="0.0010cm" stroke-linecap="round" stroke-linejoin="round" shaper:cutDepth="0" /><path d="M-10.212308,16.2066364 a0.21,0.21 0 1,1 0.42,0 a0.21,0.21 0 1,1 -0.42,0z" transform="matrix(1,0,0,-1,29.002308,22.2025326)" fill="rgb(255,255,255)" stroke="rgb(0,0,0)" stroke-width="0.0010cm" stroke-linecap="round" stroke-linejoin="round" shaper:cutDepth="0" /><path d="M-10.212308,20.2066364 a0.21,0.21 0 1,1 0.42,0 a0.21,0.21 0 1,1 -0.42,0z" transform="matrix(1,0,0,-1,29.002308,22.2025326)" fill="rgb(255,255,255)" stroke="rgb(0,0,0)" stroke-width="0.0010cm" stroke-linecap="round" stroke-linejoin="round" shaper:cutDepth="0" /><path d="M-8.212308,18.2066364 a0.21,0.21 0 1,1 0.42,0 a0.21,0.21 0 1,1 -0.42,0z" transform="matrix(1,0,0,-1,29.002308,22.2025326)" fill="rgb(255,255,255)" stroke="rgb(0,0,0)" stroke-width="0.0010cm" stroke-linecap="round" stroke-linejoin="round" shaper:cutDepth="0" /><path d="M-8.212308,14.2066364 a0.21,0.21 0 1,1 0.42,0 a0.21,0.21 0 1,1 -0.42,0z" transform="matrix(1,0,0,-1,29.002308,22.2025326)" fill="rgb(255,255,255)" stroke="rgb(0,0,0)" stroke-width="0.0010cm" stroke-linecap="round" stroke-linejoin="round" shaper:cutDepth="0" /><path d="M-8.212308,10.2066364 a0.21,0.21 0 1,1 0.42,0 a0.21,0.21 0 1,1 -0.42,0z" transform="matrix(1,0,0,-1,29.002308,22.2025326)" fill="rgb(255,255,255)" stroke="rgb(0,0,0)" stroke-width="0.0010cm" stroke-linecap="round" stroke-linejoin="round" shaper:cutDepth="0" /><path d="M-6.212308,8.2066364 a0.21,0.21 0 1,1 0.42,0 a0.21,0.21 0 1,1 -0.42,0z" transform="matrix(1,0,0,-1,29.002308,22.2025326)" fill="rgb(255,255,255)" stroke="rgb(0,0,0)" stroke-width="0.0010cm" stroke-linecap="round" stroke-linejoin="round" shaper:cutDepth="0" /><path d="M-6.212308,12.2066364 a0.21,0.21 0 1,1 0.42,0 a0.21,0.21 0 1,1 -0.42,0z" transform="matrix(1,0,0,-1,29.002308,22.2025326)" fill="rgb(255,255,255)" stroke="rgb(0,0,0)" stroke-width="0.0010cm" stroke-linecap="round" stroke-linejoin="round" shaper:cutDepth="0" /><path d="M-6.212308,16.2066364 a0.21,0.21 0 1,1 0.42,0 a0.21,0.21 0 1,1 -0.42,0z" transform="matrix(1,0,0,-1,29.002308,22.2025326)" fill="rgb(255,255,255)" stroke="rgb(0,0,0)" stroke-width="0.0010cm" stroke-linecap="round" stroke-linejoin="round" shaper:cutDepth="0" /><path d="M-6.212308,20.2066364 a0.21,0.21 0 1,1 0.42,0 a0.21,0.21 0 1,1 -0.42,0z" transform="matrix(1,0,0,-1,29.002308,22.2025326)" fill="rgb(255,255,255)" stroke="rgb(0,0,0)" stroke-width="0.0010cm" stroke-linecap="round" stroke-linejoin="round" shaper:cutDepth="0" /><path d="M-4.212308,8.2066364 a0.21,0.21 0 1,1 0.42,0 a0.21,0.21 0 1,1 -0.42,0z" transform="matrix(1,0,0,-1,29.002308,22.2025326)" fill="rgb(255,255,255)" stroke="rgb(0,0,0)" stroke-width="0.0010cm" stroke-linecap="round" stroke-linejoin="round" shaper:cutDepth="0" /><path d="M-2.212308,10.2066364 a0.21,0.21 0 1,1 0.42,0 a0.21,0.21 0 1,1 -0.42,0z" transform="matrix(1,0,0,-1,29.002308,22.2025326)" fill="rgb(255,255,255)" stroke="rgb(0,0,0)" stroke-width="0.0010cm" stroke-linecap="round" stroke-linejoin="round" shaper:cutDepth="0" /><path d="M-2.212308,14.2066364 a0.21,0.21 0 1,1 0.42,0 a0.21,0.21 0 1,1 -0.42,0z" transform="matrix(1,0,0,-1,29.002308,22.2025326)" fill="rgb(255,255,255)" stroke="rgb(0,0,0)" stroke-width="0.0010cm" stroke-linecap="round" stroke-linejoin="round" shaper:cutDepth="0" /><path d="M-2.212308,18.2066364 a0.21,0.21 0 1,1 0.42,0 a0.21,0.21 0 1,1 -0.42,0z" transform="matrix(1,0,0,-1,29.002308,22.2025326)" fill="rgb(255,255,255)" stroke="rgb(0,0,0)" stroke-width="0.0010cm" stroke-linecap="round" stroke-linejoin="round" shaper:cutDepth="0" /><path d="M-0.212308,20.2066364 a0.21,0.21 0 1,1 0.42,0 a0.21,0.21 0 1,1 -0.42,0z" transform="matrix(1,0,0,-1,29.002308,22.2025326)" fill="rgb(255,255,255)" stroke="rgb(0,0,0)" stroke-width="0.0010cm" stroke-linecap="round" stroke-linejoin="round" shaper:cutDepth="0" /><path d="M-0.212308,16.2066364 a0.21,0.21 0 1,1 0.42,0 a0.21,0.21 0 1,1 -0.42,0z" transform="matrix(1,0,0,-1,29.002308,22.2025326)" fill="rgb(255,255,255)" stroke="rgb(0,0,0)" stroke-width="0.0010cm" stroke-linecap="round" stroke-linejoin="round" shaper:cutDepth="0" /><path d="M-0.212308,12.2066364 a0.21,0.21 0 1,1 0.42,0 a0.21,0.21 0 1,1 -0.42,0z" transform="matrix(1,0,0,-1,29.002308,22.2025326)" fill="rgb(255,255,255)" stroke="rgb(0,0,0)" stroke-width="0.0010cm" stroke-linecap="round" stroke-linejoin="round" shaper:cutDepth="0" /><path d="M-0.212308,8.2066364 a0.21,0.21 0 1,1 0.42,0 a0.21,0.21 0 1,1 -0.42,0z" transform="matrix(1,0,0,-1,29.002308,22.2025326)" fill="rgb(255,255,255)" stroke="rgb(0,0,0)" stroke-width="0.0010cm" stroke-linecap="round" stroke-linejoin="round" shaper:cutDepth="0" /><path d="M1.787692,10.2066364 a0.21,0.21 0 1,1 0.42,0 a0.21,0.21 0 1,1 -0.42,0z" transform="matrix(1,0,0,-1,29.002308,22.2025326)" fill="rgb(255,255,255)" stroke="rgb(0,0,0)" stroke-width="0.0010cm" stroke-linecap="round" stroke-linejoin="round" shaper:cutDepth="0" /><path d="M1.787692,12.2066364 a0.21,0.21 0 1,1 0.42,0 a0.21,0.21 0 1,1 -0.42,0z" transform="matrix(1,0,0,-1,29.002308,22.2025326)" fill="rgb(255,255,255)" stroke="rgb(0,0,0)" stroke-width="0.0010cm" stroke-linecap="round" stroke-linejoin="round" shaper:cutDepth="0" /><path d="M1.787692,14.2066364 a0.21,0.21 0 1,1 0.42,0 a0.21,0.21 0 1,1 -0.42,0z" transform="matrix(1,0,0,-1,29.002308,22.2025326)" fill="rgb(255,255,255)" stroke="rgb(0,0,0)" stroke-width="0.0010cm" stroke-linecap="round" stroke-linejoin="round" shaper:cutDepth="0" /><path d="M3.787692,16.2066364 a0.21,0.21 0 1,1 0.42,0 a0.21,0.21 0 1,1 -0.42,0z" transform="matrix(1,0,0,-1,29.002308,22.2025326)" fill="rgb(255,255,255)" stroke="rgb(0,0,0)" stroke-width="0.0010cm" stroke-linecap="round" stroke-linejoin="round" shaper:cutDepth="0" /><path d="M1.787692,18.2066364 a0.21,0.21 0 1,1 0.42,0 a0.21,0.21 0 1,1 -0.42,0z" transform="matrix(1,0,0,-1,29.002308,22.2025326)" fill="rgb(255,255,255)" stroke="rgb(0,0,0)" stroke-width="0.0010cm" stroke-linecap="round" stroke-linejoin="round" shaper:cutDepth="0" /><path d="M3.787692,20.2066364 a0.21,0.21 0 1,1 0.42,0 a0.21,0.21 0 1,1 -0.42,0z" transform="matrix(1,0,0,-1,29.002308,22.2025326)" fill="rgb(255,255,255)" stroke="rgb(0,0,0)" stroke-width="0.0010cm" stroke-linecap="round" stroke-linejoin="round" shaper:cutDepth="0" /><path d="M7.787692,20.2066364 a0.21,0.21 0 1,1 0.42,0 a0.21,0.21 0 1,1 -0.42,0z" transform="matrix(1,0,0,-1,29.002308,22.2025326)" fill="rgb(255,255,255)" stroke="rgb(0,0,0)" stroke-width="0.0010cm" stroke-linecap="round" stroke-linejoin="round" shaper:cutDepth="0" /><path d="M5.787692,18.2066364 a0.21,0.21 0 1,1 0.42,0 a0.21,0.21 0 1,1 -0.42,0z" transform="matrix(1,0,0,-1,29.002308,22.2025326)" fill="rgb(255,255,255)" stroke="rgb(0,0,0)" stroke-width="0.0010cm" stroke-linecap="round" stroke-linejoin="round" shaper:cutDepth="0" /><path d="M7.787692,16.2066364 a0.21,0.21 0 1,1 0.42,0 a0.21,0.21 0 1,1 -0.42,0z" transform="matrix(1,0,0,-1,29.002308,22.2025326)" fill="rgb(255,255,255)" stroke="rgb(0,0,0)" stroke-width="0.0010cm" stroke-linecap="round" stroke-linejoin="round" shaper:cutDepth="0" /><path d="M5.787692,14.2066364 a0.21,0.21 0 1,1 0.42,0 a0.21,0.21 0 1,1 -0.42,0z" transform="matrix(1,0,0,-1,29.002308,22.2025326)" fill="rgb(255,255,255)" stroke="rgb(0,0,0)" stroke-width="0.0010cm" stroke-linecap="round" stroke-linejoin="round" shaper:cutDepth="0" /><path d="M5.787692,12.2066364 a0.21,0.21 0 1,1 0.42,0 a0.21,0.21 0 1,1 -0.42,0z" transform="matrix(1,0,0,-1,29.002308,22.2025326)" fill="rgb(255,255,255)" stroke="rgb(0,0,0)" stroke-width="0.0010cm" stroke-linecap="round" stroke-linejoin="round" shaper:cutDepth="0" /><path d="M7.787692,8.2066364 a0.21,0.21 0 1,1 0.42,0 a0.21,0.21 0 1,1 -0.42,0z" transform="matrix(1,0,0,-1,29.002308,22.2025326)" fill="rgb(255,255,255)" stroke="rgb(0,0,0)" stroke-width="0.0010cm" stroke-linecap="round" stroke-linejoin="round" shaper:cutDepth="0" /><path d="M7.787692,10.2066364 a0.21,0.21 0 1,1 0.42,0 a0.21,0.21 0 1,1 -0.42,0z" transform="matrix(1,0,0,-1,29.002308,22.2025326)" fill="rgb(255,255,255)" stroke="rgb(0,0,0)" stroke-width="0.0010cm" stroke-linecap="round" stroke-linejoin="round" shaper:cutDepth="0" /><path d="M5.787692,8.2066364 a0.21,0.21 0 1,1 0.42,0 a0.21,0.21 0 1,1 -0.42,0z" transform="matrix(1,0,0,-1,29.002308,22.2025326)" fill="rgb(255,255,255)" stroke="rgb(0,0,0)" stroke-width="0.0010cm" stroke-linecap="round" stroke-linejoin="round" shaper:cutDepth="0" /><path d="M5.787692,10.2066364 a0.21,0.21 0 1,1 0.42,0 a0.21,0.21 0 1,1 -0.42,0z" transform="matrix(1,0,0,-1,29.002308,22.2025326)" fill="rgb(255,255,255)" stroke="rgb(0,0,0)" stroke-width="0.0010cm" stroke-linecap="round" stroke-linejoin="round" shaper:cutDepth="0" /><path d="M3.787692,10.2066364 a0.21,0.21 0 1,1 0.42,0 a0.21,0.21 0 1,1 -0.42,0z" transform="matrix(1,0,0,-1,29.002308,22.2025326)" fill="rgb(255,255,255)" stroke="rgb(0,0,0)" stroke-width="0.0010cm" stroke-linecap="round" stroke-linejoin="round" shaper:cutDepth="0" /><path d="M3.787692,8.2066364 a0.21,0.21 0 1,1 0.42,0 a0.21,0.21 0 1,1 -0.42,0z" transform="matrix(1,0,0,-1,29.002308,22.2025326)" fill="rgb(255,255,255)" stroke="rgb(0,0,0)" stroke-width="0.0010cm" stroke-linecap="round" stroke-linejoin="round" shaper:cutDepth="0" /><path d="M7.787692,12.2066364 a0.21,0.21 0 1,1 0.42,0 a0.21,0.21 0 1,1 -0.42,0z" transform="matrix(1,0,0,-1,29.002308,22.2025326)" fill="rgb(255,255,255)" stroke="rgb(0,0,0)" stroke-width="0.0010cm" stroke-linecap="round" stroke-linejoin="round" shaper:cutDepth="0" /><path d="M7.787692,14.2066364 a0.21,0.21 0 1,1 0.42,0 a0.21,0.21 0 1,1 -0.42,0z" transform="matrix(1,0,0,-1,29.002308,22.2025326)" fill="rgb(255,255,255)" stroke="rgb(0,0,0)" stroke-width="0.0010cm" stroke-linecap="round" stroke-linejoin="round" shaper:cutDepth="0" /><path d="M5.787692,16.2066364 a0.21,0.21 0 1,1 0.42,0 a0.21,0.21 0 1,1 -0.42,0z" transform="matrix(1,0,0,-1,29.002308,22.2025326)" fill="rgb(255,255,255)" stroke="rgb(0,0,0)" stroke-width="0.0010cm" stroke-linecap="round" stroke-linejoin="round" shaper:cutDepth="0" /><path d="M7.787692,18.2066364 a0.21,0.21 0 1,1 0.42,0 a0.21,0.21 0 1,1 -0.42,0z" transform="matrix(1,0,0,-1,29.002308,22.2025326)" fill="rgb(255,255,255)" stroke="rgb(0,0,0)" stroke-width="0.0010cm" stroke-linecap="round" stroke-linejoin="round" shaper:cutDepth="0" /><path d="M5.787692,20.2066364 a0.21,0.21 0 1,1 0.42,0 a0.21,0.21 0 1,1 -0.42,0z" transform="matrix(1,0,0,-1,29.002308,22.2025326)" fill="rgb(255,255,255)" stroke="rgb(0,0,0)" stroke-width="0.0010cm" stroke-linecap="round" stroke-linejoin="round" shaper:cutDepth="0" /><path d="M1.787692,20.2066364 a0.21,0.21 0 1,1 0.42,0 a0.21,0.21 0 1,1 -0.42,0z" transform="matrix(1,0,0,-1,29.002308,22.2025326)" fill="rgb(255,255,255)" stroke="rgb(0,0,0)" stroke-width="0.0010cm" stroke-linecap="round" stroke-linejoin="round" shaper:cutDepth="0" /><path d="M3.787692,18.2066364 a0.21,0.21 0 1,1 0.42,0 a0.21,0.21 0 1,1 -0.42,0z" transform="matrix(1,0,0,-1,29.002308,22.2025326)" fill="rgb(255,255,255)" stroke="rgb(0,0,0)" stroke-width="0.0010cm" stroke-linecap="round" stroke-linejoin="round" shaper:cutDepth="0" /><path d="M1.787692,16.2066364 a0.21,0.21 0 1,1 0.42,0 a0.21,0.21 0 1,1 -0.42,0z" transform="matrix(1,0,0,-1,29.002308,22.2025326)" fill="rgb(255,255,255)" stroke="rgb(0,0,0)" stroke-width="0.0010cm" stroke-linecap="round" stroke-linejoin="round" shaper:cutDepth="0" /><path d="M3.787692,14.2066364 a0.21,0.21 0 1,1 0.42,0 a0.21,0.21 0 1,1 -0.42,0z" transform="matrix(1,0,0,-1,29.002308,22.2025326)" fill="rgb(255,255,255)" stroke="rgb(0,0,0)" stroke-width="0.0010cm" stroke-linecap="round" stroke-linejoin="round" shaper:cutDepth="0" /><path d="M3.787692,12.2066364 a0.21,0.21 0 1,1 0.42,0 a0.21,0.21 0 1,1 -0.42,0z" transform="matrix(1,0,0,-1,29.002308,22.2025326)" fill="rgb(255,255,255)" stroke="rgb(0,0,0)" stroke-width="0.0010cm" stroke-linecap="round" stroke-linejoin="round" shaper:cutDepth="0" /><path d="M1.787692,8.2066364 a0.21,0.21 0 1,1 0.42,0 a0.21,0.21 0 1,1 -0.42,0z" transform="matrix(1,0,0,-1,29.002308,22.2025326)" fill="rgb(255,255,255)" stroke="rgb(0,0,0)" stroke-width="0.0010cm" stroke-linecap="round" stroke-linejoin="round" shaper:cutDepth="0" /><path d="M-0.212308,10.2066364 a0.21,0.21 0 1,1 0.42,0 a0.21,0.21 0 1,1 -0.42,0z" transform="matrix(1,0,0,-1,29.002308,22.2025326)" fill="rgb(255,255,255)" stroke="rgb(0,0,0)" stroke-width="0.0010cm" stroke-linecap="round" stroke-linejoin="round" shaper:cutDepth="0" /><path d="M-0.212308,14.2066364 a0.21,0.21 0 1,1 0.42,0 a0.21,0.21 0 1,1 -0.42,0z" transform="matrix(1,0,0,-1,29.002308,22.2025326)" fill="rgb(255,255,255)" stroke="rgb(0,0,0)" stroke-width="0.0010cm" stroke-linecap="round" stroke-linejoin="round" shaper:cutDepth="0" /><path d="M-0.212308,18.2066364 a0.21,0.21 0 1,1 0.42,0 a0.21,0.21 0 1,1 -0.42,0z" transform="matrix(1,0,0,-1,29.002308,22.2025326)" fill="rgb(255,255,255)" stroke="rgb(0,0,0)" stroke-width="0.0010cm" stroke-linecap="round" stroke-linejoin="round" shaper:cutDepth="0" /><path d="M-2.212308,20.2066364 a0.21,0.21 0 1,1 0.42,0 a0.21,0.21 0 1,1 -0.42,0z" transform="matrix(1,0,0,-1,29.002308,22.2025326)" fill="rgb(255,255,255)" stroke="rgb(0,0,0)" stroke-width="0.0010cm" stroke-linecap="round" stroke-linejoin="round" shaper:cutDepth="0" /><path d="M-2.212308,16.2066364 a0.21,0.21 0 1,1 0.42,0 a0.21,0.21 0 1,1 -0.42,0z" transform="matrix(1,0,0,-1,29.002308,22.2025326)" fill="rgb(255,255,255)" stroke="rgb(0,0,0)" stroke-width="0.0010cm" stroke-linecap="round" stroke-linejoin="round" shaper:cutDepth="0" /><path d="M-2.212308,12.2066364 a0.21,0.21 0 1,1 0.42,0 a0.21,0.21 0 1,1 -0.42,0z" transform="matrix(1,0,0,-1,29.002308,22.2025326)" fill="rgb(255,255,255)" stroke="rgb(0,0,0)" stroke-width="0.0010cm" stroke-linecap="round" stroke-linejoin="round" shaper:cutDepth="0" /><path d="M-2.212308,8.2066364 a0.21,0.21 0 1,1 0.42,0 a0.21,0.21 0 1,1 -0.42,0z" transform="matrix(1,0,0,-1,29.002308,22.2025326)" fill="rgb(255,255,255)" stroke="rgb(0,0,0)" stroke-width="0.0010cm" stroke-linecap="round" stroke-linejoin="round" shaper:cutDepth="0" /><path d="M-4.212308,20.2066364 a0.21,0.21 0 1,1 0.42,0 a0.21,0.21 0 1,1 -0.42,0z" transform="matrix(1,0,0,-1,29.002308,22.2025326)" fill="rgb(255,255,255)" stroke="rgb(0,0,0)" stroke-width="0.0010cm" stroke-linecap="round" stroke-linejoin="round" shaper:cutDepth="0" /><path d="M-6.212308,18.2066364 a0.21,0.21 0 1,1 0.42,0 a0.21,0.21 0 1,1 -0.42,0z" transform="matrix(1,0,0,-1,29.002308,22.2025326)" fill="rgb(255,255,255)" stroke="rgb(0,0,0)" stroke-width="0.0010cm" stroke-linecap="round" stroke-linejoin="round" shaper:cutDepth="0" /><path d="M-6.212308,14.2066364 a0.21,0.21 0 1,1 0.42,0 a0.21,0.21 0 1,1 -0.42,0z" transform="matrix(1,0,0,-1,29.002308,22.2025326)" fill="rgb(255,255,255)" stroke="rgb(0,0,0)" stroke-width="0.0010cm" stroke-linecap="round" stroke-linejoin="round" shaper:cutDepth="0" /><path d="M-6.212308,10.2066364 a0.21,0.21 0 1,1 0.42,0 a0.21,0.21 0 1,1 -0.42,0z" transform="matrix(1,0,0,-1,29.002308,22.2025326)" fill="rgb(255,255,255)" stroke="rgb(0,0,0)" stroke-width="0.0010cm" stroke-linecap="round" stroke-linejoin="round" shaper:cutDepth="0" /><path d="M-8.212308,8.2066364 a0.21,0.21 0 1,1 0.42,0 a0.21,0.21 0 1,1 -0.42,0z" transform="matrix(1,0,0,-1,29.002308,22.2025326)" fill="rgb(255,255,255)" stroke="rgb(0,0,0)" stroke-width="0.0010cm" stroke-linecap="round" stroke-linejoin="round" shaper:cutDepth="0" /><path d="M-8.212308,12.2066364 a0.21,0.21 0 1,1 0.42,0 a0.21,0.21 0 1,1 -0.42,0z" transform="matrix(1,0,0,-1,29.002308,22.2025326)" fill="rgb(255,255,255)" stroke="rgb(0,0,0)" stroke-width="0.0010cm" stroke-linecap="round" stroke-linejoin="round" shaper:cutDepth="0" /><path d="M-8.212308,16.2066364 a0.21,0.21 0 1,1 0.42,0 a0.21,0.21 0 1,1 -0.42,0z" transform="matrix(1,0,0,-1,29.002308,22.2025326)" fill="rgb(255,255,255)" stroke="rgb(0,0,0)" stroke-width="0.0010cm" stroke-linecap="round" stroke-linejoin="round" shaper:cutDepth="0" /><path d="M-8.212308,20.2066364 a0.21,0.21 0 1,1 0.42,0 a0.21,0.21 0 1,1 -0.42,0z" transform="matrix(1,0,0,-1,29.002308,22.2025326)" fill="rgb(255,255,255)" stroke="rgb(0,0,0)" stroke-width="0.0010cm" stroke-linecap="round" stroke-linejoin="round" shaper:cutDepth="0" /><path d="M-10.212308,18.2066364 a0.21,0.21 0 1,1 0.42,0 a0.21,0.21 0 1,1 -0.42,0z" transform="matrix(1,0,0,-1,29.002308,22.2025326)" fill="rgb(255,255,255)" stroke="rgb(0,0,0)" stroke-width="0.0010cm" stroke-linecap="round" stroke-linejoin="round" shaper:cutDepth="0" /><path d="M-10.212308,14.2066364 a0.21,0.21 0 1,1 0.42,0 a0.21,0.21 0 1,1 -0.42,0z" transform="matrix(1,0,0,-1,29.002308,22.2025326)" fill="rgb(255,255,255)" stroke="rgb(0,0,0)" stroke-width="0.0010cm" stroke-linecap="round" stroke-linejoin="round" shaper:cutDepth="0" /><path d="M-10.212308,10.2066364 a0.21,0.21 0 1,1 0.42,0 a0.21,0.21 0 1,1 -0.42,0z" transform="matrix(1,0,0,-1,29.002308,22.2025326)" fill="rgb(255,255,255)" stroke="rgb(0,0,0)" stroke-width="0.0010cm" stroke-linecap="round" stroke-linejoin="round" shaper:cutDepth="0" /><path d="M-12.212308,8.2066364 a0.21,0.21 0 1,1 0.42,0 a0.21,0.21 0 1,1 -0.42,0z" transform="matrix(1,0,0,-1,29.002308,22.2025326)" fill="rgb(255,255,255)" stroke="rgb(0,0,0)" stroke-width="0.0010cm" stroke-linecap="round" stroke-linejoin="round" shaper:cutDepth="0" /><path d="M-12.212308,12.2066364 a0.21,0.21 0 1,1 0.42,0 a0.21,0.21 0 1,1 -0.42,0z" transform="matrix(1,0,0,-1,29.002308,22.2025326)" fill="rgb(255,255,255)" stroke="rgb(0,0,0)" stroke-width="0.0010cm" stroke-linecap="round" stroke-linejoin="round" shaper:cutDepth="0" /><path d="M-11.292308,17.1984288 a0.29,0.29 0 1,1 0.58,0 a0.29,0.29 0 1,1 -0.58,0z" transform="matrix(1,0,0,-1,29.002308,22.2025326)" fill="rgb(255,255,255)" stroke="rgb(0,0,0)" stroke-width="0.0010cm" stroke-linecap="round" stroke-linejoin="round" shaper:cutDepth="0" /><path d="M-12.212308,16.2066364 a0.21,0.21 0 1,1 0.42,0 a0.21,0.21 0 1,1 -0.42,0z" transform="matrix(1,0,0,-1,29.002308,22.2025326)" fill="rgb(255,255,255)" stroke="rgb(0,0,0)" stroke-width="0.0010cm" stroke-linecap="round" stroke-linejoin="round" shaper:cutDepth="0" /><path d="M-12.212308,20.2066364 a0.21,0.21 0 1,1 0.42,0 a0.21,0.21 0 1,1 -0.42,0z" transform="matrix(1,0,0,-1,29.002308,22.2025326)" fill="rgb(255,255,255)" stroke="rgb(0,0,0)" stroke-width="0.0010cm" stroke-linecap="round" stroke-linejoin="round" shaper:cutDepth="0" /><path d="M-16.212308,8.2066364 a0.21,0.21 0 1,1 0.42,0 a0.21,0.21 0 1,1 -0.42,0z" transform="matrix(1,0,0,-1,29.002308,22.2025326)" fill="rgb(255,255,255)" stroke="rgb(0,0,0)" stroke-width="0.0010cm" stroke-linecap="round" stroke-linejoin="round" shaper:cutDepth="0" /><path d="M-14.212308,10.2066364 a0.21,0.21 0 1,1 0.42,0 a0.21,0.21 0 1,1 -0.42,0z" transform="matrix(1,0,0,-1,29.002308,22.2025326)" fill="rgb(255,255,255)" stroke="rgb(0,0,0)" stroke-width="0.0010cm" stroke-linecap="round" stroke-linejoin="round" shaper:cutDepth="0" /><path d="M-14.212308,12.2066364 a0.21,0.21 0 1,1 0.42,0 a0.21,0.21 0 1,1 -0.42,0z" transform="matrix(1,0,0,-1,29.002308,22.2025326)" fill="rgb(255,255,255)" stroke="rgb(0,0,0)" stroke-width="0.0010cm" stroke-linecap="round" stroke-linejoin="round" shaper:cutDepth="0" /><path d="M-14.212308,14.2066364 a0.21,0.21 0 1,1 0.42,0 a0.21,0.21 0 1,1 -0.42,0z" transform="matrix(1,0,0,-1,29.002308,22.2025326)" fill="rgb(255,255,255)" stroke="rgb(0,0,0)" stroke-width="0.0010cm" stroke-linecap="round" stroke-linejoin="round" shaper:cutDepth="0" /><path d="M-14.212308,16.2066364 a0.21,0.21 0 1,1 0.42,0 a0.21,0.21 0 1,1 -0.42,0z" transform="matrix(1,0,0,-1,29.002308,22.2025326)" fill="rgb(255,255,255)" stroke="rgb(0,0,0)" stroke-width="0.0010cm" stroke-linecap="round" stroke-linejoin="round" shaper:cutDepth="0" /><path d="M-14.212308,18.2066364 a0.21,0.21 0 1,1 0.42,0 a0.21,0.21 0 1,1 -0.42,0z" transform="matrix(1,0,0,-1,29.002308,22.2025326)" fill="rgb(255,255,255)" stroke="rgb(0,0,0)" stroke-width="0.0010cm" stroke-linecap="round" stroke-linejoin="round" shaper:cutDepth="0" /><path d="M-14.212308,20.2066364 a0.21,0.21 0 1,1 0.42,0 a0.21,0.21 0 1,1 -0.42,0z" transform="matrix(1,0,0,-1,29.002308,22.2025326)" fill="rgb(255,255,255)" stroke="rgb(0,0,0)" stroke-width="0.0010cm" stroke-linecap="round" stroke-linejoin="round" shaper:cutDepth="0" /><path d="M6.707692,11.1984288 a0.29,0.29 0 1,1 0.58,0 a0.29,0.29 0 1,1 -0.58,0z" transform="matrix(1,0,0,-1,29.002308,22.2025326)" fill="rgb(255,255,255)" stroke="rgb(0,0,0)" stroke-width="0.0010cm" stroke-linecap="round" stroke-linejoin="round" shaper:cutDepth="0" /><path d="M6.707692,13.1984288 a0.29,0.29 0 1,1 0.58,0 a0.29,0.29 0 1,1 -0.58,0z" transform="matrix(1,0,0,-1,29.002308,22.2025326)" fill="rgb(255,255,255)" stroke="rgb(0,0,0)" stroke-width="0.0010cm" stroke-linecap="round" stroke-linejoin="round" shaper:cutDepth="0" /><path d="M6.707692,15.1984288 a0.29,0.29 0 1,1 0.58,0 a0.29,0.29 0 1,1 -0.58,0z" transform="matrix(1,0,0,-1,29.002308,22.2025326)" fill="rgb(255,255,255)" stroke="rgb(0,0,0)" stroke-width="0.0010cm" stroke-linecap="round" stroke-linejoin="round" shaper:cutDepth="0" /><path d="M6.707692,17.1984288 a0.29,0.29 0 1,1 0.58,0 a0.29,0.29 0 1,1 -0.58,0z" transform="matrix(1,0,0,-1,29.002308,22.2025326)" fill="rgb(255,255,255)" stroke="rgb(0,0,0)" stroke-width="0.0010cm" stroke-linecap="round" stroke-linejoin="round" shaper:cutDepth="0" /><path d="M6.707692,19.1984288 a0.29,0.29 0 1,1 0.58,0 a0.29,0.29 0 1,1 -0.58,0z" transform="matrix(1,0,0,-1,29.002308,22.2025326)" fill="rgb(255,255,255)" stroke="rgb(0,0,0)" stroke-width="0.0010cm" stroke-linecap="round" stroke-linejoin="round" shaper:cutDepth="0" /><path d="M4.707692,17.1984288 a0.29,0.29 0 1,1 0.58,0 a0.29,0.29 0 1,1 -0.58,0z" transform="matrix(1,0,0,-1,29.002308,22.2025326)" fill="rgb(255,255,255)" stroke="rgb(0,0,0)" stroke-width="0.0010cm" stroke-linecap="round" stroke-linejoin="round" shaper:cutDepth="0" /><path d="M4.707692,19.1984288 a0.29,0.29 0 1,1 0.58,0 a0.29,0.29 0 1,1 -0.58,0z" transform="matrix(1,0,0,-1,29.002308,22.2025326)" fill="rgb(255,255,255)" stroke="rgb(0,0,0)" stroke-width="0.0010cm" stroke-linecap="round" stroke-linejoin="round" shaper:cutDepth="0" /><path d="M4.707692,15.1984288 a0.29,0.29 0 1,1 0.58,0 a0.29,0.29 0 1,1 -0.58,0z" transform="matrix(1,0,0,-1,29.002308,22.2025326)" fill="rgb(255,255,255)" stroke="rgb(0,0,0)" stroke-width="0.0010cm" stroke-linecap="round" stroke-linejoin="round" shaper:cutDepth="0" /><path d="M4.707692,13.1984288 a0.29,0.29 0 1,1 0.58,0 a0.29,0.29 0 1,1 -0.58,0z" transform="matrix(1,0,0,-1,29.002308,22.2025326)" fill="rgb(255,255,255)" stroke="rgb(0,0,0)" stroke-width="0.0010cm" stroke-linecap="round" stroke-linejoin="round" shaper:cutDepth="0" /><path d="M4.707692,11.1984288 a0.29,0.29 0 1,1 0.58,0 a0.29,0.29 0 1,1 -0.58,0z" transform="matrix(1,0,0,-1,29.002308,22.2025326)" fill="rgb(255,255,255)" stroke="rgb(0,0,0)" stroke-width="0.0010cm" stroke-linecap="round" stroke-linejoin="round" shaper:cutDepth="0" /><path d="M4.707692,9.1984288 a0.29,0.29 0 1,1 0.58,0 a0.29,0.29 0 1,1 -0.58,0z" transform="matrix(1,0,0,-1,29.002308,22.2025326)" fill="rgb(255,255,255)" stroke="rgb(0,0,0)" stroke-width="0.0010cm" stroke-linecap="round" stroke-linejoin="round" shaper:cutDepth="0" /><path d="M2.707692,9.1984288 a0.29,0.29 0 1,1 0.58,0 a0.29,0.29 0 1,1 -0.58,0z" transform="matrix(1,0,0,-1,29.002308,22.2025326)" fill="rgb(255,255,255)" stroke="rgb(0,0,0)" stroke-width="0.0010cm" stroke-linecap="round" stroke-linejoin="round" shaper:cutDepth="0" /><path d="M2.707692,11.1984288 a0.29,0.29 0 1,1 0.58,0 a0.29,0.29 0 1,1 -0.58,0z" transform="matrix(1,0,0,-1,29.002308,22.2025326)" fill="rgb(255,255,255)" stroke="rgb(0,0,0)" stroke-width="0.0010cm" stroke-linecap="round" stroke-linejoin="round" shaper:cutDepth="0" /><path d="M2.707692,13.1984288 a0.29,0.29 0 1,1 0.58,0 a0.29,0.29 0 1,1 -0.58,0z" transform="matrix(1,0,0,-1,29.002308,22.2025326)" fill="rgb(255,255,255)" stroke="rgb(0,0,0)" stroke-width="0.0010cm" stroke-linecap="round" stroke-linejoin="round" shaper:cutDepth="0" /><path d="M2.707692,15.1984288 a0.29,0.29 0 1,1 0.58,0 a0.29,0.29 0 1,1 -0.58,0z" transform="matrix(1,0,0,-1,29.002308,22.2025326)" fill="rgb(255,255,255)" stroke="rgb(0,0,0)" stroke-width="0.0010cm" stroke-linecap="round" stroke-linejoin="round" shaper:cutDepth="0" /><path d="M2.707692,17.1984288 a0.29,0.29 0 1,1 0.58,0 a0.29,0.29 0 1,1 -0.58,0z" transform="matrix(1,0,0,-1,29.002308,22.2025326)" fill="rgb(255,255,255)" stroke="rgb(0,0,0)" stroke-width="0.0010cm" stroke-linecap="round" stroke-linejoin="round" shaper:cutDepth="0" /><path d="M2.707692,19.1984288 a0.29,0.29 0 1,1 0.58,0 a0.29,0.29 0 1,1 -0.58,0z" transform="matrix(1,0,0,-1,29.002308,22.2025326)" fill="rgb(255,255,255)" stroke="rgb(0,0,0)" stroke-width="0.0010cm" stroke-linecap="round" stroke-linejoin="round" shaper:cutDepth="0" /><path d="M0.707692,19.1984288 a0.29,0.29 0 1,1 0.58,0 a0.29,0.29 0 1,1 -0.58,0z" transform="matrix(1,0,0,-1,29.002308,22.2025326)" fill="rgb(255,255,255)" stroke="rgb(0,0,0)" stroke-width="0.0010cm" stroke-linecap="round" stroke-linejoin="round" shaper:cutDepth="0" /><path d="M0.707692,17.1984288 a0.29,0.29 0 1,1 0.58,0 a0.29,0.29 0 1,1 -0.58,0z" transform="matrix(1,0,0,-1,29.002308,22.2025326)" fill="rgb(255,255,255)" stroke="rgb(0,0,0)" stroke-width="0.0010cm" stroke-linecap="round" stroke-linejoin="round" shaper:cutDepth="0" /><path d="M0.707692,15.1984288 a0.29,0.29 0 1,1 0.58,0 a0.29,0.29 0 1,1 -0.58,0z" transform="matrix(1,0,0,-1,29.002308,22.2025326)" fill="rgb(255,255,255)" stroke="rgb(0,0,0)" stroke-width="0.0010cm" stroke-linecap="round" stroke-linejoin="round" shaper:cutDepth="0" /><path d="M0.707692,13.1984288 a0.29,0.29 0 1,1 0.58,0 a0.29,0.29 0 1,1 -0.58,0z" transform="matrix(1,0,0,-1,29.002308,22.2025326)" fill="rgb(255,255,255)" stroke="rgb(0,0,0)" stroke-width="0.0010cm" stroke-linecap="round" stroke-linejoin="round" shaper:cutDepth="0" /><path d="M0.707692,11.1984288 a0.29,0.29 0 1,1 0.58,0 a0.29,0.29 0 1,1 -0.58,0z" transform="matrix(1,0,0,-1,29.002308,22.2025326)" fill="rgb(255,255,255)" stroke="rgb(0,0,0)" stroke-width="0.0010cm" stroke-linecap="round" stroke-linejoin="round" shaper:cutDepth="0" /><path d="M0.707692,9.1984288 a0.29,0.29 0 1,1 0.58,0 a0.29,0.29 0 1,1 -0.58,0z" transform="matrix(1,0,0,-1,29.002308,22.2025326)" fill="rgb(255,255,255)" stroke="rgb(0,0,0)" stroke-width="0.0010cm" stroke-linecap="round" stroke-linejoin="round" shaper:cutDepth="0" /><path d="M-1.292308,9.1984288 a0.29,0.29 0 1,1 0.58,0 a0.29,0.29 0 1,1 -0.58,0z" transform="matrix(1,0,0,-1,29.002308,22.2025326)" fill="rgb(255,255,255)" stroke="rgb(0,0,0)" stroke-width="0.0010cm" stroke-linecap="round" stroke-linejoin="round" shaper:cutDepth="0" /><path d="M-7.292308,11.1984288 a0.29,0.29 0 1,1 0.58,0 a0.29,0.29 0 1,1 -0.58,0z" transform="matrix(1,0,0,-1,29.002308,22.2025326)" fill="rgb(255,255,255)" stroke="rgb(0,0,0)" stroke-width="0.0010cm" stroke-linecap="round" stroke-linejoin="round" shaper:cutDepth="0" /><path d="M-7.292308,13.1984288 a0.29,0.29 0 1,1 0.58,0 a0.29,0.29 0 1,1 -0.58,0z" transform="matrix(1,0,0,-1,29.002308,22.2025326)" fill="rgb(255,255,255)" stroke="rgb(0,0,0)" stroke-width="0.0010cm" stroke-linecap="round" stroke-linejoin="round" shaper:cutDepth="0" /><path d="M-7.292308,15.1984288 a0.29,0.29 0 1,1 0.58,0 a0.29,0.29 0 1,1 -0.58,0z" transform="matrix(1,0,0,-1,29.002308,22.2025326)" fill="rgb(255,255,255)" stroke="rgb(0,0,0)" stroke-width="0.0010cm" stroke-linecap="round" stroke-linejoin="round" shaper:cutDepth="0" /><path d="M-7.292308,17.1984288 a0.29,0.29 0 1,1 0.58,0 a0.29,0.29 0 1,1 -0.58,0z" transform="matrix(1,0,0,-1,29.002308,22.2025326)" fill="rgb(255,255,255)" stroke="rgb(0,0,0)" stroke-width="0.0010cm" stroke-linecap="round" stroke-linejoin="round" shaper:cutDepth="0" /><path d="M-7.292308,19.1984288 a0.29,0.29 0 1,1 0.58,0 a0.29,0.29 0 1,1 -0.58,0z" transform="matrix(1,0,0,-1,29.002308,22.2025326)" fill="rgb(255,255,255)" stroke="rgb(0,0,0)" stroke-width="0.0010cm" stroke-linecap="round" stroke-linejoin="round" shaper:cutDepth="0" /><path d="M-9.292308,19.1984288 a0.29,0.29 0 1,1 0.58,0 a0.29,0.29 0 1,1 -0.58,0z" transform="matrix(1,0,0,-1,29.002308,22.2025326)" fill="rgb(255,255,255)" stroke="rgb(0,0,0)" stroke-width="0.0010cm" stroke-linecap="round" stroke-linejoin="round" shaper:cutDepth="0" /><path d="M-9.292308,17.1984288 a0.29,0.29 0 1,1 0.58,0 a0.29,0.29 0 1,1 -0.58,0z" transform="matrix(1,0,0,-1,29.002308,22.2025326)" fill="rgb(255,255,255)" stroke="rgb(0,0,0)" stroke-width="0.0010cm" stroke-linecap="round" stroke-linejoin="round" shaper:cutDepth="0" /><path d="M-9.292308,15.1984288 a0.29,0.29 0 1,1 0.58,0 a0.29,0.29 0 1,1 -0.58,0z" transform="matrix(1,0,0,-1,29.002308,22.2025326)" fill="rgb(255,255,255)" stroke="rgb(0,0,0)" stroke-width="0.0010cm" stroke-linecap="round" stroke-linejoin="round" shaper:cutDepth="0" /><path d="M-9.292308,13.1984288 a0.29,0.29 0 1,1 0.58,0 a0.29,0.29 0 1,1 -0.58,0z" transform="matrix(1,0,0,-1,29.002308,22.2025326)" fill="rgb(255,255,255)" stroke="rgb(0,0,0)" stroke-width="0.0010cm" stroke-linecap="round" stroke-linejoin="round" shaper:cutDepth="0" /><path d="M-9.292308,11.1984288 a0.29,0.29 0 1,1 0.58,0 a0.29,0.29 0 1,1 -0.58,0z" transform="matrix(1,0,0,-1,29.002308,22.2025326)" fill="rgb(255,255,255)" stroke="rgb(0,0,0)" stroke-width="0.0010cm" stroke-linecap="round" stroke-linejoin="round" shaper:cutDepth="0" /><path d="M-9.292308,9.1984288 a0.29,0.29 0 1,1 0.58,0 a0.29,0.29 0 1,1 -0.58,0z" transform="matrix(1,0,0,-1,29.002308,22.2025326)" fill="rgb(255,255,255)" stroke="rgb(0,0,0)" stroke-width="0.0010cm" stroke-linecap="round" stroke-linejoin="round" shaper:cutDepth="0" /><path d="M-11.292308,9.1984288 a0.29,0.29 0 1,1 0.58,0 a0.29,0.29 0 1,1 -0.58,0z" transform="matrix(1,0,0,-1,29.002308,22.2025326)" fill="rgb(255,255,255)" stroke="rgb(0,0,0)" stroke-width="0.0010cm" stroke-linecap="round" stroke-linejoin="round" shaper:cutDepth="0" /><path d="M-13.292308,17.1984288 a0.29,0.29 0 1,1 0.58,0 a0.29,0.29 0 1,1 -0.58,0z" transform="matrix(1,0,0,-1,29.002308,22.2025326)" fill="rgb(255,255,255)" stroke="rgb(0,0,0)" stroke-width="0.0010cm" stroke-linecap="round" stroke-linejoin="round" shaper:cutDepth="0" /><path d="M-13.292308,15.1984288 a0.29,0.29 0 1,1 0.58,0 a0.29,0.29 0 1,1 -0.58,0z" transform="matrix(1,0,0,-1,29.002308,22.2025326)" fill="rgb(255,255,255)" stroke="rgb(0,0,0)" stroke-width="0.0010cm" stroke-linecap="round" stroke-linejoin="round" shaper:cutDepth="0" /><path d="M-13.292308,13.1984288 a0.29,0.29 0 1,1 0.58,0 a0.29,0.29 0 1,1 -0.58,0z" transform="matrix(1,0,0,-1,29.002308,22.2025326)" fill="rgb(255,255,255)" stroke="rgb(0,0,0)" stroke-width="0.0010cm" stroke-linecap="round" stroke-linejoin="round" shaper:cutDepth="0" /><path d="M-13.292308,11.1984288 a0.29,0.29 0 1,1 0.58,0 a0.29,0.29 0 1,1 -0.58,0z" transform="matrix(1,0,0,-1,29.002308,22.2025326)" fill="rgb(255,255,255)" stroke="rgb(0,0,0)" stroke-width="0.0010cm" stroke-linecap="round" stroke-linejoin="round" shaper:cutDepth="0" /><path d="M-13.292308,9.1984288 a0.29,0.29 0 1,1 0.58,0 a0.29,0.29 0 1,1 -0.58,0z" transform="matrix(1,0,0,-1,29.002308,22.2025326)" fill="rgb(255,255,255)" stroke="rgb(0,0,0)" stroke-width="0.0010cm" stroke-linecap="round" stroke-linejoin="round" shaper:cutDepth="0" /><path d="M-15.292308,9.1984288 a0.29,0.29 0 1,1 0.58,0 a0.29,0.29 0 1,1 -0.58,0z" transform="matrix(1,0,0,-1,29.002308,22.2025326)" fill="rgb(255,255,255)" stroke="rgb(0,0,0)" stroke-width="0.0010cm" stroke-linecap="round" stroke-linejoin="round" shaper:cutDepth="0" /></svg>