<?xml version="1.0" encoding="utf-8"?>
<!-- Generator: Fusion 360, Shaper Origin Export Add-In, Version 1.6.3  -->
<svg xmlns="http://www.w3.org/2000/svg" xmlns:xlink="http://www.w3.org/1999/xlink" xmlns:shaper="http://www.shapertools.com/namespaces/shaper" shaper:fusionaddin="version:1.6.3" width="50cm" height="16cm" version="1.1" x="0cm" y="0cm" viewBox="0 0 50 16" enable-background="new 0 0 50 16" xml:space="preserve"><path d="M-29.002308,1.2025122 L-29.002308,-12.7974878 A1,1 180 0,1 -28.002308,-13.7974878 L19.997692,-13.7974878 A1,1 270 0,1 20.997692,-12.7974878 L20.997692,1.2025122 A1,1 0 0,1 19.997692,2.2025122 L-28.002308,2.2025122 A1,1 90 0,1 -29.002308,1.2025122z" transform="matrix(1,0,0,-1,29.002308,2.2025122)" fill="rgb(0,0,0)" shaper:cutDepth="0" stroke-linecap="round" stroke-linejoin="round" /><path d="M-27.727308,-3.0474878 A0.325,0.325 180 0,0 -27.077308,-3.0474878 L-27.077308,-8.5474878 A0.325,0.325 0 0,0 -27.727308,-8.5474878 L-27.727308,-3.0474878z" transform="matrix(1,0,0,-1,29.002308,2.2025122)" fill="rgb(255,255,255)" stroke="rgb(0,0,0)" stroke-width="0.0010cm" stroke-linecap="round" stroke-linejoin="round" shaper:cutDepth="0" /><path d="M19.072692,-3.0474878 A0.325,0.325 180 0,0 19.722692,-3.0474878 L19.722692,-8.5474878 A0.325,0.325 0 0,0 19.072692,-8.5474878 L19.072692,-3.0474878z" transform="matrix(1,0,0,-1,29.002308,2.2025122)" fill="rgb(255,255,255)" stroke="rgb(0,0,0)" stroke-width="0.0010cm" stroke-linecap="round" stroke-linejoin="round" shaper:cutDepth="0" /><path d="M-3.292308,-4.8015916 a0.29,0.29 0 1,1 0.58,0 a0.29,0.29 0 1,1 -0.58,0z" transform="matrix(1,0,0,-1,29.002308,2.2025122)" fill="rgb(255,255,255)" stroke="rgb(0,0,0)" stroke-width="0.0010cm" stroke-linecap="round" stroke-linejoin="round" shaper:cutDepth="0" /><path d="M-5.292308,-4.8015916 a0.29,0.29 0 1,1 0.58,0 a0.29,0.29 0 1,1 -0.58,0z" transform="matrix(1,0,0,-1,29.002308,2.2025122)" fill="rgb(255,255,255)" stroke="rgb(0,0,0)" stroke-width="0.0010cm" stroke-linecap="round" stroke-linejoin="round" shaper:cutDepth="0" /><path d="M-3.292308,-8.8015916 a0.29,0.29 0 1,1 0.58,0 a0.29,0.29 0 1,1 -0.58,0z" transform="matrix(1,0,0,-1,29.002308,2.2025122)" fill="rgb(255,255,255)" stroke="rgb(0,0,0)" stroke-width="0.0010cm" stroke-linecap="round" stroke-linejoin="round" shaper:cutDepth="0" /><path d="M-5.292308,-8.8015916 a0.29,0.29 0 1,1 0.58,0 a0.29,0.29 0 1,1 -0.58,0z" transform="matrix(1,0,0,-1,29.002308,2.2025122)" fill="rgb(255,255,255)" stroke="rgb(0,0,0)" stroke-width="0.0010cm" stroke-linecap="round" stroke-linejoin="round" shaper:cutDepth="0" /><path d="M-3.292308,-2.8015916 a0.29,0.29 0 1,1 0.58,0 a0.29,0.29 0 1,1 -0.58,0z" transform="matrix(1,0,0,-1,29.002308,2.2025122)" fill="rgb(255,255,255)" stroke="rgb(0,0,0)" stroke-width="0.0010cm" stroke-linecap="round" stroke-linejoin="round" shaper:cutDepth="0" /><path d="M-5.292308,-2.8015916 a0.29,0.29 0 1,1 0.58,0 a0.29,0.29 0 1,1 -0.58,0z" transform="matrix(1,0,0,-1,29.002308,2.2025122)" fill="rgb(255,255,255)" stroke="rgb(0,0,0)" stroke-width="0.0010cm" stroke-linecap="round" stroke-linejoin="round" shaper:cutDepth="0" /><path d="M-3.292308,-6.8015916 a0.29,0.29 0 1,1 0.58,0 a0.29,0.29 0 1,1 -0.58,0z" transform="matrix(1,0,0,-1,29.002308,2.2025122)" fill="rgb(255,255,255)" stroke="rgb(0,0,0)" stroke-width="0.0010cm" stroke-linecap="round" stroke-linejoin="round" shaper:cutDepth="0" /><path d="M-5.292308,-6.8015916 a0.29,0.29 0 1,1 0.58,0 a0.29,0.29 0 1,1 -0.58,0z" transform="matrix(1,0,0,-1,29.002308,2.2025122)" fill="rgb(255,255,255)" stroke="rgb(0,0,0)" stroke-width="0.0010cm" stroke-linecap="round" stroke-linejoin="round" shaper:cutDepth="0" /><path d="M-4.212308,-1.793384 a0.21,0.21 0 1,1 0.42,0 a0.21,0.21 0 1,1 -0.42,0z" transform="matrix(1,0,0,-1,29.002308,2.2025122)" fill="rgb(255,255,255)" stroke="rgb(0,0,0)" stroke-width="0.0010cm" stroke-linecap="round" stroke-linejoin="round" shaper:cutDepth="0" /><path d="M-4.212308,-5.793384 a0.21,0.21 0 1,1 0.42,0 a0.21,0.21 0 1,1 -0.42,0z" transform="matrix(1,0,0,-1,29.002308,2.2025122)" fill="rgb(255,255,255)" stroke="rgb(0,0,0)" stroke-width="0.0010cm" stroke-linecap="round" stroke-linejoin="round" shaper:cutDepth="0" /><path d="M-4.212308,-3.793384 a0.21,0.21 0 1,1 0.42,0 a0.21,0.21 0 1,1 -0.42,0z" transform="matrix(1,0,0,-1,29.002308,2.2025122)" fill="rgb(255,255,255)" stroke="rgb(0,0,0)" stroke-width="0.0010cm" stroke-linecap="round" stroke-linejoin="round" shaper:cutDepth="0" /><path d="M-4.212308,-9.793384 a0.21,0.21 0 1,1 0.42,0 a0.21,0.21 0 1,1 -0.42,0z" transform="matrix(1,0,0,-1,29.002308,2.2025122)" fill="rgb(255,255,255)" stroke="rgb(0,0,0)" stroke-width="0.0010cm" stroke-linecap="round" stroke-linejoin="round" shaper:cutDepth="0" /><path d="M-4.212308,-7.793384 a0.21,0.21 0 1,1 0.42,0 a0.21,0.21 0 1,1 -0.42,0z" transform="matrix(1,0,0,-1,29.002308,2.2025122)" fill="rgb(255,255,255)" stroke="rgb(0,0,0)" stroke-width="0.0010cm" stroke-linecap="round" stroke-linejoin="round" shaper:cutDepth="0" /><path d="M-3.292308,-12.8015916 a0.29,0.29 0 1,1 0.58,0 a0.29,0.29 0 1,1 -0.58,0z" transform="matrix(1,0,0,-1,29.002308,2.2025122)" fill="rgb(255,255,255)" stroke="rgb(0,0,0)" stroke-width="0.0010cm" stroke-linecap="round" stroke-linejoin="round" shaper:cutDepth="0" /><path d="M-5.292308,-12.8015916 a0.29,0.29 0 1,1 0.58,0 a0.29,0.29 0 1,1 -0.58,0z" transform="matrix(1,0,0,-1,29.002308,2.2025122)" fill="rgb(255,255,255)" stroke="rgb(0,0,0)" stroke-width="0.0010cm" stroke-linecap="round" stroke-linejoin="round" shaper:cutDepth="0" /><path d="M-3.292308,1.1984084 a0.29,0.29 0 1,1 0.58,0 a0.29,0.29 0 1,1 -0.58,0z" transform="matrix(1,0,0,-1,29.002308,2.2025122)" fill="rgb(255,255,255)" stroke="rgb(0,0,0)" stroke-width="0.0010cm" stroke-linecap="round" stroke-linejoin="round" shaper:cutDepth="0" /><path d="M-5.292308,1.1984084 a0.29,0.29 0 1,1 0.58,0 a0.29,0.29 0 1,1 -0.58,0z" transform="matrix(1,0,0,-1,29.002308,2.2025122)" fill="rgb(255,255,255)" stroke="rgb(0,0,0)" stroke-width="0.0010cm" stroke-linecap="round" stroke-linejoin="round" shaper:cutDepth="0" /><path d="M-21.292308,-12.8015916 a0.29,0.29 0 1,1 0.58,0 a0.29,0.29 0 1,1 -0.58,0z" transform="matrix(1,0,0,-1,29.002308,2.2025122)" fill="rgb(255,255,255)" stroke="rgb(0,0,0)" stroke-width="0.0010cm" stroke-linecap="round" stroke-linejoin="round" shaper:cutDepth="0" /><path d="M-19.292308,-12.8015916 a0.29,0.29 0 1,1 0.58,0 a0.29,0.29 0 1,1 -0.58,0z" transform="matrix(1,0,0,-1,29.002308,2.2025122)" fill="rgb(255,255,255)" stroke="rgb(0,0,0)" stroke-width="0.0010cm" stroke-linecap="round" stroke-linejoin="round" shaper:cutDepth="0" /><path d="M-17.292308,-12.8015916 a0.29,0.29 0 1,1 0.58,0 a0.29,0.29 0 1,1 -0.58,0z" transform="matrix(1,0,0,-1,29.002308,2.2025122)" fill="rgb(255,255,255)" stroke="rgb(0,0,0)" stroke-width="0.0010cm" stroke-linecap="round" stroke-linejoin="round" shaper:cutDepth="0" /><path d="M-15.292308,-12.8015916 a0.29,0.29 0 1,1 0.58,0 a0.29,0.29 0 1,1 -0.58,0z" transform="matrix(1,0,0,-1,29.002308,2.2025122)" fill="rgb(255,255,255)" stroke="rgb(0,0,0)" stroke-width="0.0010cm" stroke-linecap="round" stroke-linejoin="round" shaper:cutDepth="0" /><path d="M-13.292308,-12.8015916 a0.29,0.29 0 1,1 0.58,0 a0.29,0.29 0 1,1 -0.58,0z" transform="matrix(1,0,0,-1,29.002308,2.2025122)" fill="rgb(255,255,255)" stroke="rgb(0,0,0)" stroke-width="0.0010cm" stroke-linecap="round" stroke-linejoin="round" shaper:cutDepth="0" /><path d="M-11.292308,-12.8015916 a0.29,0.29 0 1,1 0.58,0 a0.29,0.29 0 1,1 -0.58,0z" transform="matrix(1,0,0,-1,29.002308,2.2025122)" fill="rgb(255,255,255)" stroke="rgb(0,0,0)" stroke-width="0.0010cm" stroke-linecap="round" stroke-linejoin="round" shaper:cutDepth="0" /><path d="M-9.292308,-12.8015916 a0.29,0.29 0 1,1 0.58,0 a0.29,0.29 0 1,1 -0.58,0z" transform="matrix(1,0,0,-1,29.002308,2.2025122)" fill="rgb(255,255,255)" stroke="rgb(0,0,0)" stroke-width="0.0010cm" stroke-linecap="round" stroke-linejoin="round" shaper:cutDepth="0" /><path d="M-7.292308,-12.8015916 a0.29,0.29 0 1,1 0.58,0 a0.29,0.29 0 1,1 -0.58,0z" transform="matrix(1,0,0,-1,29.002308,2.2025122)" fill="rgb(255,255,255)" stroke="rgb(0,0,0)" stroke-width="0.0010cm" stroke-linecap="round" stroke-linejoin="round" shaper:cutDepth="0" /><path d="M-1.292308,-12.8015916 a0.29,0.29 0 1,1 0.58,0 a0.29,0.29 0 1,1 -0.58,0z" transform="matrix(1,0,0,-1,29.002308,2.2025122)" fill="rgb(255,255,255)" stroke="rgb(0,0,0)" stroke-width="0.0010cm" stroke-linecap="round" stroke-linejoin="round" shaper:cutDepth="0" /><path d="M0.707692,-12.8015916 a0.29,0.29 0 1,1 0.58,0 a0.29,0.29 0 1,1 -0.58,0z" transform="matrix(1,0,0,-1,29.002308,2.2025122)" fill="rgb(255,255,255)" stroke="rgb(0,0,0)" stroke-width="0.0010cm" stroke-linecap="round" stroke-linejoin="round" shaper:cutDepth="0" /><path d="M2.707692,-12.8015916 a0.29,0.29 0 1,1 0.58,0 a0.29,0.29 0 1,1 -0.58,0z" transform="matrix(1,0,0,-1,29.002308,2.2025122)" fill="rgb(255,255,255)" stroke="rgb(0,0,0)" stroke-width="0.0010cm" stroke-linecap="round" stroke-linejoin="round" shaper:cutDepth="0" /><path d="M4.707692,-12.8015916 a0.29,0.29 0 1,1 0.58,0 a0.29,0.29 0 1,1 -0.58,0z" transform="matrix(1,0,0,-1,29.002308,2.2025122)" fill="rgb(255,255,255)" stroke="rgb(0,0,0)" stroke-width="0.0010cm" stroke-linecap="round" stroke-linejoin="round" shaper:cutDepth="0" /><path d="M6.707692,-12.8015916 a0.29,0.29 0 1,1 0.58,0 a0.29,0.29 0 1,1 -0.58,0z" transform="matrix(1,0,0,-1,29.002308,2.2025122)" fill="rgb(255,255,255)" stroke="rgb(0,0,0)" stroke-width="0.0010cm" stroke-linecap="round" stroke-linejoin="round" shaper:cutDepth="0" /><path d="M8.707692,-12.8015916 a0.29,0.29 0 1,1 0.58,0 a0.29,0.29 0 1,1 -0.58,0z" transform="matrix(1,0,0,-1,29.002308,2.2025122)" fill="rgb(255,255,255)" stroke="rgb(0,0,0)" stroke-width="0.0010cm" stroke-linecap="round" stroke-linejoin="round" shaper:cutDepth="0" /><path d="M10.707692,-12.8015916 a0.29,0.29 0 1,1 0.58,0 a0.29,0.29 0 1,1 -0.58,0z" transform="matrix(1,0,0,-1,29.002308,2.2025122)" fill="rgb(255,255,255)" stroke="rgb(0,0,0)" stroke-width="0.0010cm" stroke-linecap="round" stroke-linejoin="round" shaper:cutDepth="0" /><path d="M12.707692,-12.8015916 a0.29,0.29 0 1,1 0.58,0 a0.29,0.29 0 1,1 -0.58,0z" transform="matrix(1,0,0,-1,29.002308,2.2025122)" fill="rgb(255,255,255)" stroke="rgb(0,0,0)" stroke-width="0.0010cm" stroke-linecap="round" stroke-linejoin="round" shaper:cutDepth="0" /><path d="M-21.292308,1.1984084 a0.29,0.29 0 1,1 0.58,0 a0.29,0.29 0 1,1 -0.58,0z" transform="matrix(1,0,0,-1,29.002308,2.2025122)" fill="rgb(255,255,255)" stroke="rgb(0,0,0)" stroke-width="0.0010cm" stroke-linecap="round" stroke-linejoin="round" shaper:cutDepth="0" /><path d="M-19.292308,1.1984084 a0.29,0.29 0 1,1 0.58,0 a0.29,0.29 0 1,1 -0.58,0z" transform="matrix(1,0,0,-1,29.002308,2.2025122)" fill="rgb(255,255,255)" stroke="rgb(0,0,0)" stroke-width="0.0010cm" stroke-linecap="round" stroke-linejoin="round" shaper:cutDepth="0" /><path d="M-17.292308,1.1984084 a0.29,0.29 0 1,1 0.58,0 a0.29,0.29 0 1,1 -0.58,0z" transform="matrix(1,0,0,-1,29.002308,2.2025122)" fill="rgb(255,255,255)" stroke="rgb(0,0,0)" stroke-width="0.0010cm" stroke-linecap="round" stroke-linejoin="round" shaper:cutDepth="0" /><path d="M-15.292308,1.1984084 a0.29,0.29 0 1,1 0.58,0 a0.29,0.29 0 1,1 -0.58,0z" transform="matrix(1,0,0,-1,29.002308,2.2025122)" fill="rgb(255,255,255)" stroke="rgb(0,0,0)" stroke-width="0.0010cm" stroke-linecap="round" stroke-linejoin="round" shaper:cutDepth="0" /><path d="M-13.292308,1.1984084 a0.29,0.29 0 1,1 0.58,0 a0.29,0.29 0 1,1 -0.58,0z" transform="matrix(1,0,0,-1,29.002308,2.2025122)" fill="rgb(255,255,255)" stroke="rgb(0,0,0)" stroke-width="0.0010cm" stroke-linecap="round" stroke-linejoin="round" shaper:cutDepth="0" /><path d="M-11.292308,1.1984084 a0.29,0.29 0 1,1 0.58,0 a0.29,0.29 0 1,1 -0.58,0z" transform="matrix(1,0,0,-1,29.002308,2.2025122)" fill="rgb(255,255,255)" stroke="rgb(0,0,0)" stroke-width="0.0010cm" stroke-linecap="round" stroke-linejoin="round" shaper:cutDepth="0" /><path d="M-9.292308,1.1984084 a0.29,0.29 0 1,1 0.58,0 a0.29,0.29 0 1,1 -0.58,0z" transform="matrix(1,0,0,-1,29.002308,2.2025122)" fill="rgb(255,255,255)" stroke="rgb(0,0,0)" stroke-width="0.0010cm" stroke-linecap="round" stroke-linejoin="round" shaper:cutDepth="0" /><path d="M-7.292308,1.1984084 a0.29,0.29 0 1,1 0.58,0 a0.29,0.29 0 1,1 -0.58,0z" transform="matrix(1,0,0,-1,29.002308,2.2025122)" fill="rgb(255,255,255)" stroke="rgb(0,0,0)" stroke-width="0.0010cm" stroke-linecap="round" stroke-linejoin="round" shaper:cutDepth="0" /><path d="M-1.292308,1.1984084 a0.29,0.29 0 1,1 0.58,0 a0.29,0.29 0 1,1 -0.58,0z" transform="matrix(1,0,0,-1,29.002308,2.2025122)" fill="rgb(255,255,255)" stroke="rgb(0,0,0)" stroke-width="0.0010cm" stroke-linecap="round" stroke-linejoin="round" shaper:cutDepth="0" /><path d="M0.707692,1.1984084 a0.29,0.29 0 1,1 0.58,0 a0.29,0.29 0 1,1 -0.58,0z" transform="matrix(1,0,0,-1,29.002308,2.2025122)" fill="rgb(255,255,255)" stroke="rgb(0,0,0)" stroke-width="0.0010cm" stroke-linecap="round" stroke-linejoin="round" shaper:cutDepth="0" /><path d="M2.707692,1.1984084 a0.29,0.29 0 1,1 0.58,0 a0.29,0.29 0 1,1 -0.58,0z" transform="matrix(1,0,0,-1,29.002308,2.2025122)" fill="rgb(255,255,255)" stroke="rgb(0,0,0)" stroke-width="0.0010cm" stroke-linecap="round" stroke-linejoin="round" shaper:cutDepth="0" /><path d="M4.707692,1.1984084 a0.29,0.29 0 1,1 0.58,0 a0.29,0.29 0 1,1 -0.58,0z" transform="matrix(1,0,0,-1,29.002308,2.2025122)" fill="rgb(255,255,255)" stroke="rgb(0,0,0)" stroke-width="0.0010cm" stroke-linecap="round" stroke-linejoin="round" shaper:cutDepth="0" /><path d="M6.707692,1.1984084 a0.29,0.29 0 1,1 0.58,0 a0.29,0.29 0 1,1 -0.58,0z" transform="matrix(1,0,0,-1,29.002308,2.2025122)" fill="rgb(255,255,255)" stroke="rgb(0,0,0)" stroke-width="0.0010cm" stroke-linecap="round" stroke-linejoin="round" shaper:cutDepth="0" /><path d="M8.707692,1.1984084 a0.29,0.29 0 1,1 0.58,0 a0.29,0.29 0 1,1 -0.58,0z" transform="matrix(1,0,0,-1,29.002308,2.2025122)" fill="rgb(255,255,255)" stroke="rgb(0,0,0)" stroke-width="0.0010cm" stroke-linecap="round" stroke-linejoin="round" shaper:cutDepth="0" /><path d="M10.707692,1.1984084 a0.29,0.29 0 1,1 0.58,0 a0.29,0.29 0 1,1 -0.58,0z" transform="matrix(1,0,0,-1,29.002308,2.2025122)" fill="rgb(255,255,255)" stroke="rgb(0,0,0)" stroke-width="0.0010cm" stroke-linecap="round" stroke-linejoin="round" shaper:cutDepth="0" /><path d="M12.707692,1.1984084 a0.29,0.29 0 1,1 0.58,0 a0.29,0.29 0 1,1 -0.58,0z" transform="matrix(1,0,0,-1,29.002308,2.2025122)" fill="rgb(255,255,255)" stroke="rgb(0,0,0)" stroke-width="0.0010cm" stroke-linecap="round" stroke-linejoin="round" shaper:cutDepth="0" /><path d="M-22.212308,0.206616 a0.21,0.21 0 1,1 0.42,0 a0.21,0.21 0 1,1 -0.42,0z" transform="matrix(1,0,0,-1,29.002308,2.2025122)" fill="rgb(255,255,255)" stroke="rgb(0,0,0)" stroke-width="0.0010cm" stroke-linecap="round" stroke-linejoin="round" shaper:cutDepth="0" /><path d="M-20.212308,0.206616 a0.21,0.21 0 1,1 0.42,0 a0.21,0.21 0 1,1 -0.42,0z" transform="matrix(1,0,0,-1,29.002308,2.2025122)" fill="rgb(255,255,255)" stroke="rgb(0,0,0)" stroke-width="0.0010cm" stroke-linecap="round" stroke-linejoin="round" shaper:cutDepth="0" /><path d="M-18.212308,0.206616 a0.21,0.21 0 1,1 0.42,0 a0.21,0.21 0 1,1 -0.42,0z" transform="matrix(1,0,0,-1,29.002308,2.2025122)" fill="rgb(255,255,255)" stroke="rgb(0,0,0)" stroke-width="0.0010cm" stroke-linecap="round" stroke-linejoin="round" shaper:cutDepth="0" /><path d="M-21.292308,-0.8015916 a0.29,0.29 0 1,1 0.58,0 a0.29,0.29 0 1,1 -0.58,0z" transform="matrix(1,0,0,-1,29.002308,2.2025122)" fill="rgb(255,255,255)" stroke="rgb(0,0,0)" stroke-width="0.0010cm" stroke-linecap="round" stroke-linejoin="round" shaper:cutDepth="0" /><path d="M-19.292308,-0.8015916 a0.29,0.29 0 1,1 0.58,0 a0.29,0.29 0 1,1 -0.58,0z" transform="matrix(1,0,0,-1,29.002308,2.2025122)" fill="rgb(255,255,255)" stroke="rgb(0,0,0)" stroke-width="0.0010cm" stroke-linecap="round" stroke-linejoin="round" shaper:cutDepth="0" /><path d="M-22.212308,-1.793384 a0.21,0.21 0 1,1 0.42,0 a0.21,0.21 0 1,1 -0.42,0z" transform="matrix(1,0,0,-1,29.002308,2.2025122)" fill="rgb(255,255,255)" stroke="rgb(0,0,0)" stroke-width="0.0010cm" stroke-linecap="round" stroke-linejoin="round" shaper:cutDepth="0" /><path d="M-20.212308,-1.793384 a0.21,0.21 0 1,1 0.42,0 a0.21,0.21 0 1,1 -0.42,0z" transform="matrix(1,0,0,-1,29.002308,2.2025122)" fill="rgb(255,255,255)" stroke="rgb(0,0,0)" stroke-width="0.0010cm" stroke-linecap="round" stroke-linejoin="round" shaper:cutDepth="0" /><path d="M-18.212308,-1.793384 a0.21,0.21 0 1,1 0.42,0 a0.21,0.21 0 1,1 -0.42,0z" transform="matrix(1,0,0,-1,29.002308,2.2025122)" fill="rgb(255,255,255)" stroke="rgb(0,0,0)" stroke-width="0.0010cm" stroke-linecap="round" stroke-linejoin="round" shaper:cutDepth="0" /><path d="M-21.292308,-2.8015916 a0.29,0.29 0 1,1 0.58,0 a0.29,0.29 0 1,1 -0.58,0z" transform="matrix(1,0,0,-1,29.002308,2.2025122)" fill="rgb(255,255,255)" stroke="rgb(0,0,0)" stroke-width="0.0010cm" stroke-linecap="round" stroke-linejoin="round" shaper:cutDepth="0" /><path d="M-19.292308,-2.8015916 a0.29,0.29 0 1,1 0.58,0 a0.29,0.29 0 1,1 -0.58,0z" transform="matrix(1,0,0,-1,29.002308,2.2025122)" fill="rgb(255,255,255)" stroke="rgb(0,0,0)" stroke-width="0.0010cm" stroke-linecap="round" stroke-linejoin="round" shaper:cutDepth="0" /><path d="M-17.292308,-2.8015916 a0.29,0.29 0 1,1 0.58,0 a0.29,0.29 0 1,1 -0.58,0z" transform="matrix(1,0,0,-1,29.002308,2.2025122)" fill="rgb(255,255,255)" stroke="rgb(0,0,0)" stroke-width="0.0010cm" stroke-linecap="round" stroke-linejoin="round" shaper:cutDepth="0" /><path d="M-22.212308,-3.793384 a0.21,0.21 0 1,1 0.42,0 a0.21,0.21 0 1,1 -0.42,0z" transform="matrix(1,0,0,-1,29.002308,2.2025122)" fill="rgb(255,255,255)" stroke="rgb(0,0,0)" stroke-width="0.0010cm" stroke-linecap="round" stroke-linejoin="round" shaper:cutDepth="0" /><path d="M-20.212308,-3.793384 a0.21,0.21 0 1,1 0.42,0 a0.21,0.21 0 1,1 -0.42,0z" transform="matrix(1,0,0,-1,29.002308,2.2025122)" fill="rgb(255,255,255)" stroke="rgb(0,0,0)" stroke-width="0.0010cm" stroke-linecap="round" stroke-linejoin="round" shaper:cutDepth="0" /><path d="M-18.212308,-3.793384 a0.21,0.21 0 1,1 0.42,0 a0.21,0.21 0 1,1 -0.42,0z" transform="matrix(1,0,0,-1,29.002308,2.2025122)" fill="rgb(255,255,255)" stroke="rgb(0,0,0)" stroke-width="0.0010cm" stroke-linecap="round" stroke-linejoin="round" shaper:cutDepth="0" /><path d="M-21.292308,-4.8015916 a0.29,0.29 0 1,1 0.58,0 a0.29,0.29 0 1,1 -0.58,0z" transform="matrix(1,0,0,-1,29.002308,2.2025122)" fill="rgb(255,255,255)" stroke="rgb(0,0,0)" stroke-width="0.0010cm" stroke-linecap="round" stroke-linejoin="round" shaper:cutDepth="0" /><path d="M-19.292308,-4.8015916 a0.29,0.29 0 1,1 0.58,0 a0.29,0.29 0 1,1 -0.58,0z" transform="matrix(1,0,0,-1,29.002308,2.2025122)" fill="rgb(255,255,255)" stroke="rgb(0,0,0)" stroke-width="0.0010cm" stroke-linecap="round" stroke-linejoin="round" shaper:cutDepth="0" /><path d="M-17.292308,-4.8015916 a0.29,0.29 0 1,1 0.58,0 a0.29,0.29 0 1,1 -0.58,0z" transform="matrix(1,0,0,-1,29.002308,2.2025122)" fill="rgb(255,255,255)" stroke="rgb(0,0,0)" stroke-width="0.0010cm" stroke-linecap="round" stroke-linejoin="round" shaper:cutDepth="0" /><path d="M-22.212308,-5.793384 a0.21,0.21 0 1,1 0.42,0 a0.21,0.21 0 1,1 -0.42,0z" transform="matrix(1,0,0,-1,29.002308,2.2025122)" fill="rgb(255,255,255)" stroke="rgb(0,0,0)" stroke-width="0.0010cm" stroke-linecap="round" stroke-linejoin="round" shaper:cutDepth="0" /><path d="M-20.212308,-5.793384 a0.21,0.21 0 1,1 0.42,0 a0.21,0.21 0 1,1 -0.42,0z" transform="matrix(1,0,0,-1,29.002308,2.2025122)" fill="rgb(255,255,255)" stroke="rgb(0,0,0)" stroke-width="0.0010cm" stroke-linecap="round" stroke-linejoin="round" shaper:cutDepth="0" /><path d="M-18.212308,-5.793384 a0.21,0.21 0 1,1 0.42,0 a0.21,0.21 0 1,1 -0.42,0z" transform="matrix(1,0,0,-1,29.002308,2.2025122)" fill="rgb(255,255,255)" stroke="rgb(0,0,0)" stroke-width="0.0010cm" stroke-linecap="round" stroke-linejoin="round" shaper:cutDepth="0" /><path d="M-21.292308,-6.8015916 a0.29,0.29 0 1,1 0.58,0 a0.29,0.29 0 1,1 -0.58,0z" transform="matrix(1,0,0,-1,29.002308,2.2025122)" fill="rgb(255,255,255)" stroke="rgb(0,0,0)" stroke-width="0.0010cm" stroke-linecap="round" stroke-linejoin="round" shaper:cutDepth="0" /><path d="M-19.292308,-6.8015916 a0.29,0.29 0 1,1 0.58,0 a0.29,0.29 0 1,1 -0.58,0z" transform="matrix(1,0,0,-1,29.002308,2.2025122)" fill="rgb(255,255,255)" stroke="rgb(0,0,0)" stroke-width="0.0010cm" stroke-linecap="round" stroke-linejoin="round" shaper:cutDepth="0" /><path d="M-17.292308,-6.8015916 a0.29,0.29 0 1,1 0.58,0 a0.29,0.29 0 1,1 -0.58,0z" transform="matrix(1,0,0,-1,29.002308,2.2025122)" fill="rgb(255,255,255)" stroke="rgb(0,0,0)" stroke-width="0.0010cm" stroke-linecap="round" stroke-linejoin="round" shaper:cutDepth="0" /><path d="M-22.212308,-7.793384 a0.21,0.21 0 1,1 0.42,0 a0.21,0.21 0 1,1 -0.42,0z" transform="matrix(1,0,0,-1,29.002308,2.2025122)" fill="rgb(255,255,255)" stroke="rgb(0,0,0)" stroke-width="0.0010cm" stroke-linecap="round" stroke-linejoin="round" shaper:cutDepth="0" /><path d="M-20.212308,-7.793384 a0.21,0.21 0 1,1 0.42,0 a0.21,0.21 0 1,1 -0.42,0z" transform="matrix(1,0,0,-1,29.002308,2.2025122)" fill="rgb(255,255,255)" stroke="rgb(0,0,0)" stroke-width="0.0010cm" stroke-linecap="round" stroke-linejoin="round" shaper:cutDepth="0" /><path d="M-18.212308,-7.793384 a0.21,0.21 0 1,1 0.42,0 a0.21,0.21 0 1,1 -0.42,0z" transform="matrix(1,0,0,-1,29.002308,2.2025122)" fill="rgb(255,255,255)" stroke="rgb(0,0,0)" stroke-width="0.0010cm" stroke-linecap="round" stroke-linejoin="round" shaper:cutDepth="0" /><path d="M-21.292308,-8.8015916 a0.29,0.29 0 1,1 0.58,0 a0.29,0.29 0 1,1 -0.58,0z" transform="matrix(1,0,0,-1,29.002308,2.2025122)" fill="rgb(255,255,255)" stroke="rgb(0,0,0)" stroke-width="0.0010cm" stroke-linecap="round" stroke-linejoin="round" shaper:cutDepth="0" /><path d="M-19.292308,-8.8015916 a0.29,0.29 0 1,1 0.58,0 a0.29,0.29 0 1,1 -0.58,0z" transform="matrix(1,0,0,-1,29.002308,2.2025122)" fill="rgb(255,255,255)" stroke="rgb(0,0,0)" stroke-width="0.0010cm" stroke-linecap="round" stroke-linejoin="round" shaper:cutDepth="0" /><path d="M-17.292308,-8.8015916 a0.29,0.29 0 1,1 0.58,0 a0.29,0.29 0 1,1 -0.58,0z" transform="matrix(1,0,0,-1,29.002308,2.2025122)" fill="rgb(255,255,255)" stroke="rgb(0,0,0)" stroke-width="0.0010cm" stroke-linecap="round" stroke-linejoin="round" shaper:cutDepth="0" /><path d="M-21.292308,-10.8015916 a0.29,0.29 0 1,1 0.58,0 a0.29,0.29 0 1,1 -0.58,0z" transform="matrix(1,0,0,-1,29.002308,2.2025122)" fill="rgb(255,255,255)" stroke="rgb(0,0,0)" stroke-width="0.0010cm" stroke-linecap="round" stroke-linejoin="round" shaper:cutDepth="0" /><path d="M-19.292308,-10.8015916 a0.29,0.29 0 1,1 0.58,0 a0.29,0.29 0 1,1 -0.58,0z" transform="matrix(1,0,0,-1,29.002308,2.2025122)" fill="rgb(255,255,255)" stroke="rgb(0,0,0)" stroke-width="0.0010cm" stroke-linecap="round" stroke-linejoin="round" shaper:cutDepth="0" /><path d="M-22.212308,-9.793384 a0.21,0.21 0 1,1 0.42,0 a0.21,0.21 0 1,1 -0.42,0z" transform="matrix(1,0,0,-1,29.002308,2.2025122)" fill="rgb(255,255,255)" stroke="rgb(0,0,0)" stroke-width="0.0010cm" stroke-linecap="round" stroke-linejoin="round" shaper:cutDepth="0" /><path d="M-20.212308,-9.793384 a0.21,0.21 0 1,1 0.42,0 a0.21,0.21 0 1,1 -0.42,0z" transform="matrix(1,0,0,-1,29.002308,2.2025122)" fill="rgb(255,255,255)" stroke="rgb(0,0,0)" stroke-width="0.0010cm" stroke-linecap="round" stroke-linejoin="round" shaper:cutDepth="0" /><path d="M-18.212308,-9.793384 a0.21,0.21 0 1,1 0.42,0 a0.21,0.21 0 1,1 -0.42,0z" transform="matrix(1,0,0,-1,29.002308,2.2025122)" fill="rgb(255,255,255)" stroke="rgb(0,0,0)" stroke-width="0.0010cm" stroke-linecap="round" stroke-linejoin="round" shaper:cutDepth="0" /><path d="M-22.212308,-11.793384 a0.21,0.21 0 1,1 0.42,0 a0.21,0.21 0 1,1 -0.42,0z" transform="matrix(1,0,0,-1,29.002308,2.2025122)" fill="rgb(255,255,255)" stroke="rgb(0,0,0)" stroke-width="0.0010cm" stroke-linecap="round" stroke-linejoin="round" shaper:cutDepth="0" /><path d="M-20.212308,-11.793384 a0.21,0.21 0 1,1 0.42,0 a0.21,0.21 0 1,1 -0.42,0z" transform="matrix(1,0,0,-1,29.002308,2.2025122)" fill="rgb(255,255,255)" stroke="rgb(0,0,0)" stroke-width="0.0010cm" stroke-linecap="round" stroke-linejoin="round" shaper:cutDepth="0" /><path d="M-18.212308,-11.793384 a0.21,0.21 0 1,1 0.42,0 a0.21,0.21 0 1,1 -0.42,0z" transform="matrix(1,0,0,-1,29.002308,2.2025122)" fill="rgb(255,255,255)" stroke="rgb(0,0,0)" stroke-width="0.0010cm" stroke-linecap="round" stroke-linejoin="round" shaper:cutDepth="0" /><path d="M13.787692,0.206616 a0.21,0.21 0 1,1 0.42,0 a0.21,0.21 0 1,1 -0.42,0z" transform="matrix(1,0,0,-1,29.002308,2.2025122)" fill="rgb(255,255,255)" stroke="rgb(0,0,0)" stroke-width="0.0010cm" stroke-linecap="round" stroke-linejoin="round" shaper:cutDepth="0" /><path d="M11.787692,0.206616 a0.21,0.21 0 1,1 0.42,0 a0.21,0.21 0 1,1 -0.42,0z" transform="matrix(1,0,0,-1,29.002308,2.2025122)" fill="rgb(255,255,255)" stroke="rgb(0,0,0)" stroke-width="0.0010cm" stroke-linecap="round" stroke-linejoin="round" shaper:cutDepth="0" /><path d="M9.787692,0.206616 a0.21,0.21 0 1,1 0.42,0 a0.21,0.21 0 1,1 -0.42,0z" transform="matrix(1,0,0,-1,29.002308,2.2025122)" fill="rgb(255,255,255)" stroke="rgb(0,0,0)" stroke-width="0.0010cm" stroke-linecap="round" stroke-linejoin="round" shaper:cutDepth="0" /><path d="M13.787692,-11.793384 a0.21,0.21 0 1,1 0.42,0 a0.21,0.21 0 1,1 -0.42,0z" transform="matrix(1,0,0,-1,29.002308,2.2025122)" fill="rgb(255,255,255)" stroke="rgb(0,0,0)" stroke-width="0.0010cm" stroke-linecap="round" stroke-linejoin="round" shaper:cutDepth="0" /><path d="M11.787692,-11.793384 a0.21,0.21 0 1,1 0.42,0 a0.21,0.21 0 1,1 -0.42,0z" transform="matrix(1,0,0,-1,29.002308,2.2025122)" fill="rgb(255,255,255)" stroke="rgb(0,0,0)" stroke-width="0.0010cm" stroke-linecap="round" stroke-linejoin="round" shaper:cutDepth="0" /><path d="M9.787692,-11.793384 a0.21,0.21 0 1,1 0.42,0 a0.21,0.21 0 1,1 -0.42,0z" transform="matrix(1,0,0,-1,29.002308,2.2025122)" fill="rgb(255,255,255)" stroke="rgb(0,0,0)" stroke-width="0.0010cm" stroke-linecap="round" stroke-linejoin="round" shaper:cutDepth="0" /><path d="M12.707692,-10.8015916 a0.29,0.29 0 1,1 0.58,0 a0.29,0.29 0 1,1 -0.58,0z" transform="matrix(1,0,0,-1,29.002308,2.2025122)" fill="rgb(255,255,255)" stroke="rgb(0,0,0)" stroke-width="0.0010cm" stroke-linecap="round" stroke-linejoin="round" shaper:cutDepth="0" /><path d="M10.707692,-10.8015916 a0.29,0.29 0 1,1 0.58,0 a0.29,0.29 0 1,1 -0.58,0z" transform="matrix(1,0,0,-1,29.002308,2.2025122)" fill="rgb(255,255,255)" stroke="rgb(0,0,0)" stroke-width="0.0010cm" stroke-linecap="round" stroke-linejoin="round" shaper:cutDepth="0" /><path d="M13.787692,-9.793384 a0.21,0.21 0 1,1 0.42,0 a0.21,0.21 0 1,1 -0.42,0z" transform="matrix(1,0,0,-1,29.002308,2.2025122)" fill="rgb(255,255,255)" stroke="rgb(0,0,0)" stroke-width="0.0010cm" stroke-linecap="round" stroke-linejoin="round" shaper:cutDepth="0" /><path d="M11.787692,-9.793384 a0.21,0.21 0 1,1 0.42,0 a0.21,0.21 0 1,1 -0.42,0z" transform="matrix(1,0,0,-1,29.002308,2.2025122)" fill="rgb(255,255,255)" stroke="rgb(0,0,0)" stroke-width="0.0010cm" stroke-linecap="round" stroke-linejoin="round" shaper:cutDepth="0" /><path d="M9.787692,-9.793384 a0.21,0.21 0 1,1 0.42,0 a0.21,0.21 0 1,1 -0.42,0z" transform="matrix(1,0,0,-1,29.002308,2.2025122)" fill="rgb(255,255,255)" stroke="rgb(0,0,0)" stroke-width="0.0010cm" stroke-linecap="round" stroke-linejoin="round" shaper:cutDepth="0" /><path d="M12.707692,-8.8015916 a0.29,0.29 0 1,1 0.58,0 a0.29,0.29 0 1,1 -0.58,0z" transform="matrix(1,0,0,-1,29.002308,2.2025122)" fill="rgb(255,255,255)" stroke="rgb(0,0,0)" stroke-width="0.0010cm" stroke-linecap="round" stroke-linejoin="round" shaper:cutDepth="0" /><path d="M10.707692,-8.8015916 a0.29,0.29 0 1,1 0.58,0 a0.29,0.29 0 1,1 -0.58,0z" transform="matrix(1,0,0,-1,29.002308,2.2025122)" fill="rgb(255,255,255)" stroke="rgb(0,0,0)" stroke-width="0.0010cm" stroke-linecap="round" stroke-linejoin="round" shaper:cutDepth="0" /><path d="M8.707692,-8.8015916 a0.29,0.29 0 1,1 0.58,0 a0.29,0.29 0 1,1 -0.58,0z" transform="matrix(1,0,0,-1,29.002308,2.2025122)" fill="rgb(255,255,255)" stroke="rgb(0,0,0)" stroke-width="0.0010cm" stroke-linecap="round" stroke-linejoin="round" shaper:cutDepth="0" /><path d="M13.787692,-7.793384 a0.21,0.21 0 1,1 0.42,0 a0.21,0.21 0 1,1 -0.42,0z" transform="matrix(1,0,0,-1,29.002308,2.2025122)" fill="rgb(255,255,255)" stroke="rgb(0,0,0)" stroke-width="0.0010cm" stroke-linecap="round" stroke-linejoin="round" shaper:cutDepth="0" /><path d="M11.787692,-7.793384 a0.21,0.21 0 1,1 0.42,0 a0.21,0.21 0 1,1 -0.42,0z" transform="matrix(1,0,0,-1,29.002308,2.2025122)" fill="rgb(255,255,255)" stroke="rgb(0,0,0)" stroke-width="0.0010cm" stroke-linecap="round" stroke-linejoin="round" shaper:cutDepth="0" /><path d="M9.787692,-7.793384 a0.21,0.21 0 1,1 0.42,0 a0.21,0.21 0 1,1 -0.42,0z" transform="matrix(1,0,0,-1,29.002308,2.2025122)" fill="rgb(255,255,255)" stroke="rgb(0,0,0)" stroke-width="0.0010cm" stroke-linecap="round" stroke-linejoin="round" shaper:cutDepth="0" /><path d="M13.787692,-5.793384 a0.21,0.21 0 1,1 0.42,0 a0.21,0.21 0 1,1 -0.42,0z" transform="matrix(1,0,0,-1,29.002308,2.2025122)" fill="rgb(255,255,255)" stroke="rgb(0,0,0)" stroke-width="0.0010cm" stroke-linecap="round" stroke-linejoin="round" shaper:cutDepth="0" /><path d="M11.787692,-5.793384 a0.21,0.21 0 1,1 0.42,0 a0.21,0.21 0 1,1 -0.42,0z" transform="matrix(1,0,0,-1,29.002308,2.2025122)" fill="rgb(255,255,255)" stroke="rgb(0,0,0)" stroke-width="0.0010cm" stroke-linecap="round" stroke-linejoin="round" shaper:cutDepth="0" /><path d="M9.787692,-5.793384 a0.21,0.21 0 1,1 0.42,0 a0.21,0.21 0 1,1 -0.42,0z" transform="matrix(1,0,0,-1,29.002308,2.2025122)" fill="rgb(255,255,255)" stroke="rgb(0,0,0)" stroke-width="0.0010cm" stroke-linecap="round" stroke-linejoin="round" shaper:cutDepth="0" /><path d="M12.707692,-6.8015916 a0.29,0.29 0 1,1 0.58,0 a0.29,0.29 0 1,1 -0.58,0z" transform="matrix(1,0,0,-1,29.002308,2.2025122)" fill="rgb(255,255,255)" stroke="rgb(0,0,0)" stroke-width="0.0010cm" stroke-linecap="round" stroke-linejoin="round" shaper:cutDepth="0" /><path d="M10.707692,-6.8015916 a0.29,0.29 0 1,1 0.58,0 a0.29,0.29 0 1,1 -0.58,0z" transform="matrix(1,0,0,-1,29.002308,2.2025122)" fill="rgb(255,255,255)" stroke="rgb(0,0,0)" stroke-width="0.0010cm" stroke-linecap="round" stroke-linejoin="round" shaper:cutDepth="0" /><path d="M8.707692,-6.8015916 a0.29,0.29 0 1,1 0.58,0 a0.29,0.29 0 1,1 -0.58,0z" transform="matrix(1,0,0,-1,29.002308,2.2025122)" fill="rgb(255,255,255)" stroke="rgb(0,0,0)" stroke-width="0.0010cm" stroke-linecap="round" stroke-linejoin="round" shaper:cutDepth="0" /><path d="M12.707692,-4.8015916 a0.29,0.29 0 1,1 0.58,0 a0.29,0.29 0 1,1 -0.58,0z" transform="matrix(1,0,0,-1,29.002308,2.2025122)" fill="rgb(255,255,255)" stroke="rgb(0,0,0)" stroke-width="0.0010cm" stroke-linecap="round" stroke-linejoin="round" shaper:cutDepth="0" /><path d="M10.707692,-4.8015916 a0.29,0.29 0 1,1 0.58,0 a0.29,0.29 0 1,1 -0.58,0z" transform="matrix(1,0,0,-1,29.002308,2.2025122)" fill="rgb(255,255,255)" stroke="rgb(0,0,0)" stroke-width="0.0010cm" stroke-linecap="round" stroke-linejoin="round" shaper:cutDepth="0" /><path d="M8.707692,-4.8015916 a0.29,0.29 0 1,1 0.58,0 a0.29,0.29 0 1,1 -0.58,0z" transform="matrix(1,0,0,-1,29.002308,2.2025122)" fill="rgb(255,255,255)" stroke="rgb(0,0,0)" stroke-width="0.0010cm" stroke-linecap="round" stroke-linejoin="round" shaper:cutDepth="0" /><path d="M13.787692,-3.793384 a0.21,0.21 0 1,1 0.42,0 a0.21,0.21 0 1,1 -0.42,0z" transform="matrix(1,0,0,-1,29.002308,2.2025122)" fill="rgb(255,255,255)" stroke="rgb(0,0,0)" stroke-width="0.0010cm" stroke-linecap="round" stroke-linejoin="round" shaper:cutDepth="0" /><path d="M11.787692,-3.793384 a0.21,0.21 0 1,1 0.42,0 a0.21,0.21 0 1,1 -0.42,0z" transform="matrix(1,0,0,-1,29.002308,2.2025122)" fill="rgb(255,255,255)" stroke="rgb(0,0,0)" stroke-width="0.0010cm" stroke-linecap="round" stroke-linejoin="round" shaper:cutDepth="0" /><path d="M9.787692,-3.793384 a0.21,0.21 0 1,1 0.42,0 a0.21,0.21 0 1,1 -0.42,0z" transform="matrix(1,0,0,-1,29.002308,2.2025122)" fill="rgb(255,255,255)" stroke="rgb(0,0,0)" stroke-width="0.0010cm" stroke-linecap="round" stroke-linejoin="round" shaper:cutDepth="0" /><path d="M12.707692,-2.8015916 a0.29,0.29 0 1,1 0.58,0 a0.29,0.29 0 1,1 -0.58,0z" transform="matrix(1,0,0,-1,29.002308,2.2025122)" fill="rgb(255,255,255)" stroke="rgb(0,0,0)" stroke-width="0.0010cm" stroke-linecap="round" stroke-linejoin="round" shaper:cutDepth="0" /><path d="M10.707692,-2.8015916 a0.29,0.29 0 1,1 0.58,0 a0.29,0.29 0 1,1 -0.58,0z" transform="matrix(1,0,0,-1,29.002308,2.2025122)" fill="rgb(255,255,255)" stroke="rgb(0,0,0)" stroke-width="0.0010cm" stroke-linecap="round" stroke-linejoin="round" shaper:cutDepth="0" /><path d="M8.707692,-2.8015916 a0.29,0.29 0 1,1 0.58,0 a0.29,0.29 0 1,1 -0.58,0z" transform="matrix(1,0,0,-1,29.002308,2.2025122)" fill="rgb(255,255,255)" stroke="rgb(0,0,0)" stroke-width="0.0010cm" stroke-linecap="round" stroke-linejoin="round" shaper:cutDepth="0" /><path d="M13.787692,-1.793384 a0.21,0.21 0 1,1 0.42,0 a0.21,0.21 0 1,1 -0.42,0z" transform="matrix(1,0,0,-1,29.002308,2.2025122)" fill="rgb(255,255,255)" stroke="rgb(0,0,0)" stroke-width="0.0010cm" stroke-linecap="round" stroke-linejoin="round" shaper:cutDepth="0" /><path d="M11.787692,-1.793384 a0.21,0.21 0 1,1 0.42,0 a0.21,0.21 0 1,1 -0.42,0z" transform="matrix(1,0,0,-1,29.002308,2.2025122)" fill="rgb(255,255,255)" stroke="rgb(0,0,0)" stroke-width="0.0010cm" stroke-linecap="round" stroke-linejoin="round" shaper:cutDepth="0" /><path d="M9.787692,-1.793384 a0.21,0.21 0 1,1 0.42,0 a0.21,0.21 0 1,1 -0.42,0z" transform="matrix(1,0,0,-1,29.002308,2.2025122)" fill="rgb(255,255,255)" stroke="rgb(0,0,0)" stroke-width="0.0010cm" stroke-linecap="round" stroke-linejoin="round" shaper:cutDepth="0" /><path d="M12.707692,-0.8015916 a0.29,0.29 0 1,1 0.58,0 a0.29,0.29 0 1,1 -0.58,0z" transform="matrix(1,0,0,-1,29.002308,2.2025122)" fill="rgb(255,255,255)" stroke="rgb(0,0,0)" stroke-width="0.0010cm" stroke-linecap="round" stroke-linejoin="round" shaper:cutDepth="0" /><path d="M10.707692,-0.8015916 a0.29,0.29 0 1,1 0.58,0 a0.29,0.29 0 1,1 -0.58,0z" transform="matrix(1,0,0,-1,29.002308,2.2025122)" fill="rgb(255,255,255)" stroke="rgb(0,0,0)" stroke-width="0.0010cm" stroke-linecap="round" stroke-linejoin="round" shaper:cutDepth="0" /><path d="M-17.292308,-0.8015916 a0.29,0.29 0 1,1 0.58,0 a0.29,0.29 0 1,1 -0.58,0z" transform="matrix(1,0,0,-1,29.002308,2.2025122)" fill="rgb(255,255,255)" stroke="rgb(0,0,0)" stroke-width="0.0010cm" stroke-linecap="round" stroke-linejoin="round" shaper:cutDepth="0" /><path d="M-17.292308,-10.8015916 a0.29,0.29 0 1,1 0.58,0 a0.29,0.29 0 1,1 -0.58,0z" transform="matrix(1,0,0,-1,29.002308,2.2025122)" fill="rgb(255,255,255)" stroke="rgb(0,0,0)" stroke-width="0.0010cm" stroke-linecap="round" stroke-linejoin="round" shaper:cutDepth="0" /><path d="M8.707692,-10.8015916 a0.29,0.29 0 1,1 0.58,0 a0.29,0.29 0 1,1 -0.58,0z" transform="matrix(1,0,0,-1,29.002308,2.2025122)" fill="rgb(255,255,255)" stroke="rgb(0,0,0)" stroke-width="0.0010cm" stroke-linecap="round" stroke-linejoin="round" shaper:cutDepth="0" /><path d="M8.707692,-0.8015916 a0.29,0.29 0 1,1 0.58,0 a0.29,0.29 0 1,1 -0.58,0z" transform="matrix(1,0,0,-1,29.002308,2.2025122)" fill="rgb(255,255,255)" stroke="rgb(0,0,0)" stroke-width="0.0010cm" stroke-linecap="round" stroke-linejoin="round" shaper:cutDepth="0" /><path d="M-15.292308,-0.8015916 a0.29,0.29 0 1,1 0.58,0 a0.29,0.29 0 1,1 -0.58,0z" transform="matrix(1,0,0,-1,29.002308,2.2025122)" fill="rgb(255,255,255)" stroke="rgb(0,0,0)" stroke-width="0.0010cm" stroke-linecap="round" stroke-linejoin="round" shaper:cutDepth="0" /><path d="M-15.292308,-2.8015916 a0.29,0.29 0 1,1 0.58,0 a0.29,0.29 0 1,1 -0.58,0z" transform="matrix(1,0,0,-1,29.002308,2.2025122)" fill="rgb(255,255,255)" stroke="rgb(0,0,0)" stroke-width="0.0010cm" stroke-linecap="round" stroke-linejoin="round" shaper:cutDepth="0" /><path d="M-15.292308,-4.8015916 a0.29,0.29 0 1,1 0.58,0 a0.29,0.29 0 1,1 -0.58,0z" transform="matrix(1,0,0,-1,29.002308,2.2025122)" fill="rgb(255,255,255)" stroke="rgb(0,0,0)" stroke-width="0.0010cm" stroke-linecap="round" stroke-linejoin="round" shaper:cutDepth="0" /><path d="M-15.292308,-6.8015916 a0.29,0.29 0 1,1 0.58,0 a0.29,0.29 0 1,1 -0.58,0z" transform="matrix(1,0,0,-1,29.002308,2.2025122)" fill="rgb(255,255,255)" stroke="rgb(0,0,0)" stroke-width="0.0010cm" stroke-linecap="round" stroke-linejoin="round" shaper:cutDepth="0" /><path d="M-15.292308,-8.8015916 a0.29,0.29 0 1,1 0.58,0 a0.29,0.29 0 1,1 -0.58,0z" transform="matrix(1,0,0,-1,29.002308,2.2025122)" fill="rgb(255,255,255)" stroke="rgb(0,0,0)" stroke-width="0.0010cm" stroke-linecap="round" stroke-linejoin="round" shaper:cutDepth="0" /><path d="M-13.292308,-0.8015916 a0.29,0.29 0 1,1 0.58,0 a0.29,0.29 0 1,1 -0.58,0z" transform="matrix(1,0,0,-1,29.002308,2.2025122)" fill="rgb(255,255,255)" stroke="rgb(0,0,0)" stroke-width="0.0010cm" stroke-linecap="round" stroke-linejoin="round" shaper:cutDepth="0" /><path d="M-11.292308,-0.8015916 a0.29,0.29 0 1,1 0.58,0 a0.29,0.29 0 1,1 -0.58,0z" transform="matrix(1,0,0,-1,29.002308,2.2025122)" fill="rgb(255,255,255)" stroke="rgb(0,0,0)" stroke-width="0.0010cm" stroke-linecap="round" stroke-linejoin="round" shaper:cutDepth="0" /><path d="M-11.292308,-6.8015916 a0.29,0.29 0 1,1 0.58,0 a0.29,0.29 0 1,1 -0.58,0z" transform="matrix(1,0,0,-1,29.002308,2.2025122)" fill="rgb(255,255,255)" stroke="rgb(0,0,0)" stroke-width="0.0010cm" stroke-linecap="round" stroke-linejoin="round" shaper:cutDepth="0" /><path d="M-11.292308,-8.8015916 a0.29,0.29 0 1,1 0.58,0 a0.29,0.29 0 1,1 -0.58,0z" transform="matrix(1,0,0,-1,29.002308,2.2025122)" fill="rgb(255,255,255)" stroke="rgb(0,0,0)" stroke-width="0.0010cm" stroke-linecap="round" stroke-linejoin="round" shaper:cutDepth="0" /><path d="M-7.292308,-10.8015916 a0.29,0.29 0 1,1 0.58,0 a0.29,0.29 0 1,1 -0.58,0z" transform="matrix(1,0,0,-1,29.002308,2.2025122)" fill="rgb(255,255,255)" stroke="rgb(0,0,0)" stroke-width="0.0010cm" stroke-linecap="round" stroke-linejoin="round" shaper:cutDepth="0" /><path d="M-5.292308,-10.8015916 a0.29,0.29 0 1,1 0.58,0 a0.29,0.29 0 1,1 -0.58,0z" transform="matrix(1,0,0,-1,29.002308,2.2025122)" fill="rgb(255,255,255)" stroke="rgb(0,0,0)" stroke-width="0.0010cm" stroke-linecap="round" stroke-linejoin="round" shaper:cutDepth="0" /><path d="M-3.292308,-10.8015916 a0.29,0.29 0 1,1 0.58,0 a0.29,0.29 0 1,1 -0.58,0z" transform="matrix(1,0,0,-1,29.002308,2.2025122)" fill="rgb(255,255,255)" stroke="rgb(0,0,0)" stroke-width="0.0010cm" stroke-linecap="round" stroke-linejoin="round" shaper:cutDepth="0" /><path d="M-5.292308,-0.8015916 a0.29,0.29 0 1,1 0.58,0 a0.29,0.29 0 1,1 -0.58,0z" transform="matrix(1,0,0,-1,29.002308,2.2025122)" fill="rgb(255,255,255)" stroke="rgb(0,0,0)" stroke-width="0.0010cm" stroke-linecap="round" stroke-linejoin="round" shaper:cutDepth="0" /><path d="M-3.292308,-0.8015916 a0.29,0.29 0 1,1 0.58,0 a0.29,0.29 0 1,1 -0.58,0z" transform="matrix(1,0,0,-1,29.002308,2.2025122)" fill="rgb(255,255,255)" stroke="rgb(0,0,0)" stroke-width="0.0010cm" stroke-linecap="round" stroke-linejoin="round" shaper:cutDepth="0" /><path d="M-1.292308,-0.8015916 a0.29,0.29 0 1,1 0.58,0 a0.29,0.29 0 1,1 -0.58,0z" transform="matrix(1,0,0,-1,29.002308,2.2025122)" fill="rgb(255,255,255)" stroke="rgb(0,0,0)" stroke-width="0.0010cm" stroke-linecap="round" stroke-linejoin="round" shaper:cutDepth="0" /><path d="M-1.292308,-2.8015916 a0.29,0.29 0 1,1 0.58,0 a0.29,0.29 0 1,1 -0.58,0z" transform="matrix(1,0,0,-1,29.002308,2.2025122)" fill="rgb(255,255,255)" stroke="rgb(0,0,0)" stroke-width="0.0010cm" stroke-linecap="round" stroke-linejoin="round" shaper:cutDepth="0" /><path d="M-1.292308,-4.8015916 a0.29,0.29 0 1,1 0.58,0 a0.29,0.29 0 1,1 -0.58,0z" transform="matrix(1,0,0,-1,29.002308,2.2025122)" fill="rgb(255,255,255)" stroke="rgb(0,0,0)" stroke-width="0.0010cm" stroke-linecap="round" stroke-linejoin="round" shaper:cutDepth="0" /><path d="M-1.292308,-6.8015916 a0.29,0.29 0 1,1 0.58,0 a0.29,0.29 0 1,1 -0.58,0z" transform="matrix(1,0,0,-1,29.002308,2.2025122)" fill="rgb(255,255,255)" stroke="rgb(0,0,0)" stroke-width="0.0010cm" stroke-linecap="round" stroke-linejoin="round" shaper:cutDepth="0" /><path d="M-1.292308,-8.8015916 a0.29,0.29 0 1,1 0.58,0 a0.29,0.29 0 1,1 -0.58,0z" transform="matrix(1,0,0,-1,29.002308,2.2025122)" fill="rgb(255,255,255)" stroke="rgb(0,0,0)" stroke-width="0.0010cm" stroke-linecap="round" stroke-linejoin="round" shaper:cutDepth="0" /><path d="M6.707692,-10.8015916 a0.29,0.29 0 1,1 0.58,0 a0.29,0.29 0 1,1 -0.58,0z" transform="matrix(1,0,0,-1,29.002308,2.2025122)" fill="rgb(255,255,255)" stroke="rgb(0,0,0)" stroke-width="0.0010cm" stroke-linecap="round" stroke-linejoin="round" shaper:cutDepth="0" /><path d="M-16.212308,0.206616 a0.21,0.21 0 1,1 0.42,0 a0.21,0.21 0 1,1 -0.42,0z" transform="matrix(1,0,0,-1,29.002308,2.2025122)" fill="rgb(255,255,255)" stroke="rgb(0,0,0)" stroke-width="0.0010cm" stroke-linecap="round" stroke-linejoin="round" shaper:cutDepth="0" /><path d="M-16.212308,-1.793384 a0.21,0.21 0 1,1 0.42,0 a0.21,0.21 0 1,1 -0.42,0z" transform="matrix(1,0,0,-1,29.002308,2.2025122)" fill="rgb(255,255,255)" stroke="rgb(0,0,0)" stroke-width="0.0010cm" stroke-linecap="round" stroke-linejoin="round" shaper:cutDepth="0" /><path d="M-16.212308,-3.793384 a0.21,0.21 0 1,1 0.42,0 a0.21,0.21 0 1,1 -0.42,0z" transform="matrix(1,0,0,-1,29.002308,2.2025122)" fill="rgb(255,255,255)" stroke="rgb(0,0,0)" stroke-width="0.0010cm" stroke-linecap="round" stroke-linejoin="round" shaper:cutDepth="0" /><path d="M-16.212308,-5.793384 a0.21,0.21 0 1,1 0.42,0 a0.21,0.21 0 1,1 -0.42,0z" transform="matrix(1,0,0,-1,29.002308,2.2025122)" fill="rgb(255,255,255)" stroke="rgb(0,0,0)" stroke-width="0.0010cm" stroke-linecap="round" stroke-linejoin="round" shaper:cutDepth="0" /><path d="M-16.212308,-7.793384 a0.21,0.21 0 1,1 0.42,0 a0.21,0.21 0 1,1 -0.42,0z" transform="matrix(1,0,0,-1,29.002308,2.2025122)" fill="rgb(255,255,255)" stroke="rgb(0,0,0)" stroke-width="0.0010cm" stroke-linecap="round" stroke-linejoin="round" shaper:cutDepth="0" /><path d="M-16.212308,-9.793384 a0.21,0.21 0 1,1 0.42,0 a0.21,0.21 0 1,1 -0.42,0z" transform="matrix(1,0,0,-1,29.002308,2.2025122)" fill="rgb(255,255,255)" stroke="rgb(0,0,0)" stroke-width="0.0010cm" stroke-linecap="round" stroke-linejoin="round" shaper:cutDepth="0" /><path d="M-14.212308,-11.793384 a0.21,0.21 0 1,1 0.42,0 a0.21,0.21 0 1,1 -0.42,0z" transform="matrix(1,0,0,-1,29.002308,2.2025122)" fill="rgb(255,255,255)" stroke="rgb(0,0,0)" stroke-width="0.0010cm" stroke-linecap="round" stroke-linejoin="round" shaper:cutDepth="0" /><path d="M-12.212308,-1.793384 a0.21,0.21 0 1,1 0.42,0 a0.21,0.21 0 1,1 -0.42,0z" transform="matrix(1,0,0,-1,29.002308,2.2025122)" fill="rgb(255,255,255)" stroke="rgb(0,0,0)" stroke-width="0.0010cm" stroke-linecap="round" stroke-linejoin="round" shaper:cutDepth="0" /><path d="M-12.212308,-5.793384 a0.21,0.21 0 1,1 0.42,0 a0.21,0.21 0 1,1 -0.42,0z" transform="matrix(1,0,0,-1,29.002308,2.2025122)" fill="rgb(255,255,255)" stroke="rgb(0,0,0)" stroke-width="0.0010cm" stroke-linecap="round" stroke-linejoin="round" shaper:cutDepth="0" /><path d="M-11.292308,-4.8015916 a0.29,0.29 0 1,1 0.58,0 a0.29,0.29 0 1,1 -0.58,0z" transform="matrix(1,0,0,-1,29.002308,2.2025122)" fill="rgb(255,255,255)" stroke="rgb(0,0,0)" stroke-width="0.0010cm" stroke-linecap="round" stroke-linejoin="round" shaper:cutDepth="0" /><path d="M-12.212308,-9.793384 a0.21,0.21 0 1,1 0.42,0 a0.21,0.21 0 1,1 -0.42,0z" transform="matrix(1,0,0,-1,29.002308,2.2025122)" fill="rgb(255,255,255)" stroke="rgb(0,0,0)" stroke-width="0.0010cm" stroke-linecap="round" stroke-linejoin="round" shaper:cutDepth="0" /><path d="M-10.212308,-11.793384 a0.21,0.21 0 1,1 0.42,0 a0.21,0.21 0 1,1 -0.42,0z" transform="matrix(1,0,0,-1,29.002308,2.2025122)" fill="rgb(255,255,255)" stroke="rgb(0,0,0)" stroke-width="0.0010cm" stroke-linecap="round" stroke-linejoin="round" shaper:cutDepth="0" /><path d="M-10.212308,-7.793384 a0.21,0.21 0 1,1 0.42,0 a0.21,0.21 0 1,1 -0.42,0z" transform="matrix(1,0,0,-1,29.002308,2.2025122)" fill="rgb(255,255,255)" stroke="rgb(0,0,0)" stroke-width="0.0010cm" stroke-linecap="round" stroke-linejoin="round" shaper:cutDepth="0" /><path d="M-10.212308,-3.793384 a0.21,0.21 0 1,1 0.42,0 a0.21,0.21 0 1,1 -0.42,0z" transform="matrix(1,0,0,-1,29.002308,2.2025122)" fill="rgb(255,255,255)" stroke="rgb(0,0,0)" stroke-width="0.0010cm" stroke-linecap="round" stroke-linejoin="round" shaper:cutDepth="0" /><path d="M-10.212308,0.206616 a0.21,0.21 0 1,1 0.42,0 a0.21,0.21 0 1,1 -0.42,0z" transform="matrix(1,0,0,-1,29.002308,2.2025122)" fill="rgb(255,255,255)" stroke="rgb(0,0,0)" stroke-width="0.0010cm" stroke-linecap="round" stroke-linejoin="round" shaper:cutDepth="0" /><path d="M-8.212308,-1.793384 a0.21,0.21 0 1,1 0.42,0 a0.21,0.21 0 1,1 -0.42,0z" transform="matrix(1,0,0,-1,29.002308,2.2025122)" fill="rgb(255,255,255)" stroke="rgb(0,0,0)" stroke-width="0.0010cm" stroke-linecap="round" stroke-linejoin="round" shaper:cutDepth="0" /><path d="M-8.212308,-5.793384 a0.21,0.21 0 1,1 0.42,0 a0.21,0.21 0 1,1 -0.42,0z" transform="matrix(1,0,0,-1,29.002308,2.2025122)" fill="rgb(255,255,255)" stroke="rgb(0,0,0)" stroke-width="0.0010cm" stroke-linecap="round" stroke-linejoin="round" shaper:cutDepth="0" /><path d="M-8.212308,-9.793384 a0.21,0.21 0 1,1 0.42,0 a0.21,0.21 0 1,1 -0.42,0z" transform="matrix(1,0,0,-1,29.002308,2.2025122)" fill="rgb(255,255,255)" stroke="rgb(0,0,0)" stroke-width="0.0010cm" stroke-linecap="round" stroke-linejoin="round" shaper:cutDepth="0" /><path d="M-6.212308,-11.793384 a0.21,0.21 0 1,1 0.42,0 a0.21,0.21 0 1,1 -0.42,0z" transform="matrix(1,0,0,-1,29.002308,2.2025122)" fill="rgb(255,255,255)" stroke="rgb(0,0,0)" stroke-width="0.0010cm" stroke-linecap="round" stroke-linejoin="round" shaper:cutDepth="0" /><path d="M-6.212308,-7.793384 a0.21,0.21 0 1,1 0.42,0 a0.21,0.21 0 1,1 -0.42,0z" transform="matrix(1,0,0,-1,29.002308,2.2025122)" fill="rgb(255,255,255)" stroke="rgb(0,0,0)" stroke-width="0.0010cm" stroke-linecap="round" stroke-linejoin="round" shaper:cutDepth="0" /><path d="M-6.212308,-3.793384 a0.21,0.21 0 1,1 0.42,0 a0.21,0.21 0 1,1 -0.42,0z" transform="matrix(1,0,0,-1,29.002308,2.2025122)" fill="rgb(255,255,255)" stroke="rgb(0,0,0)" stroke-width="0.0010cm" stroke-linecap="round" stroke-linejoin="round" shaper:cutDepth="0" /><path d="M-6.212308,0.206616 a0.21,0.21 0 1,1 0.42,0 a0.21,0.21 0 1,1 -0.42,0z" transform="matrix(1,0,0,-1,29.002308,2.2025122)" fill="rgb(255,255,255)" stroke="rgb(0,0,0)" stroke-width="0.0010cm" stroke-linecap="round" stroke-linejoin="round" shaper:cutDepth="0" /><path d="M-4.212308,-11.793384 a0.21,0.21 0 1,1 0.42,0 a0.21,0.21 0 1,1 -0.42,0z" transform="matrix(1,0,0,-1,29.002308,2.2025122)" fill="rgb(255,255,255)" stroke="rgb(0,0,0)" stroke-width="0.0010cm" stroke-linecap="round" stroke-linejoin="round" shaper:cutDepth="0" /><path d="M-2.212308,-9.793384 a0.21,0.21 0 1,1 0.42,0 a0.21,0.21 0 1,1 -0.42,0z" transform="matrix(1,0,0,-1,29.002308,2.2025122)" fill="rgb(255,255,255)" stroke="rgb(0,0,0)" stroke-width="0.0010cm" stroke-linecap="round" stroke-linejoin="round" shaper:cutDepth="0" /><path d="M-2.212308,-5.793384 a0.21,0.21 0 1,1 0.42,0 a0.21,0.21 0 1,1 -0.42,0z" transform="matrix(1,0,0,-1,29.002308,2.2025122)" fill="rgb(255,255,255)" stroke="rgb(0,0,0)" stroke-width="0.0010cm" stroke-linecap="round" stroke-linejoin="round" shaper:cutDepth="0" /><path d="M-2.212308,-1.793384 a0.21,0.21 0 1,1 0.42,0 a0.21,0.21 0 1,1 -0.42,0z" transform="matrix(1,0,0,-1,29.002308,2.2025122)" fill="rgb(255,255,255)" stroke="rgb(0,0,0)" stroke-width="0.0010cm" stroke-linecap="round" stroke-linejoin="round" shaper:cutDepth="0" /><path d="M-0.212308,0.206616 a0.21,0.21 0 1,1 0.42,0 a0.21,0.21 0 1,1 -0.42,0z" transform="matrix(1,0,0,-1,29.002308,2.2025122)" fill="rgb(255,255,255)" stroke="rgb(0,0,0)" stroke-width="0.0010cm" stroke-linecap="round" stroke-linejoin="round" shaper:cutDepth="0" /><path d="M-0.212308,-3.793384 a0.21,0.21 0 1,1 0.42,0 a0.21,0.21 0 1,1 -0.42,0z" transform="matrix(1,0,0,-1,29.002308,2.2025122)" fill="rgb(255,255,255)" stroke="rgb(0,0,0)" stroke-width="0.0010cm" stroke-linecap="round" stroke-linejoin="round" shaper:cutDepth="0" /><path d="M-0.212308,-7.793384 a0.21,0.21 0 1,1 0.42,0 a0.21,0.21 0 1,1 -0.42,0z" transform="matrix(1,0,0,-1,29.002308,2.2025122)" fill="rgb(255,255,255)" stroke="rgb(0,0,0)" stroke-width="0.0010cm" stroke-linecap="round" stroke-linejoin="round" shaper:cutDepth="0" /><path d="M-0.212308,-11.793384 a0.21,0.21 0 1,1 0.42,0 a0.21,0.21 0 1,1 -0.42,0z" transform="matrix(1,0,0,-1,29.002308,2.2025122)" fill="rgb(255,255,255)" stroke="rgb(0,0,0)" stroke-width="0.0010cm" stroke-linecap="round" stroke-linejoin="round" shaper:cutDepth="0" /><path d="M1.787692,-9.793384 a0.21,0.21 0 1,1 0.42,0 a0.21,0.21 0 1,1 -0.42,0z" transform="matrix(1,0,0,-1,29.002308,2.2025122)" fill="rgb(255,255,255)" stroke="rgb(0,0,0)" stroke-width="0.0010cm" stroke-linecap="round" stroke-linejoin="round" shaper:cutDepth="0" /><path d="M1.787692,-7.793384 a0.21,0.21 0 1,1 0.42,0 a0.21,0.21 0 1,1 -0.42,0z" transform="matrix(1,0,0,-1,29.002308,2.2025122)" fill="rgb(255,255,255)" stroke="rgb(0,0,0)" stroke-width="0.0010cm" stroke-linecap="round" stroke-linejoin="round" shaper:cutDepth="0" /><path d="M1.787692,-5.793384 a0.21,0.21 0 1,1 0.42,0 a0.21,0.21 0 1,1 -0.42,0z" transform="matrix(1,0,0,-1,29.002308,2.2025122)" fill="rgb(255,255,255)" stroke="rgb(0,0,0)" stroke-width="0.0010cm" stroke-linecap="round" stroke-linejoin="round" shaper:cutDepth="0" /><path d="M3.787692,-3.793384 a0.21,0.21 0 1,1 0.42,0 a0.21,0.21 0 1,1 -0.42,0z" transform="matrix(1,0,0,-1,29.002308,2.2025122)" fill="rgb(255,255,255)" stroke="rgb(0,0,0)" stroke-width="0.0010cm" stroke-linecap="round" stroke-linejoin="round" shaper:cutDepth="0" /><path d="M1.787692,-1.793384 a0.21,0.21 0 1,1 0.42,0 a0.21,0.21 0 1,1 -0.42,0z" transform="matrix(1,0,0,-1,29.002308,2.2025122)" fill="rgb(255,255,255)" stroke="rgb(0,0,0)" stroke-width="0.0010cm" stroke-linecap="round" stroke-linejoin="round" shaper:cutDepth="0" /><path d="M3.787692,0.206616 a0.21,0.21 0 1,1 0.42,0 a0.21,0.21 0 1,1 -0.42,0z" transform="matrix(1,0,0,-1,29.002308,2.2025122)" fill="rgb(255,255,255)" stroke="rgb(0,0,0)" stroke-width="0.0010cm" stroke-linecap="round" stroke-linejoin="round" shaper:cutDepth="0" /><path d="M7.787692,0.206616 a0.21,0.21 0 1,1 0.42,0 a0.21,0.21 0 1,1 -0.42,0z" transform="matrix(1,0,0,-1,29.002308,2.2025122)" fill="rgb(255,255,255)" stroke="rgb(0,0,0)" stroke-width="0.0010cm" stroke-linecap="round" stroke-linejoin="round" shaper:cutDepth="0" /><path d="M5.787692,-1.793384 a0.21,0.21 0 1,1 0.42,0 a0.21,0.21 0 1,1 -0.42,0z" transform="matrix(1,0,0,-1,29.002308,2.2025122)" fill="rgb(255,255,255)" stroke="rgb(0,0,0)" stroke-width="0.0010cm" stroke-linecap="round" stroke-linejoin="round" shaper:cutDepth="0" /><path d="M7.787692,-3.793384 a0.21,0.21 0 1,1 0.42,0 a0.21,0.21 0 1,1 -0.42,0z" transform="matrix(1,0,0,-1,29.002308,2.2025122)" fill="rgb(255,255,255)" stroke="rgb(0,0,0)" stroke-width="0.0010cm" stroke-linecap="round" stroke-linejoin="round" shaper:cutDepth="0" /><path d="M5.787692,-5.793384 a0.21,0.21 0 1,1 0.42,0 a0.21,0.21 0 1,1 -0.42,0z" transform="matrix(1,0,0,-1,29.002308,2.2025122)" fill="rgb(255,255,255)" stroke="rgb(0,0,0)" stroke-width="0.0010cm" stroke-linecap="round" stroke-linejoin="round" shaper:cutDepth="0" /><path d="M5.787692,-7.793384 a0.21,0.21 0 1,1 0.42,0 a0.21,0.21 0 1,1 -0.42,0z" transform="matrix(1,0,0,-1,29.002308,2.2025122)" fill="rgb(255,255,255)" stroke="rgb(0,0,0)" stroke-width="0.0010cm" stroke-linecap="round" stroke-linejoin="round" shaper:cutDepth="0" /><path d="M7.787692,-11.793384 a0.21,0.21 0 1,1 0.42,0 a0.21,0.21 0 1,1 -0.42,0z" transform="matrix(1,0,0,-1,29.002308,2.2025122)" fill="rgb(255,255,255)" stroke="rgb(0,0,0)" stroke-width="0.0010cm" stroke-linecap="round" stroke-linejoin="round" shaper:cutDepth="0" /><path d="M7.787692,-9.793384 a0.21,0.21 0 1,1 0.42,0 a0.21,0.21 0 1,1 -0.42,0z" transform="matrix(1,0,0,-1,29.002308,2.2025122)" fill="rgb(255,255,255)" stroke="rgb(0,0,0)" stroke-width="0.0010cm" stroke-linecap="round" stroke-linejoin="round" shaper:cutDepth="0" /><path d="M5.787692,-11.793384 a0.21,0.21 0 1,1 0.42,0 a0.21,0.21 0 1,1 -0.42,0z" transform="matrix(1,0,0,-1,29.002308,2.2025122)" fill="rgb(255,255,255)" stroke="rgb(0,0,0)" stroke-width="0.0010cm" stroke-linecap="round" stroke-linejoin="round" shaper:cutDepth="0" /><path d="M5.787692,-9.793384 a0.21,0.21 0 1,1 0.42,0 a0.21,0.21 0 1,1 -0.42,0z" transform="matrix(1,0,0,-1,29.002308,2.2025122)" fill="rgb(255,255,255)" stroke="rgb(0,0,0)" stroke-width="0.0010cm" stroke-linecap="round" stroke-linejoin="round" shaper:cutDepth="0" /><path d="M3.787692,-9.793384 a0.21,0.21 0 1,1 0.42,0 a0.21,0.21 0 1,1 -0.42,0z" transform="matrix(1,0,0,-1,29.002308,2.2025122)" fill="rgb(255,255,255)" stroke="rgb(0,0,0)" stroke-width="0.0010cm" stroke-linecap="round" stroke-linejoin="round" shaper:cutDepth="0" /><path d="M3.787692,-11.793384 a0.21,0.21 0 1,1 0.42,0 a0.21,0.21 0 1,1 -0.42,0z" transform="matrix(1,0,0,-1,29.002308,2.2025122)" fill="rgb(255,255,255)" stroke="rgb(0,0,0)" stroke-width="0.0010cm" stroke-linecap="round" stroke-linejoin="round" shaper:cutDepth="0" /><path d="M7.787692,-7.793384 a0.21,0.21 0 1,1 0.42,0 a0.21,0.21 0 1,1 -0.42,0z" transform="matrix(1,0,0,-1,29.002308,2.2025122)" fill="rgb(255,255,255)" stroke="rgb(0,0,0)" stroke-width="0.0010cm" stroke-linecap="round" stroke-linejoin="round" shaper:cutDepth="0" /><path d="M7.787692,-5.793384 a0.21,0.21 0 1,1 0.42,0 a0.21,0.21 0 1,1 -0.42,0z" transform="matrix(1,0,0,-1,29.002308,2.2025122)" fill="rgb(255,255,255)" stroke="rgb(0,0,0)" stroke-width="0.0010cm" stroke-linecap="round" stroke-linejoin="round" shaper:cutDepth="0" /><path d="M5.787692,-3.793384 a0.21,0.21 0 1,1 0.42,0 a0.21,0.21 0 1,1 -0.42,0z" transform="matrix(1,0,0,-1,29.002308,2.2025122)" fill="rgb(255,255,255)" stroke="rgb(0,0,0)" stroke-width="0.0010cm" stroke-linecap="round" stroke-linejoin="round" shaper:cutDepth="0" /><path d="M7.787692,-1.793384 a0.21,0.21 0 1,1 0.42,0 a0.21,0.21 0 1,1 -0.42,0z" transform="matrix(1,0,0,-1,29.002308,2.2025122)" fill="rgb(255,255,255)" stroke="rgb(0,0,0)" stroke-width="0.0010cm" stroke-linecap="round" stroke-linejoin="round" shaper:cutDepth="0" /><path d="M5.787692,0.206616 a0.21,0.21 0 1,1 0.42,0 a0.21,0.21 0 1,1 -0.42,0z" transform="matrix(1,0,0,-1,29.002308,2.2025122)" fill="rgb(255,255,255)" stroke="rgb(0,0,0)" stroke-width="0.0010cm" stroke-linecap="round" stroke-linejoin="round" shaper:cutDepth="0" /><path d="M1.787692,0.206616 a0.21,0.21 0 1,1 0.42,0 a0.21,0.21 0 1,1 -0.42,0z" transform="matrix(1,0,0,-1,29.002308,2.2025122)" fill="rgb(255,255,255)" stroke="rgb(0,0,0)" stroke-width="0.0010cm" stroke-linecap="round" stroke-linejoin="round" shaper:cutDepth="0" /><path d="M3.787692,-1.793384 a0.21,0.21 0 1,1 0.42,0 a0.21,0.21 0 1,1 -0.42,0z" transform="matrix(1,0,0,-1,29.002308,2.2025122)" fill="rgb(255,255,255)" stroke="rgb(0,0,0)" stroke-width="0.0010cm" stroke-linecap="round" stroke-linejoin="round" shaper:cutDepth="0" /><path d="M1.787692,-3.793384 a0.21,0.21 0 1,1 0.42,0 a0.21,0.21 0 1,1 -0.42,0z" transform="matrix(1,0,0,-1,29.002308,2.2025122)" fill="rgb(255,255,255)" stroke="rgb(0,0,0)" stroke-width="0.0010cm" stroke-linecap="round" stroke-linejoin="round" shaper:cutDepth="0" /><path d="M3.787692,-5.793384 a0.21,0.21 0 1,1 0.42,0 a0.21,0.21 0 1,1 -0.42,0z" transform="matrix(1,0,0,-1,29.002308,2.2025122)" fill="rgb(255,255,255)" stroke="rgb(0,0,0)" stroke-width="0.0010cm" stroke-linecap="round" stroke-linejoin="round" shaper:cutDepth="0" /><path d="M3.787692,-7.793384 a0.21,0.21 0 1,1 0.42,0 a0.21,0.21 0 1,1 -0.42,0z" transform="matrix(1,0,0,-1,29.002308,2.2025122)" fill="rgb(255,255,255)" stroke="rgb(0,0,0)" stroke-width="0.0010cm" stroke-linecap="round" stroke-linejoin="round" shaper:cutDepth="0" /><path d="M1.787692,-11.793384 a0.21,0.21 0 1,1 0.42,0 a0.21,0.21 0 1,1 -0.42,0z" transform="matrix(1,0,0,-1,29.002308,2.2025122)" fill="rgb(255,255,255)" stroke="rgb(0,0,0)" stroke-width="0.0010cm" stroke-linecap="round" stroke-linejoin="round" shaper:cutDepth="0" /><path d="M-0.212308,-9.793384 a0.21,0.21 0 1,1 0.42,0 a0.21,0.21 0 1,1 -0.42,0z" transform="matrix(1,0,0,-1,29.002308,2.2025122)" fill="rgb(255,255,255)" stroke="rgb(0,0,0)" stroke-width="0.0010cm" stroke-linecap="round" stroke-linejoin="round" shaper:cutDepth="0" /><path d="M-0.212308,-5.793384 a0.21,0.21 0 1,1 0.42,0 a0.21,0.21 0 1,1 -0.42,0z" transform="matrix(1,0,0,-1,29.002308,2.2025122)" fill="rgb(255,255,255)" stroke="rgb(0,0,0)" stroke-width="0.0010cm" stroke-linecap="round" stroke-linejoin="round" shaper:cutDepth="0" /><path d="M-0.212308,-1.793384 a0.21,0.21 0 1,1 0.42,0 a0.21,0.21 0 1,1 -0.42,0z" transform="matrix(1,0,0,-1,29.002308,2.2025122)" fill="rgb(255,255,255)" stroke="rgb(0,0,0)" stroke-width="0.0010cm" stroke-linecap="round" stroke-linejoin="round" shaper:cutDepth="0" /><path d="M-2.212308,0.206616 a0.21,0.21 0 1,1 0.42,0 a0.21,0.21 0 1,1 -0.42,0z" transform="matrix(1,0,0,-1,29.002308,2.2025122)" fill="rgb(255,255,255)" stroke="rgb(0,0,0)" stroke-width="0.0010cm" stroke-linecap="round" stroke-linejoin="round" shaper:cutDepth="0" /><path d="M-2.212308,-3.793384 a0.21,0.21 0 1,1 0.42,0 a0.21,0.21 0 1,1 -0.42,0z" transform="matrix(1,0,0,-1,29.002308,2.2025122)" fill="rgb(255,255,255)" stroke="rgb(0,0,0)" stroke-width="0.0010cm" stroke-linecap="round" stroke-linejoin="round" shaper:cutDepth="0" /><path d="M-2.212308,-7.793384 a0.21,0.21 0 1,1 0.42,0 a0.21,0.21 0 1,1 -0.42,0z" transform="matrix(1,0,0,-1,29.002308,2.2025122)" fill="rgb(255,255,255)" stroke="rgb(0,0,0)" stroke-width="0.0010cm" stroke-linecap="round" stroke-linejoin="round" shaper:cutDepth="0" /><path d="M-2.212308,-11.793384 a0.21,0.21 0 1,1 0.42,0 a0.21,0.21 0 1,1 -0.42,0z" transform="matrix(1,0,0,-1,29.002308,2.2025122)" fill="rgb(255,255,255)" stroke="rgb(0,0,0)" stroke-width="0.0010cm" stroke-linecap="round" stroke-linejoin="round" shaper:cutDepth="0" /><path d="M-4.212308,0.206616 a0.21,0.21 0 1,1 0.42,0 a0.21,0.21 0 1,1 -0.42,0z" transform="matrix(1,0,0,-1,29.002308,2.2025122)" fill="rgb(255,255,255)" stroke="rgb(0,0,0)" stroke-width="0.0010cm" stroke-linecap="round" stroke-linejoin="round" shaper:cutDepth="0" /><path d="M-6.212308,-1.793384 a0.21,0.21 0 1,1 0.42,0 a0.21,0.21 0 1,1 -0.42,0z" transform="matrix(1,0,0,-1,29.002308,2.2025122)" fill="rgb(255,255,255)" stroke="rgb(0,0,0)" stroke-width="0.0010cm" stroke-linecap="round" stroke-linejoin="round" shaper:cutDepth="0" /><path d="M-6.212308,-5.793384 a0.21,0.21 0 1,1 0.42,0 a0.21,0.21 0 1,1 -0.42,0z" transform="matrix(1,0,0,-1,29.002308,2.2025122)" fill="rgb(255,255,255)" stroke="rgb(0,0,0)" stroke-width="0.0010cm" stroke-linecap="round" stroke-linejoin="round" shaper:cutDepth="0" /><path d="M-6.212308,-9.793384 a0.21,0.21 0 1,1 0.42,0 a0.21,0.21 0 1,1 -0.42,0z" transform="matrix(1,0,0,-1,29.002308,2.2025122)" fill="rgb(255,255,255)" stroke="rgb(0,0,0)" stroke-width="0.0010cm" stroke-linecap="round" stroke-linejoin="round" shaper:cutDepth="0" /><path d="M-8.212308,-11.793384 a0.21,0.21 0 1,1 0.42,0 a0.21,0.21 0 1,1 -0.42,0z" transform="matrix(1,0,0,-1,29.002308,2.2025122)" fill="rgb(255,255,255)" stroke="rgb(0,0,0)" stroke-width="0.0010cm" stroke-linecap="round" stroke-linejoin="round" shaper:cutDepth="0" /><path d="M-8.212308,-7.793384 a0.21,0.21 0 1,1 0.42,0 a0.21,0.21 0 1,1 -0.42,0z" transform="matrix(1,0,0,-1,29.002308,2.2025122)" fill="rgb(255,255,255)" stroke="rgb(0,0,0)" stroke-width="0.0010cm" stroke-linecap="round" stroke-linejoin="round" shaper:cutDepth="0" /><path d="M-8.212308,-3.793384 a0.21,0.21 0 1,1 0.42,0 a0.21,0.21 0 1,1 -0.42,0z" transform="matrix(1,0,0,-1,29.002308,2.2025122)" fill="rgb(255,255,255)" stroke="rgb(0,0,0)" stroke-width="0.0010cm" stroke-linecap="round" stroke-linejoin="round" shaper:cutDepth="0" /><path d="M-8.212308,0.206616 a0.21,0.21 0 1,1 0.42,0 a0.21,0.21 0 1,1 -0.42,0z" transform="matrix(1,0,0,-1,29.002308,2.2025122)" fill="rgb(255,255,255)" stroke="rgb(0,0,0)" stroke-width="0.0010cm" stroke-linecap="round" stroke-linejoin="round" shaper:cutDepth="0" /><path d="M-10.212308,-1.793384 a0.21,0.21 0 1,1 0.42,0 a0.21,0.21 0 1,1 -0.42,0z" transform="matrix(1,0,0,-1,29.002308,2.2025122)" fill="rgb(255,255,255)" stroke="rgb(0,0,0)" stroke-width="0.0010cm" stroke-linecap="round" stroke-linejoin="round" shaper:cutDepth="0" /><path d="M-10.212308,-5.793384 a0.21,0.21 0 1,1 0.42,0 a0.21,0.21 0 1,1 -0.42,0z" transform="matrix(1,0,0,-1,29.002308,2.2025122)" fill="rgb(255,255,255)" stroke="rgb(0,0,0)" stroke-width="0.0010cm" stroke-linecap="round" stroke-linejoin="round" shaper:cutDepth="0" /><path d="M-10.212308,-9.793384 a0.21,0.21 0 1,1 0.42,0 a0.21,0.21 0 1,1 -0.42,0z" transform="matrix(1,0,0,-1,29.002308,2.2025122)" fill="rgb(255,255,255)" stroke="rgb(0,0,0)" stroke-width="0.0010cm" stroke-linecap="round" stroke-linejoin="round" shaper:cutDepth="0" /><path d="M-12.212308,-11.793384 a0.21,0.21 0 1,1 0.42,0 a0.21,0.21 0 1,1 -0.42,0z" transform="matrix(1,0,0,-1,29.002308,2.2025122)" fill="rgb(255,255,255)" stroke="rgb(0,0,0)" stroke-width="0.0010cm" stroke-linecap="round" stroke-linejoin="round" shaper:cutDepth="0" /><path d="M-12.212308,-7.793384 a0.21,0.21 0 1,1 0.42,0 a0.21,0.21 0 1,1 -0.42,0z" transform="matrix(1,0,0,-1,29.002308,2.2025122)" fill="rgb(255,255,255)" stroke="rgb(0,0,0)" stroke-width="0.0010cm" stroke-linecap="round" stroke-linejoin="round" shaper:cutDepth="0" /><path d="M-11.292308,-2.8015916 a0.29,0.29 0 1,1 0.58,0 a0.29,0.29 0 1,1 -0.58,0z" transform="matrix(1,0,0,-1,29.002308,2.2025122)" fill="rgb(255,255,255)" stroke="rgb(0,0,0)" stroke-width="0.0010cm" stroke-linecap="round" stroke-linejoin="round" shaper:cutDepth="0" /><path d="M-12.212308,-3.793384 a0.21,0.21 0 1,1 0.42,0 a0.21,0.21 0 1,1 -0.42,0z" transform="matrix(1,0,0,-1,29.002308,2.2025122)" fill="rgb(255,255,255)" stroke="rgb(0,0,0)" stroke-width="0.0010cm" stroke-linecap="round" stroke-linejoin="round" shaper:cutDepth="0" /><path d="M-12.212308,0.206616 a0.21,0.21 0 1,1 0.42,0 a0.21,0.21 0 1,1 -0.42,0z" transform="matrix(1,0,0,-1,29.002308,2.2025122)" fill="rgb(255,255,255)" stroke="rgb(0,0,0)" stroke-width="0.0010cm" stroke-linecap="round" stroke-linejoin="round" shaper:cutDepth="0" /><path d="M-16.212308,-11.793384 a0.21,0.21 0 1,1 0.42,0 a0.21,0.21 0 1,1 -0.42,0z" transform="matrix(1,0,0,-1,29.002308,2.2025122)" fill="rgb(255,255,255)" stroke="rgb(0,0,0)" stroke-width="0.0010cm" stroke-linecap="round" stroke-linejoin="round" shaper:cutDepth="0" /><path d="M-14.212308,-9.793384 a0.21,0.21 0 1,1 0.42,0 a0.21,0.21 0 1,1 -0.42,0z" transform="matrix(1,0,0,-1,29.002308,2.2025122)" fill="rgb(255,255,255)" stroke="rgb(0,0,0)" stroke-width="0.0010cm" stroke-linecap="round" stroke-linejoin="round" shaper:cutDepth="0" /><path d="M-14.212308,-7.793384 a0.21,0.21 0 1,1 0.42,0 a0.21,0.21 0 1,1 -0.42,0z" transform="matrix(1,0,0,-1,29.002308,2.2025122)" fill="rgb(255,255,255)" stroke="rgb(0,0,0)" stroke-width="0.0010cm" stroke-linecap="round" stroke-linejoin="round" shaper:cutDepth="0" /><path d="M-14.212308,-5.793384 a0.21,0.21 0 1,1 0.42,0 a0.21,0.21 0 1,1 -0.42,0z" transform="matrix(1,0,0,-1,29.002308,2.2025122)" fill="rgb(255,255,255)" stroke="rgb(0,0,0)" stroke-width="0.0010cm" stroke-linecap="round" stroke-linejoin="round" shaper:cutDepth="0" /><path d="M-14.212308,-3.793384 a0.21,0.21 0 1,1 0.42,0 a0.21,0.21 0 1,1 -0.42,0z" transform="matrix(1,0,0,-1,29.002308,2.2025122)" fill="rgb(255,255,255)" stroke="rgb(0,0,0)" stroke-width="0.0010cm" stroke-linecap="round" stroke-linejoin="round" shaper:cutDepth="0" /><path d="M-14.212308,-1.793384 a0.21,0.21 0 1,1 0.42,0 a0.21,0.21 0 1,1 -0.42,0z" transform="matrix(1,0,0,-1,29.002308,2.2025122)" fill="rgb(255,255,255)" stroke="rgb(0,0,0)" stroke-width="0.0010cm" stroke-linecap="round" stroke-linejoin="round" shaper:cutDepth="0" /><path d="M-14.212308,0.206616 a0.21,0.21 0 1,1 0.42,0 a0.21,0.21 0 1,1 -0.42,0z" transform="matrix(1,0,0,-1,29.002308,2.2025122)" fill="rgb(255,255,255)" stroke="rgb(0,0,0)" stroke-width="0.0010cm" stroke-linecap="round" stroke-linejoin="round" shaper:cutDepth="0" /><path d="M6.707692,-8.8015916 a0.29,0.29 0 1,1 0.58,0 a0.29,0.29 0 1,1 -0.58,0z" transform="matrix(1,0,0,-1,29.002308,2.2025122)" fill="rgb(255,255,255)" stroke="rgb(0,0,0)" stroke-width="0.0010cm" stroke-linecap="round" stroke-linejoin="round" shaper:cutDepth="0" /><path d="M6.707692,-6.8015916 a0.29,0.29 0 1,1 0.58,0 a0.29,0.29 0 1,1 -0.58,0z" transform="matrix(1,0,0,-1,29.002308,2.2025122)" fill="rgb(255,255,255)" stroke="rgb(0,0,0)" stroke-width="0.0010cm" stroke-linecap="round" stroke-linejoin="round" shaper:cutDepth="0" /><path d="M6.707692,-4.8015916 a0.29,0.29 0 1,1 0.58,0 a0.29,0.29 0 1,1 -0.58,0z" transform="matrix(1,0,0,-1,29.002308,2.2025122)" fill="rgb(255,255,255)" stroke="rgb(0,0,0)" stroke-width="0.0010cm" stroke-linecap="round" stroke-linejoin="round" shaper:cutDepth="0" /><path d="M6.707692,-2.8015916 a0.29,0.29 0 1,1 0.58,0 a0.29,0.29 0 1,1 -0.58,0z" transform="matrix(1,0,0,-1,29.002308,2.2025122)" fill="rgb(255,255,255)" stroke="rgb(0,0,0)" stroke-width="0.0010cm" stroke-linecap="round" stroke-linejoin="round" shaper:cutDepth="0" /><path d="M6.707692,-0.8015916 a0.29,0.29 0 1,1 0.58,0 a0.29,0.29 0 1,1 -0.58,0z" transform="matrix(1,0,0,-1,29.002308,2.2025122)" fill="rgb(255,255,255)" stroke="rgb(0,0,0)" stroke-width="0.0010cm" stroke-linecap="round" stroke-linejoin="round" shaper:cutDepth="0" /><path d="M4.707692,-2.8015916 a0.29,0.29 0 1,1 0.58,0 a0.29,0.29 0 1,1 -0.58,0z" transform="matrix(1,0,0,-1,29.002308,2.2025122)" fill="rgb(255,255,255)" stroke="rgb(0,0,0)" stroke-width="0.0010cm" stroke-linecap="round" stroke-linejoin="round" shaper:cutDepth="0" /><path d="M4.707692,-0.8015916 a0.29,0.29 0 1,1 0.58,0 a0.29,0.29 0 1,1 -0.58,0z" transform="matrix(1,0,0,-1,29.002308,2.2025122)" fill="rgb(255,255,255)" stroke="rgb(0,0,0)" stroke-width="0.0010cm" stroke-linecap="round" stroke-linejoin="round" shaper:cutDepth="0" /><path d="M4.707692,-4.8015916 a0.29,0.29 0 1,1 0.58,0 a0.29,0.29 0 1,1 -0.58,0z" transform="matrix(1,0,0,-1,29.002308,2.2025122)" fill="rgb(255,255,255)" stroke="rgb(0,0,0)" stroke-width="0.0010cm" stroke-linecap="round" stroke-linejoin="round" shaper:cutDepth="0" /><path d="M4.707692,-6.8015916 a0.29,0.29 0 1,1 0.58,0 a0.29,0.29 0 1,1 -0.58,0z" transform="matrix(1,0,0,-1,29.002308,2.2025122)" fill="rgb(255,255,255)" stroke="rgb(0,0,0)" stroke-width="0.0010cm" stroke-linecap="round" stroke-linejoin="round" shaper:cutDepth="0" /><path d="M4.707692,-8.8015916 a0.29,0.29 0 1,1 0.58,0 a0.29,0.29 0 1,1 -0.58,0z" transform="matrix(1,0,0,-1,29.002308,2.2025122)" fill="rgb(255,255,255)" stroke="rgb(0,0,0)" stroke-width="0.0010cm" stroke-linecap="round" stroke-linejoin="round" shaper:cutDepth="0" /><path d="M4.707692,-10.8015916 a0.29,0.29 0 1,1 0.58,0 a0.29,0.29 0 1,1 -0.58,0z" transform="matrix(1,0,0,-1,29.002308,2.2025122)" fill="rgb(255,255,255)" stroke="rgb(0,0,0)" stroke-width="0.0010cm" stroke-linecap="round" stroke-linejoin="round" shaper:cutDepth="0" /><path d="M2.707692,-10.8015916 a0.29,0.29 0 1,1 0.58,0 a0.29,0.29 0 1,1 -0.58,0z" transform="matrix(1,0,0,-1,29.002308,2.2025122)" fill="rgb(255,255,255)" stroke="rgb(0,0,0)" stroke-width="0.0010cm" stroke-linecap="round" stroke-linejoin="round" shaper:cutDepth="0" /><path d="M2.707692,-8.8015916 a0.29,0.29 0 1,1 0.58,0 a0.29,0.29 0 1,1 -0.58,0z" transform="matrix(1,0,0,-1,29.002308,2.2025122)" fill="rgb(255,255,255)" stroke="rgb(0,0,0)" stroke-width="0.0010cm" stroke-linecap="round" stroke-linejoin="round" shaper:cutDepth="0" /><path d="M2.707692,-6.8015916 a0.29,0.29 0 1,1 0.58,0 a0.29,0.29 0 1,1 -0.58,0z" transform="matrix(1,0,0,-1,29.002308,2.2025122)" fill="rgb(255,255,255)" stroke="rgb(0,0,0)" stroke-width="0.0010cm" stroke-linecap="round" stroke-linejoin="round" shaper:cutDepth="0" /><path d="M2.707692,-4.8015916 a0.29,0.29 0 1,1 0.58,0 a0.29,0.29 0 1,1 -0.58,0z" transform="matrix(1,0,0,-1,29.002308,2.2025122)" fill="rgb(255,255,255)" stroke="rgb(0,0,0)" stroke-width="0.0010cm" stroke-linecap="round" stroke-linejoin="round" shaper:cutDepth="0" /><path d="M2.707692,-2.8015916 a0.29,0.29 0 1,1 0.58,0 a0.29,0.29 0 1,1 -0.58,0z" transform="matrix(1,0,0,-1,29.002308,2.2025122)" fill="rgb(255,255,255)" stroke="rgb(0,0,0)" stroke-width="0.0010cm" stroke-linecap="round" stroke-linejoin="round" shaper:cutDepth="0" /><path d="M2.707692,-0.8015916 a0.29,0.29 0 1,1 0.58,0 a0.29,0.29 0 1,1 -0.58,0z" transform="matrix(1,0,0,-1,29.002308,2.2025122)" fill="rgb(255,255,255)" stroke="rgb(0,0,0)" stroke-width="0.0010cm" stroke-linecap="round" stroke-linejoin="round" shaper:cutDepth="0" /><path d="M0.707692,-0.8015916 a0.29,0.29 0 1,1 0.58,0 a0.29,0.29 0 1,1 -0.58,0z" transform="matrix(1,0,0,-1,29.002308,2.2025122)" fill="rgb(255,255,255)" stroke="rgb(0,0,0)" stroke-width="0.0010cm" stroke-linecap="round" stroke-linejoin="round" shaper:cutDepth="0" /><path d="M0.707692,-2.8015916 a0.29,0.29 0 1,1 0.58,0 a0.29,0.29 0 1,1 -0.58,0z" transform="matrix(1,0,0,-1,29.002308,2.2025122)" fill="rgb(255,255,255)" stroke="rgb(0,0,0)" stroke-width="0.0010cm" stroke-linecap="round" stroke-linejoin="round" shaper:cutDepth="0" /><path d="M0.707692,-4.8015916 a0.29,0.29 0 1,1 0.58,0 a0.29,0.29 0 1,1 -0.58,0z" transform="matrix(1,0,0,-1,29.002308,2.2025122)" fill="rgb(255,255,255)" stroke="rgb(0,0,0)" stroke-width="0.0010cm" stroke-linecap="round" stroke-linejoin="round" shaper:cutDepth="0" /><path d="M0.707692,-6.8015916 a0.29,0.29 0 1,1 0.58,0 a0.29,0.29 0 1,1 -0.58,0z" transform="matrix(1,0,0,-1,29.002308,2.2025122)" fill="rgb(255,255,255)" stroke="rgb(0,0,0)" stroke-width="0.0010cm" stroke-linecap="round" stroke-linejoin="round" shaper:cutDepth="0" /><path d="M0.707692,-8.8015916 a0.29,0.29 0 1,1 0.58,0 a0.29,0.29 0 1,1 -0.58,0z" transform="matrix(1,0,0,-1,29.002308,2.2025122)" fill="rgb(255,255,255)" stroke="rgb(0,0,0)" stroke-width="0.0010cm" stroke-linecap="round" stroke-linejoin="round" shaper:cutDepth="0" /><path d="M0.707692,-10.8015916 a0.29,0.29 0 1,1 0.58,0 a0.29,0.29 0 1,1 -0.58,0z" transform="matrix(1,0,0,-1,29.002308,2.2025122)" fill="rgb(255,255,255)" stroke="rgb(0,0,0)" stroke-width="0.0010cm" stroke-linecap="round" stroke-linejoin="round" shaper:cutDepth="0" /><path d="M-1.292308,-10.8015916 a0.29,0.29 0 1,1 0.58,0 a0.29,0.29 0 1,1 -0.58,0z" transform="matrix(1,0,0,-1,29.002308,2.2025122)" fill="rgb(255,255,255)" stroke="rgb(0,0,0)" stroke-width="0.0010cm" stroke-linecap="round" stroke-linejoin="round" shaper:cutDepth="0" /><path d="M-7.292308,-8.8015916 a0.29,0.29 0 1,1 0.58,0 a0.29,0.29 0 1,1 -0.58,0z" transform="matrix(1,0,0,-1,29.002308,2.2025122)" fill="rgb(255,255,255)" stroke="rgb(0,0,0)" stroke-width="0.0010cm" stroke-linecap="round" stroke-linejoin="round" shaper:cutDepth="0" /><path d="M-7.292308,-6.8015916 a0.29,0.29 0 1,1 0.58,0 a0.29,0.29 0 1,1 -0.58,0z" transform="matrix(1,0,0,-1,29.002308,2.2025122)" fill="rgb(255,255,255)" stroke="rgb(0,0,0)" stroke-width="0.0010cm" stroke-linecap="round" stroke-linejoin="round" shaper:cutDepth="0" /><path d="M-7.292308,-4.8015916 a0.29,0.29 0 1,1 0.58,0 a0.29,0.29 0 1,1 -0.58,0z" transform="matrix(1,0,0,-1,29.002308,2.2025122)" fill="rgb(255,255,255)" stroke="rgb(0,0,0)" stroke-width="0.0010cm" stroke-linecap="round" stroke-linejoin="round" shaper:cutDepth="0" /><path d="M-7.292308,-2.8015916 a0.29,0.29 0 1,1 0.58,0 a0.29,0.29 0 1,1 -0.58,0z" transform="matrix(1,0,0,-1,29.002308,2.2025122)" fill="rgb(255,255,255)" stroke="rgb(0,0,0)" stroke-width="0.0010cm" stroke-linecap="round" stroke-linejoin="round" shaper:cutDepth="0" /><path d="M-7.292308,-0.8015916 a0.29,0.29 0 1,1 0.58,0 a0.29,0.29 0 1,1 -0.58,0z" transform="matrix(1,0,0,-1,29.002308,2.2025122)" fill="rgb(255,255,255)" stroke="rgb(0,0,0)" stroke-width="0.0010cm" stroke-linecap="round" stroke-linejoin="round" shaper:cutDepth="0" /><path d="M-9.292308,-0.8015916 a0.29,0.29 0 1,1 0.58,0 a0.29,0.29 0 1,1 -0.58,0z" transform="matrix(1,0,0,-1,29.002308,2.2025122)" fill="rgb(255,255,255)" stroke="rgb(0,0,0)" stroke-width="0.0010cm" stroke-linecap="round" stroke-linejoin="round" shaper:cutDepth="0" /><path d="M-9.292308,-2.8015916 a0.29,0.29 0 1,1 0.58,0 a0.29,0.29 0 1,1 -0.58,0z" transform="matrix(1,0,0,-1,29.002308,2.2025122)" fill="rgb(255,255,255)" stroke="rgb(0,0,0)" stroke-width="0.0010cm" stroke-linecap="round" stroke-linejoin="round" shaper:cutDepth="0" /><path d="M-9.292308,-4.8015916 a0.29,0.29 0 1,1 0.58,0 a0.29,0.29 0 1,1 -0.58,0z" transform="matrix(1,0,0,-1,29.002308,2.2025122)" fill="rgb(255,255,255)" stroke="rgb(0,0,0)" stroke-width="0.0010cm" stroke-linecap="round" stroke-linejoin="round" shaper:cutDepth="0" /><path d="M-9.292308,-6.8015916 a0.29,0.29 0 1,1 0.58,0 a0.29,0.29 0 1,1 -0.58,0z" transform="matrix(1,0,0,-1,29.002308,2.2025122)" fill="rgb(255,255,255)" stroke="rgb(0,0,0)" stroke-width="0.0010cm" stroke-linecap="round" stroke-linejoin="round" shaper:cutDepth="0" /><path d="M-9.292308,-8.8015916 a0.29,0.29 0 1,1 0.58,0 a0.29,0.29 0 1,1 -0.58,0z" transform="matrix(1,0,0,-1,29.002308,2.2025122)" fill="rgb(255,255,255)" stroke="rgb(0,0,0)" stroke-width="0.0010cm" stroke-linecap="round" stroke-linejoin="round" shaper:cutDepth="0" /><path d="M-9.292308,-10.8015916 a0.29,0.29 0 1,1 0.58,0 a0.29,0.29 0 1,1 -0.58,0z" transform="matrix(1,0,0,-1,29.002308,2.2025122)" fill="rgb(255,255,255)" stroke="rgb(0,0,0)" stroke-width="0.0010cm" stroke-linecap="round" stroke-linejoin="round" shaper:cutDepth="0" /><path d="M-11.292308,-10.8015916 a0.29,0.29 0 1,1 0.58,0 a0.29,0.29 0 1,1 -0.58,0z" transform="matrix(1,0,0,-1,29.002308,2.2025122)" fill="rgb(255,255,255)" stroke="rgb(0,0,0)" stroke-width="0.0010cm" stroke-linecap="round" stroke-linejoin="round" shaper:cutDepth="0" /><path d="M-13.292308,-2.8015916 a0.29,0.29 0 1,1 0.58,0 a0.29,0.29 0 1,1 -0.58,0z" transform="matrix(1,0,0,-1,29.002308,2.2025122)" fill="rgb(255,255,255)" stroke="rgb(0,0,0)" stroke-width="0.0010cm" stroke-linecap="round" stroke-linejoin="round" shaper:cutDepth="0" /><path d="M-13.292308,-4.8015916 a0.29,0.29 0 1,1 0.58,0 a0.29,0.29 0 1,1 -0.58,0z" transform="matrix(1,0,0,-1,29.002308,2.2025122)" fill="rgb(255,255,255)" stroke="rgb(0,0,0)" stroke-width="0.0010cm" stroke-linecap="round" stroke-linejoin="round" shaper:cutDepth="0" /><path d="M-13.292308,-6.8015916 a0.29,0.29 0 1,1 0.58,0 a0.29,0.29 0 1,1 -0.58,0z" transform="matrix(1,0,0,-1,29.002308,2.2025122)" fill="rgb(255,255,255)" stroke="rgb(0,0,0)" stroke-width="0.0010cm" stroke-linecap="round" stroke-linejoin="round" shaper:cutDepth="0" /><path d="M-13.292308,-8.8015916 a0.29,0.29 0 1,1 0.58,0 a0.29,0.29 0 1,1 -0.58,0z" transform="matrix(1,0,0,-1,29.002308,2.2025122)" fill="rgb(255,255,255)" stroke="rgb(0,0,0)" stroke-width="0.0010cm" stroke-linecap="round" stroke-linejoin="round" shaper:cutDepth="0" /><path d="M-13.292308,-10.8015916 a0.29,0.29 0 1,1 0.58,0 a0.29,0.29 0 1,1 -0.58,0z" transform="matrix(1,0,0,-1,29.002308,2.2025122)" fill="rgb(255,255,255)" stroke="rgb(0,0,0)" stroke-width="0.0010cm" stroke-linecap="round" stroke-linejoin="round" shaper:cutDepth="0" /><path d="M-15.292308,-10.8015916 a0.29,0.29 0 1,1 0.58,0 a0.29,0.29 0 1,1 -0.58,0z" transform="matrix(1,0,0,-1,29.002308,2.2025122)" fill="rgb(255,255,255)" stroke="rgb(0,0,0)" stroke-width="0.0010cm" stroke-linecap="round" stroke-linejoin="round" shaper:cutDepth="0" /></svg>